<?xml version="1.0" encoding="UTF-8"?>
<svg width="1075px" height="410px" viewBox="0 0 1075 410" version="1.1" xmlns="http://www.w3.org/2000/svg" xmlns:xlink="http://www.w3.org/1999/xlink">
    <!-- Generator: Sketch 53.2 (72643) - https://sketchapp.com -->
    <title>7Asset 1</title>
    <desc>Created with Sketch.</desc>
    <g id="Page-1" stroke="none" stroke-width="1" fill="none" fill-rule="evenodd">
        <g id="Home-" transform="translate(-281.000000, -6815.000000)" stroke="#1B1B1B" stroke-width="2">
            <g id="Fleet" transform="translate(135.000000, 6705.000000)">
                <g id="Gallery" transform="translate(57.000000, 112.000000)">
                    <g id="7Asset-1" transform="translate(90.000000, 0.000000)">
                        <path d="M1070.36145,196.829107 C1070.36145,279.550721 966.095664,279.053297 966.095664,279.053297 L966.095664,247.392258 C966.095664,232.071599 947.701676,172.778656 878.207748,172.778656 C802.068089,172.778656 783.151404,239.930898 783.151404,262.663176 L783.151404,294.821638 L313.196223,298.030023 L313.196223,277.312313 C313.196223,261.419616 303.638319,173.400436 218.612796,173.400436 C129.007444,173.400436 127.115776,252.441112 127.115776,275.17339 L127.115776,299 L39.1531886,294.02576 C39.1531886,294.02576 5.94942769,291.812223 5.94942769,266.667439 L5.94942769,248.287622 C5.94942769,248.287622 0.149970193,241.821109 0.149970193,238.339141 C0.149970193,234.857173 -1.56746572,216.203773 6.62146783,208.046019 C14.8104014,199.888265 30.4166668,164.670645 55.9541921,153.777059 C81.4917174,142.883473 197.331525,108.486602 252.861953,106.521777 C252.861953,106.521777 435.109283,0.321749788 590.972814,0.321749788 C590.972814,0.321749788 786.038687,-6.49295923 858.245667,42.6027911 C858.245667,42.6027911 932.916793,82.3967124 1016.67291,83.466174 C1025.2352,83.466174 1041.88686,84.1376964 1041.88686,106.596391 C1041.88686,106.596391 1054.15781,120.574006 1054.15781,153.851672 C1054.15781,153.851672 1072.99983,162.258138 1072.99983,178.399547 C1073.02472,196.953463 1070.36145,192.153321 1070.36145,196.829107 Z" id="Path" fill="#FFFFFF" stroke-linecap="round" stroke-linejoin="round"></path>
                        <path d="M252,106.026729 C252,106.026729 271.148395,111.012979 276.590834,108.071092 C340.502036,73.965147 474.116394,28.2911043 474.116394,28.2911043 C474.116394,28.2911043 477.861191,24.5264861 474.790457,16" id="Path" stroke-linecap="round" stroke-linejoin="round"></path>
                        <path d="M1041.70735,106 C1041.70735,106 1006.79921,122.433217 997,122.783392 C997,122.783392 1006.20079,156 1033.17979,156 L1054,153.498749" id="Path" stroke-linecap="round" stroke-linejoin="round"></path>
                        <path d="M997,123 C997,123 1014.11215,136.601692 1051,128.333997" id="Path" stroke-linecap="round" stroke-linejoin="round"></path>
                        <path d="M965,237.651975 C965,237.651975 1035.34145,240.658169 1064,229" id="Path" stroke-linecap="round" stroke-linejoin="round"></path>
                        <path d="M1069.1907,201.602578 C1069.1907,201.602578 1017.03064,206 1001.44487,206 C985.859097,206 982,188.410311 982,188.410311 L1073,183" id="Path" stroke-linecap="round" stroke-linejoin="round"></path>
                        <path d="M1035,89 C1035,89 967.256539,116 827,116" id="Path" stroke-linecap="round" stroke-linejoin="round"></path>
                        <path d="M5,248 C18.8448594,262.087734 93.8774882,265.025817 127,263.720003" id="Path" stroke-linecap="round" stroke-linejoin="round"></path>
                        <path d="M73.4151927,225.33786 C77.1042241,216.047964 63.2641668,226.065987 34.0490192,220.59248 C23.4523385,218.608962 18.5253772,221.16996 16,234.979266 C16.0990344,234.979266 66.2599574,243.566143 73.4151927,225.33786 Z" id="Path" stroke-linecap="round" stroke-linejoin="round"></path>
                        <path d="M34,199 C34,199 45.9507524,160 125,160 C125,160 120.194802,199 34,199 Z" id="Path" stroke-linecap="round" stroke-linejoin="round"></path>
                        <path d="M34,199 C34,199 77.6202462,191.804612 125,160" id="Path" stroke-linecap="round" stroke-linejoin="round"></path>
                        <path d="M140,159 C140,159 226.38154,137.071066 291,135" id="Path" stroke-linecap="round" stroke-linejoin="round"></path>
                        <path d="M831.877042,76.0796199 C826.52903,162.804379 792.923616,186.841949 774.665752,227.785611 C756.407888,268.729272 739.841488,272.943328 722.429356,273.591644 C629.597819,277.207253 441.895037,280 348.939128,280 C328.865427,280 304.687438,190.233142 304.015828,152.830284 C303.344217,115.427426 324.189026,102.510973 339.362455,95.4792354 C406.647908,63.7865473 501.643524,18.1799962 614.001524,18.7535067 C614.001524,18.7535067 745.313872,13.4423009 797.351272,31.021644 C809.490015,35.1608936 833.941623,41.0954804 831.877042,76.0796199 Z" id="Path" stroke-linecap="round" stroke-linejoin="round"></path>
                        <path d="M628,19 C628,19 587,128.469624 587,154.418901 C587,180.368177 589.07275,231.022758 589.07275,232.565284 C589.07275,234.107811 594.254624,273.442237 597.894575,277" id="Path" stroke-linecap="round" stroke-linejoin="round"></path>
                        <path d="M155,371 L329.5,371" id="Line-2" stroke-linecap="square"></path>
                        <path d="M853,369 L962.5,369" id="Line-2-Copy-2" stroke-linecap="square"></path>
                        <path d="M404,341 L550.5,340" id="Line-2-Copy-3" stroke-linecap="square"></path>
                        <path d="M340,407 L419,407" id="Line-2-Copy" stroke-linecap="square"></path>
                        <path d="M637.089333,33.0244563 L616,109.986765 C616,109.986765 687.400323,110.408816 746.117203,106.486221 C807.967639,102.340187 812.667974,92.5336996 816.149703,74.807542 C821.24795,48.8141429 802.347133,42.8805972 788.047173,40.0503703 C746.26642,32.2051802 637.089333,33.0244563 637.089333,33.0244563 Z" id="Path" fill="#FFFFFF" stroke-linecap="round" stroke-linejoin="round"></path>
                        <path d="M377.820385,123.110481 L329,126 C329,126 484.017819,28.5036476 609,33.1617513 L581.558803,110.904755 L425.293656,120.34551" id="Path" fill="#FFFFFF" stroke-linecap="round" stroke-linejoin="round"></path>
                        <path d="M329,207.94902 C329,207.94902 331.039687,221 348.078535,221 C365.117384,221 757.980995,206.568627 757.980995,206.568627 C757.980995,206.568627 774,205.539608 774,189 L329,207.94902 Z" id="Path" stroke-linecap="round" stroke-linejoin="round"></path>
                        <path d="M394.790838,135.294214 C394.790838,135.294214 381.467297,141.706727 391.197973,158 C391.197973,158 371.237613,156.652624 365,130.553445 C365,130.553445 377.799581,129.530438 388.553225,111.340857 C399.30687,93.1512771 419.067627,92.6522488 423.13455,101.959126 C426.378109,109.44455 432.965028,135.917999 401.277955,136.117611 C394.167077,136.117611 381.117991,135.418971 388.553225,111.340857" id="Path" stroke-linecap="round" stroke-linejoin="round"></path>
                        <path d="M389,129 C389,129 397.094059,99.2823259 419,96" id="Path" stroke-linecap="round" stroke-linejoin="round"></path>
                        <path d="M566.982554,147.898601 C567.237114,151.41381 564.676049,154.480058 561.250105,154.761805 L532.71087,156.982253 C529.274491,157.242915 526.280846,154.601596 526.018912,151.077879 L526.018912,151.077879 C525.89015,149.390381 526.422747,147.719875 527.498728,146.436386 C528.57471,145.152898 530.105263,144.36237 531.751362,144.239908 L560.290596,142.01946 C561.938551,141.887242 563.570108,142.432722 564.825477,143.535612 C566.080846,144.638502 566.856918,146.208216 566.982554,147.898601 L566.982554,147.898601 Z" id="Path" stroke-linecap="round" stroke-linejoin="round"></path>
                        <path d="M800.981026,136.898544 C801.10994,138.588653 800.578091,140.261945 799.502761,141.549426 C798.427432,142.836908 796.896944,143.632832 795.248799,143.761681 L766.710672,145.982108 C763.283305,146.243179 760.293679,143.616602 760.018974,140.103024 L760.018974,140.103024 C759.89006,138.412915 760.421909,136.739623 761.497239,135.452141 C762.572568,134.16466 764.103056,133.368736 765.751201,133.239886 L794.289328,131.01946 C795.937219,130.887243 797.568712,131.432718 798.824033,132.535597 C800.079353,133.638476 800.855395,135.208175 800.981026,136.898544 L800.981026,136.898544 Z" id="Path" stroke-linecap="round" stroke-linejoin="round"></path>
                        <path d="M159.579072,203.56147 C144.481899,218.653976 136.000003,239.126608 136.000004,260.473935 C135.989936,293.034933 155.596459,322.395364 185.676009,334.862895 L185.676009,334.862895 C215.755559,347.330427 250.383619,340.449435 273.411283,317.428892 C296.438946,294.408349 303.330647,259.782417 290.872419,229.699013 C278.41419,199.615608 249.059825,180.000005 216.498826,180.000004" id="Path" fill="#FFFFFF" stroke-linecap="round" stroke-linejoin="round"></path>
                        <path d="M163,260.5 C163,290.047234 186.952766,314 216.5,314 C246.047234,314 270,290.047234 270,260.5 C270,230.952766 246.047234,207 216.5,207 C202.310918,207 188.702983,212.636591 178.669787,222.669787 C168.636591,232.702983 163,246.310918 163,260.5 L163,260.5 Z" id="Path" stroke-linecap="round" stroke-linejoin="round"></path>
                        <path d="M170.000007,260.474416 C169.989932,279.283899 181.312738,296.246881 198.687542,303.451941 C216.062347,310.657001 236.066617,306.684866 249.370494,293.388114 C262.67437,280.091363 266.657222,260.089223 259.461472,242.710559 C252.265723,225.331895 235.308811,214.000003 216.499326,214 C190.828184,213.999996 170.013757,234.803276 170.000007,260.474416 L170.000007,260.474416 Z" id="Path" stroke-linecap="round" stroke-linejoin="round"></path>
                        <path d="M192.000013,260.474618 C191.989889,270.38607 197.952611,279.327206 207.106694,283.127172 C216.260776,286.927137 226.80261,284.837234 233.814648,277.832357 C240.826686,270.827481 242.927362,260.287787 239.136754,251.129825 C235.346146,241.971863 226.411109,236.000005 216.499653,236 C202.978642,235.999993 192.013824,246.953613 192.000013,260.474618 Z" id="Path" stroke-linecap="round" stroke-linejoin="round"></path>
                        <path d="M213,245.5 C213,247.432997 214.567003,249 216.5,249 C218.432997,249 220,247.432997 220,245.5 C220,243.567003 218.432997,242 216.5,242 C214.567003,242 213,243.567003 213,245.5 Z" id="Path" stroke-linecap="round" stroke-linejoin="round"></path>
                        <path d="M213,275.5 C213,277.432997 214.567003,279 216.5,279 C218.432997,279 220,277.432997 220,275.5 C220,273.567003 218.432997,272 216.5,272 C215.571742,272 214.681504,272.368749 214.025126,273.025126 C213.368749,273.681504 213,274.571742 213,275.5 Z" id="Path" stroke-linecap="round" stroke-linejoin="round"></path>
                        <path d="M198.00009,260.500037 C198.000126,261.917901 198.855581,263.195662 200.166478,263.735889 C201.477374,264.276117 202.984687,263.972066 203.983656,262.965898 C204.982625,261.95973 205.27586,260.450258 204.726256,259.143252 C204.176651,257.836246 202.892806,256.989962 201.474996,257.00009 C200.549046,257.000066 199.66138,257.369605 199.008985,258.026701 C198.356591,258.683797 197.993429,259.5741 198.00009,260.500037 Z" id="Path" stroke-linecap="round" stroke-linejoin="round"></path>
                        <path d="M228.000091,260.500045 C228.000091,262.433017 229.567074,264 231.500045,264 C233.433017,264 235,262.433017 235,260.500045 C235,258.567074 233.433017,257.000091 231.500045,257.000091 C230.569757,256.993374 229.675621,257.35996 229.017791,258.017791 C228.35996,258.675621 227.993374,259.569757 228.000091,260.500045 Z" id="Path" stroke-linecap="round" stroke-linejoin="round"></path>
                        <path d="M817.15787,207.215566 C804.613234,221.410989 797,240.066412 797,260.5 L797,260.5 C797,304.958922 833.041078,341 877.5,341 C921.958922,341 958,304.958922 958,260.5 C958,216.041078 921.958922,180 877.5,180" id="Path" stroke-linecap="round" stroke-linejoin="round"></path>
                        <path d="M824.000006,260.474294 C823.989923,282.117242 837.020892,301.634224 857.014441,309.92128 C877.00799,318.208336 900.025001,313.632755 915.328878,298.328878 C930.632755,283.025001 935.208336,260.00799 926.92128,240.014441 C918.634224,220.020892 899.117242,206.989923 877.474294,207.000006 C847.94126,207.000006 824.000006,230.94126 824.000006,260.474294 L824.000006,260.474294 Z" id="Path" stroke-linecap="round" stroke-linejoin="round"></path>
                        <path d="M831.000007,260.474416 C830.989932,279.283899 842.312738,296.246881 859.687542,303.451941 C877.062347,310.657001 897.066617,306.684866 910.370494,293.388114 C923.67437,280.091363 927.657222,260.089223 920.461472,242.710559 C913.265723,225.331895 896.308811,214.000003 877.499326,214 C851.828184,213.999996 831.013757,234.803276 831.000007,260.474416 L831.000007,260.474416 Z" id="Path" stroke-linecap="round" stroke-linejoin="round"></path>
                        <path d="M853.000013,260.474618 C852.989889,270.38607 858.952611,279.327206 868.106694,283.127172 C877.260776,286.927137 887.80261,284.837234 894.814648,277.832357 C901.826686,270.827481 903.927362,260.287787 900.136754,251.129825 C896.346146,241.971863 887.411109,236.000005 877.499653,236 C863.978642,235.999993 853.013824,246.953613 853.000013,260.474618 L853.000013,260.474618 Z" id="Path" stroke-linecap="round" stroke-linejoin="round"></path>
                        <path d="M874,245.5 C874,247.432997 875.567003,249 877.5,249 C879.432997,249 881,247.432997 881,245.5 C881,243.567003 879.432997,242 877.5,242 C875.567003,242 874,243.567003 874,245.5 L874,245.5 Z" id="Path" stroke-linecap="round" stroke-linejoin="round"></path>
                        <path d="M874,275.5 C874,277.432997 875.567003,279 877.5,279 C879.432997,279 881,277.432997 881,275.5 C881,273.567003 879.432997,272 877.5,272 C876.571742,272 875.681504,272.368749 875.025126,273.025126 C874.368749,273.681504 874,274.571742 874,275.5 L874,275.5 Z" id="Path" stroke-linecap="round" stroke-linejoin="round"></path>
                        <path d="M859,260.5 C859,262.432997 860.567003,264 862.5,264 C864.432997,264 866,262.432997 866,260.5 C866,258.567003 864.432997,257 862.5,257 C860.567003,257 859,258.567003 859,260.5 Z" id="Path" stroke-linecap="round" stroke-linejoin="round"></path>
                        <path d="M888.000091,260.500045 C888.000091,262.433017 889.567074,264 891.500045,264 C893.433017,264 895,262.433017 895,260.500045 C895,258.567074 893.433017,257.000091 891.500045,257.000091 C890.569757,256.993374 889.675621,257.35996 889.017791,258.017791 C888.35996,258.675621 887.993374,259.569757 888.000091,260.500045 Z" id="Path" stroke-linecap="round" stroke-linejoin="round"></path>
                        <path d="M297,260 L311,260" id="Path" stroke-linecap="round" stroke-linejoin="round"></path>
                        <path d="M952,232 L963,232" id="Path" stroke-linecap="round" stroke-linejoin="round"></path>
                        <path d="M782,260 L796,260" id="Path" stroke-linecap="round" stroke-linejoin="round"></path>
                        <path d="M128,256 L136,256" id="Path" stroke-linecap="round" stroke-linejoin="round"></path>
                    </g>
                </g>
            </g>
        </g>
    </g>
</svg>