<?xml version="1.0" encoding="UTF-8"?>
<svg width="104px" height="104px" viewBox="0 0 104 104" version="1.1" xmlns="http://www.w3.org/2000/svg" xmlns:xlink="http://www.w3.org/1999/xlink">
    <!-- Generator: Sketch 53.2 (72643) - https://sketchapp.com -->
    <title>accounting-coins-bill</title>
    <desc>Created with Sketch.</desc>
    <g id="Page-1" stroke="none" stroke-width="1" fill="none" fill-rule="evenodd" stroke-linecap="round" stroke-linejoin="round">
        <g id="Dispatch-System" transform="translate(-668.000000, -1665.000000)" stroke="#D80000" stroke-width="3.6">
            <g id="Group" transform="translate(670.000000, 1667.000000)">
                <g id="accounting-coins-bill">
                    <ellipse id="Oval" cx="21.71875" cy="43.4027778" rx="21.7013889" ry="4.34027778"></ellipse>
                    <path d="M43.4027778,43.4027778 L43.4027778,56.4236111 C43.4027778,58.8237847 33.6892361,60.7638889 21.7013889,60.7638889 C9.71354167,60.7638889 9.09494702e-13,58.8237847 9.09494702e-13,56.4236111 L9.09494702e-13,43.4027778" id="Shape"></path>
                    <path d="M43.4027778,56.4236111 L43.4027778,69.4444444 C43.4027778,71.8446181 33.6892361,73.7847222 21.7013889,73.7847222 C9.71354167,73.7847222 9.09494702e-13,71.8446181 9.09494702e-13,69.4444444 L9.09494702e-13,56.4236111" id="Shape"></path>
                    <path d="M43.4027778,69.4444444 L43.4027778,82.4652778 C43.4027778,84.8654514 33.6892361,86.8055556 21.7013889,86.8055556 C9.71354167,86.8055556 9.09494702e-13,84.8654514 9.09494702e-13,82.4652778 L9.09494702e-13,69.4444444" id="Shape"></path>
                    <path d="M43.4027778,82.4652778 L43.4027778,95.4861111 C43.4027778,97.8862847 33.6892361,99.8263889 21.7013889,99.8263889 C9.71354167,99.8263889 9.09494702e-13,97.8862847 9.09494702e-13,95.4861111 L9.09494702e-13,82.4652778" id="Shape"></path>
                    <path d="M0,30.3819444 L0,4.34027778 C-2.40933816e-16,1.94320855 1.94320855,4.55229219e-13 4.34027778,4.54747351e-13 L95.4861111,4.54747351e-13 C97.8831803,4.54747351e-13 99.8263889,1.94320855 99.8263889,4.34027778 L99.8263889,56.4236111 C99.8263889,58.8206803 97.8831803,60.7638889 95.4861111,60.7638889 L54.2534722,60.7638889" id="Shape"></path>
                    <path d="M36.8923611,30.3819444 C36.8936256,23.7605434 41.8639486,18.1944884 48.4430071,17.4468636 C55.0220656,16.6992387 61.1145506,21.0081487 62.6014707,27.4604369 C64.0883907,33.9127251 60.4961891,40.4534564 54.2534722,42.6605903" id="Shape"></path>
                    <path d="M19.53125,18.4461806 C20.1305173,18.4461806 20.6163194,18.9319827 20.6163194,19.53125 C20.6163194,20.1305173 20.1305173,20.6163194 19.53125,20.6163194 C18.9319827,20.6163194 18.4461806,20.1305173 18.4461806,19.53125 C18.4461806,18.9319827 18.9319827,18.4461806 19.53125,18.4461806" id="Shape"></path>
                    <path d="M80.2951389,40.1475694 C80.8944062,40.1475694 81.3802083,40.6333716 81.3802083,41.2326389 C81.3802083,41.8319062 80.8944062,42.3177083 80.2951389,42.3177083 C79.6958716,42.3177083 79.2100694,41.8319062 79.2100694,41.2326389 C79.2100694,40.6333716 79.6958716,40.1475694 80.2951389,40.1475694" id="Shape"></path>
                    <path d="M8.68055556,30.3819444 L8.68055556,10.8506944 C8.68055556,9.65215983 9.65215983,8.68055556 10.8506944,8.68055556 L88.9756944,8.68055556 C90.1742291,8.68055556 91.1458333,9.65215983 91.1458333,10.8506944 L91.1458333,49.9131944 C91.1458333,51.1117291 90.1742291,52.0833333 88.9756944,52.0833333 L54.2534722,52.0833333" id="Shape"></path>
                </g>
            </g>
        </g>
    </g>
</svg>