<?xml version="1.0" encoding="UTF-8"?>
<svg width="60px" height="60px" viewBox="0 0 60 60" version="1.1" xmlns="http://www.w3.org/2000/svg" xmlns:xlink="http://www.w3.org/1999/xlink">
    <!-- Generator: Sketch 53.2 (72643) - https://sketchapp.com -->
    <title>app</title>
    <desc>Created with Sketch.</desc>
    <g id="Page-1" stroke="none" stroke-width="1" fill="none" fill-rule="evenodd">
        <g id="Desktop-HD" transform="translate(-1118.000000, -1620.000000)" fill="#D80000" fill-rule="nonzero">
            <g id="Features" transform="translate(0.000000, 1320.000000)">
                <g transform="translate(216.000000, 0.000000)" id="Group-20">
                    <g transform="translate(869.000000, 300.000000)">
                        <g id="app" transform="translate(33.000000, 0.000000)">
                            <path d="M20.221519,50.1265823 L13.9556962,50.1265823 C13.3792405,50.1265823 12.9113924,50.5792405 12.9113924,51.1392405 L12.9113924,55.1898734 C12.9113924,55.7498734 13.3792405,56.2025316 13.9556962,56.2025316 L20.221519,56.2025316 C20.7979747,56.2025316 21.2658228,55.7498734 21.2658228,55.1898734 L21.2658228,51.1392405 C21.2658228,50.5792405 20.7979747,50.1265823 20.221519,50.1265823 Z M19.1772152,54.1772152 L15,54.1772152 L15,52.1518987 L19.1772152,52.1518987 L19.1772152,54.1772152 Z" id="Shape"></path>
                            <path d="M24.6901899,12.5603544 C22.9803797,10.8277468 20.7066456,9.87341772 18.2886076,9.87341772 L17.4066456,9.87341772 C14.9886076,9.87341772 12.7148734,10.8277468 11.0050633,12.5603544 C9.29620253,14.292962 8.35443038,16.5960506 8.35443038,19.0463291 C8.35443038,22.6712405 9.37689873,26.1980253 11.3107595,29.2466835 L17.0496835,38.2926076 C17.2243671,38.5677468 17.5253165,38.7341772 17.8481013,38.7341772 C18.1708861,38.7341772 18.4718354,38.5677468 18.646519,38.2926076 L24.385443,29.2466835 C26.3193038,26.1980253 27.3417722,22.6712405 27.3417722,19.0463291 C27.3417722,16.5960506 26.4,14.292962 24.6901899,12.5603544 Z M22.7886076,28.2057722 L17.8481013,35.9924051 L12.9075949,28.2048101 C11.1712025,25.4678481 10.2531646,22.3008608 10.2531646,19.0463291 C10.2531646,17.1097722 10.9974684,15.2905823 12.3484177,13.9206582 C13.6993671,12.5516962 15.496519,11.7974684 17.4075949,11.7974684 L18.289557,11.7974684 C20.2006329,11.7974684 21.9968354,12.5516962 23.3487342,13.9206582 C24.6987342,15.2905823 25.443038,17.1097722 25.443038,19.0463291 C25.443038,22.3008608 24.525,25.4678481 22.7886076,28.2057722 Z" id="Shape"></path>
                            <path d="M17.0886076,12.9113924 C13.9471519,12.9113924 11.3924051,15.4661392 11.3924051,18.6075949 C11.3924051,21.7490506 13.9471519,24.3037975 17.0886076,24.3037975 C20.2300633,24.3037975 22.7848101,21.7490506 22.7848101,18.6075949 C22.7848101,15.4661392 20.2300633,12.9113924 17.0886076,12.9113924 Z M17.0886076,22.4050633 C14.9943038,22.4050633 13.2911392,20.7018987 13.2911392,18.6075949 C13.2911392,16.5132911 14.9943038,14.8101266 17.0886076,14.8101266 C19.1829114,14.8101266 20.8860759,16.5132911 20.8860759,18.6075949 C20.8860759,20.7018987 19.1829114,22.4050633 17.0886076,22.4050633 Z" id="Shape"></path>
                            <polygon id="Path" points="26.5822785 38.4303797 28.6075949 38.4303797 28.6075949 46.3291139 30.6329114 46.3291139 30.6329114 38.4303797 32.6582278 38.4303797 32.6582278 36.4556962 26.5822785 36.4556962"></polygon>
                            <path d="M39.2405063,36.4556962 L35.1898734,36.4556962 C34.6308861,36.4556962 34.1772152,36.897038 34.1772152,37.443038 L34.1772152,46.3291139 L36.2025316,46.3291139 L36.2025316,44.3544304 L38.2278481,44.3544304 L38.2278481,46.3291139 L40.2531646,46.3291139 L40.2531646,37.443038 C40.2531646,36.897038 39.7994937,36.4556962 39.2405063,36.4556962 Z M36.2025316,42.3797468 L36.2025316,38.4303797 L38.2278481,38.4303797 L38.2278481,42.3797468 L36.2025316,42.3797468 Z" id="Shape"></path>
                            <path d="M45.6,37.2041013 L45.5696203,37.3215949 L45.5392405,37.2041013 C45.4268354,36.7637468 45.0217722,36.4556962 44.556962,36.4556962 L42.5316456,36.4556962 L42.5316456,38.4303797 L43.7660759,38.4303797 L44.5255696,41.3924051 L43.7660759,44.3544304 L42.5316456,44.3544304 L42.5316456,46.3291139 L44.556962,46.3291139 C45.0217722,46.3291139 45.4268354,46.0210633 45.5392405,45.5807089 L45.5696203,45.4632152 L45.6,45.5807089 C45.7124051,46.0210633 46.1174684,46.3291139 46.5822785,46.3291139 L48.6075949,46.3291139 L48.6075949,44.3544304 L47.3731646,44.3544304 L46.6136709,41.3924051 L47.3731646,38.4303797 L48.6075949,38.4303797 L48.6075949,36.4556962 L46.5822785,36.4556962 C46.1174684,36.4556962 45.7124051,36.7637468 45.6,37.2041013 Z" id="Path"></path>
                            <polygon id="Path" points="56.2025316 44.3544304 54.1772152 44.3544304 54.1772152 38.4303797 56.2025316 38.4303797 56.2025316 36.4556962 50.1265823 36.4556962 50.1265823 38.4303797 52.1518987 38.4303797 52.1518987 44.3544304 50.1265823 44.3544304 50.1265823 46.3291139 56.2025316 46.3291139"></polygon>
                            <path d="M59.0322581,32.9032258 L47.82,32.9032258 L42.2970968,27.3803226 C42.0193548,27.1035484 41.6041935,27.0183871 41.2422581,27.1703226 C40.8812903,27.3193548 40.6451613,27.6735484 40.6451613,28.0645161 L40.6451613,32.9032258 L34.8387097,32.9032258 L34.8387097,4.83870968 C34.8387097,2.17064516 32.6680645,0 30,0 L4.83870968,0 C2.17064516,0 0,2.17064516 0,4.83870968 L0,55.1612903 C0,57.8293548 2.17064516,60 4.83870968,60 L30,60 C32.6680645,60 34.8387097,57.8293548 34.8387097,55.1612903 L34.8387097,50.3225806 L59.0322581,50.3225806 C59.5664516,50.3225806 60,49.89 60,49.3548387 L60,33.8709677 C60,33.3358065 59.5664516,32.9032258 59.0322581,32.9032258 Z M24.1935484,32.9032258 C23.6593548,32.9032258 23.2258065,33.3358065 23.2258065,33.8709677 L23.2258065,46.4516129 L1.93548387,46.4516129 L1.93548387,7.74193548 L32.9032258,7.74193548 L32.9032258,32.9032258 L24.1935484,32.9032258 Z M4.83870968,1.93548387 L30,1.93548387 C31.6006452,1.93548387 32.9032258,3.23806452 32.9032258,4.83870968 L32.9032258,5.80645161 L1.93548387,5.80645161 L1.93548387,4.83870968 C1.93548387,3.23806452 3.23806452,1.93548387 4.83870968,1.93548387 Z M32.9032258,55.1612903 C32.9032258,56.7619355 31.6006452,58.0645161 30,58.0645161 L4.83870968,58.0645161 C3.23806452,58.0645161 1.93548387,56.7619355 1.93548387,55.1612903 L1.93548387,48.3870968 L23.2258065,48.3870968 L23.2258065,49.3548387 C23.2258065,49.89 23.6593548,50.3225806 24.1935484,50.3225806 L32.9032258,50.3225806 L32.9032258,55.1612903 Z M58.0645161,48.3870968 L25.1612903,48.3870968 L25.1612903,34.8387097 L41.6129032,34.8387097 C42.1470968,34.8387097 42.5806452,34.406129 42.5806452,33.8709677 L42.5806452,30.4006452 L46.7351613,34.5551613 C46.916129,34.7370968 47.1629032,34.8387097 47.4193548,34.8387097 L58.0645161,34.8387097 L58.0645161,48.3870968 Z" id="Shape"></path>
                        </g>
                    </g>
                </g>
            </g>
        </g>
    </g>
</svg>