<?xml version="1.0" encoding="UTF-8"?>
<svg width="71px" height="98px" viewBox="0 0 71 98" version="1.1" xmlns="http://www.w3.org/2000/svg" xmlns:xlink="http://www.w3.org/1999/xlink">
    <!-- Generator: Sketch 53.2 (72643) - https://sketchapp.com -->
    <title>book-book-pages</title>
    <desc>Created with Sketch.</desc>
    <g id="Page-1" stroke="none" stroke-width="1" fill="none" fill-rule="evenodd" stroke-linecap="round" stroke-linejoin="round">
        <g id="Dispatch-System" transform="translate(-1100.000000, -1671.000000)" stroke="#D80000" stroke-width="3.6">
            <g id="book-book-pages" transform="translate(1102.000000, 1673.000000)">
                <path d="M1.8125,0.725 L39.0458333,15.6125 C40.6277103,16.2444785 41.6655885,17.77572 41.6666667,19.4791667 L41.6666667,89.6791667 C41.6644123,91.0602512 40.9779676,92.3504785 39.8338658,93.1240616 C38.6897641,93.8976446 37.2366881,94.0540515 35.9541667,93.5416667 L2.62083333,80.2083333 C1.0403654,79.57692 0.0027799289,78.0477599 -1.20792265e-12,76.3458333 L-1.20792265e-12,4.16666667 C-1.20792265e-12,1.86548021 1.86548021,9.28331486e-14 4.16666667,9.23705556e-14 L62.5,9.23705556e-14 C64.8011865,9.23705556e-14 66.6666667,1.86548021 66.6666667,4.16666667 L66.6666667,75 C66.6666667,77.3011865 64.8011865,79.1666667 62.5,79.1666667 L54.1666667,79.1666667" id="Path"></path>
                <path d="M2.3,0.441666667 L50.7833333,9.7625 C52.7465613,10.1382875 54.1663288,11.8552969 54.1666667,13.8541667 L54.1666667,83.3333333 C54.1666667,85.6345198 52.3011865,87.5 50,87.5 L41.6666667,87.5" id="Path"></path>
            </g>
        </g>
    </g>
</svg>