<?xml version="1.0" encoding="UTF-8"?>
<svg width="40px" height="50px" viewBox="0 0 40 50" version="1.1" xmlns="http://www.w3.org/2000/svg" xmlns:xlink="http://www.w3.org/1999/xlink">
    <!-- Generator: Sketch 53.2 (72643) - https://sketchapp.com -->
    <title>copy</title>
    <desc>Created with Sketch.</desc>
    <g id="Page-1" stroke="none" stroke-width="1" fill="none" fill-rule="evenodd">
        <g id="Home-" transform="translate(-1088.000000, -2248.000000)" fill="#D80000">
            <g id="copy" transform="translate(1088.000000, 2248.000000)">
                <path d="M27.2239264,9.09854068 L4.01329243,9.09854068 C1.83537832,9.09854068 0.377284183,10.5010225 0.377284183,12.6789366 L0.377284183,45.9815951 C0.377284183,48.1595092 1.83537832,49.6092368 4.01329243,49.6092368 L27.2239264,49.6092368 C29.4018405,49.6092368 30.8820932,48.1595092 30.8820932,45.9815951 L30.8820932,12.6789366 C30.8718683,10.5010225 29.3916155,9.09854068 27.2239264,9.09854068 Z M28.6083845,46.1279057 C28.6083845,46.7884561 28.0680168,47.3251534 27.4029488,47.3251534 L3.81382011,47.3251534 C3.14875216,47.3251534 2.60838446,46.7884561 2.60838446,46.1279057 L2.60838446,12.5224011 C2.60838446,11.8618506 3.14875216,11.3251534 3.81382011,11.3251534 L27.4029488,11.3251534 C28.0680168,11.3251534 28.6083845,11.8618506 28.6083845,12.5224011 L28.6083845,46.1279057 Z" id="Shape" fill-rule="nonzero"></path>
                <rect id="Rectangle" x="6.74846626" y="16.6666667" width="17.8936605" height="2" rx="1"></rect>
                <rect id="Rectangle-Copy-5" x="6.74846626" y="21.6768916" width="17.8936605" height="2" rx="1"></rect>
                <rect id="Rectangle-Copy-6" x="6.74846626" y="27.198364" width="17.8936605" height="2" rx="1"></rect>
                <rect id="Rectangle-Copy-7" x="6.74846626" y="32.7198364" width="17.8936605" height="2" rx="1"></rect>
                <rect id="Rectangle-Copy-17" x="6.74846626" y="39.0593047" width="17.8936605" height="2" rx="1"></rect>
                <path d="M36.099182,0.431873999 L12.8885481,0.431873999 C10.7106339,0.431873999 9.26852515,1.76891616 9.26852515,3.94683027 C9.26852515,3.99322732 9.26460317,9.02235366 9.26852515,9.09854068 C9.32942742,10.2816066 9.53364377,9.83646202 10.2541179,9.83646202 C10.9676511,9.83646202 11.6169347,9.96675912 11.702454,8.73210634 C11.7088467,8.63981365 11.702454,4.00016825 11.702454,3.94683027 C11.702454,3.29243354 12.2341513,2.7607362 12.8885481,2.7607362 L36.099182,2.7607362 C36.7535787,2.7607362 37.2852761,3.29243354 37.2852761,3.94683027 L37.2852761,37.2494888 C37.2852761,37.9038855 36.7535787,38.4355828 36.099182,38.4355828 C35.9897105,38.4355828 30.9902371,38.4119179 30.7097368,38.4355828 C29.0252728,38.577696 29.6063395,39.1585513 29.6063395,39.8159509 C29.6063395,40.5188914 29.3169576,40.6472891 30.7097368,40.7381197 C30.8364067,40.7463805 36.0352513,40.7381197 36.099182,40.7381197 C38.2770961,40.7381197 39.6043925,39.4274029 39.6043925,37.2494888 L39.6043925,3.94683027 C39.6043925,1.76891616 38.2770961,0.431873999 36.099182,0.431873999 Z" id="Path" fill-rule="nonzero"></path>
            </g>
        </g>
    </g>
</svg>