<?xml version="1.0" encoding="UTF-8"?>
<svg width="40px" height="50px" viewBox="0 0 40 50" version="1.1" xmlns="http://www.w3.org/2000/svg" xmlns:xlink="http://www.w3.org/1999/xlink">
    <!-- Generator: Sketch 53.2 (72643) - https://sketchapp.com -->
    <title>file</title>
    <desc>Created with Sketch.</desc>
    <g id="Page-1" stroke="none" stroke-width="1" fill="none" fill-rule="evenodd">
        <g id="Desktop-HD" transform="translate(-1089.000000, -1437.000000)" fill="#D80000" fill-rule="nonzero">
            <g id="Features" transform="translate(0.000000, 1320.000000)">
                <g transform="translate(216.000000, 0.000000)" id="Group-19">
                    <g transform="translate(776.000000, 117.000000)">
                        <g id="file" transform="translate(97.000000, 0.000000)">
                            <path d="M32.5,20.8333333 L11.6666667,20.8333333 C11.2066667,20.8333333 10.8333333,21.2058333 10.8333333,21.6666667 C10.8333333,22.1275 11.2066667,22.5 11.6666667,22.5 L32.5,22.5 C32.96,22.5 33.3333333,22.1275 33.3333333,21.6666667 C33.3333333,21.2058333 32.96,20.8333333 32.5,20.8333333 Z" id="Path"></path>
                            <path d="M11.6666667,15.8333333 L20,15.8333333 C20.46,15.8333333 20.8333333,15.4608333 20.8333333,15 C20.8333333,14.5391667 20.46,14.1666667 20,14.1666667 L11.6666667,14.1666667 C11.2066667,14.1666667 10.8333333,14.5391667 10.8333333,15 C10.8333333,15.4608333 11.2066667,15.8333333 11.6666667,15.8333333 Z" id="Path"></path>
                            <path d="M32.5,27.5 L11.6666667,27.5 C11.2066667,27.5 10.8333333,27.8725 10.8333333,28.3333333 C10.8333333,28.7941667 11.2066667,29.1666667 11.6666667,29.1666667 L32.5,29.1666667 C32.96,29.1666667 33.3333333,28.7941667 33.3333333,28.3333333 C33.3333333,27.8725 32.96,27.5 32.5,27.5 Z" id="Path"></path>
                            <path d="M32.5,34.1666667 L11.6666667,34.1666667 C11.2066667,34.1666667 10.8333333,34.5391667 10.8333333,35 C10.8333333,35.4608333 11.2066667,35.8333333 11.6666667,35.8333333 L32.5,35.8333333 C32.96,35.8333333 33.3333333,35.4608333 33.3333333,35 C33.3333333,34.5391667 32.96,34.1666667 32.5,34.1666667 Z" id="Path"></path>
                            <path d="M32.5,40.8333333 L11.6666667,40.8333333 C11.2066667,40.8333333 10.8333333,41.2058333 10.8333333,41.6666667 C10.8333333,42.1275 11.2066667,42.5 11.6666667,42.5 L32.5,42.5 C32.96,42.5 33.3333333,42.1275 33.3333333,41.6666667 C33.3333333,41.2058333 32.96,40.8333333 32.5,40.8333333 Z" id="Path"></path>
                            <path d="M35.8333333,12.155 L35.8333333,0 L0,0 L0,45.8333333 L4.16666667,45.8333333 L4.16666667,50 L40,50 L40,16.3216667 L35.8333333,12.155 Z M28.3333333,7.01166667 L35.8333333,14.5116667 L37.155,15.8333333 L28.3333333,15.8333333 L28.3333333,7.01166667 Z M1.66666667,44.1666667 L1.66666667,1.66666667 L34.1666667,1.66666667 L34.1666667,10.4883333 L27.845,4.16666667 L4.16666667,4.16666667 L4.16666667,44.1666667 L1.66666667,44.1666667 Z M5.83333333,48.3333333 L5.83333333,45.8333333 L5.83333333,5.83333333 L26.6666667,5.83333333 L26.6666667,17.5 L38.3333333,17.5 L38.3333333,48.3333333 L5.83333333,48.3333333 Z" id="Shape"></path>
                        </g>
                    </g>
                </g>
            </g>
        </g>
    </g>
</svg>