<?xml version="1.0" encoding="UTF-8"?>
<svg width="96px" height="96px" viewBox="0 0 96 96" version="1.1" xmlns="http://www.w3.org/2000/svg" xmlns:xlink="http://www.w3.org/1999/xlink">
    <!-- Generator: Sketch 53.2 (72643) - https://sketchapp.com -->
    <title>Group</title>
    <desc>Created with Sketch.</desc>
    <g id="Page-1" stroke="none" stroke-width="1" fill="none" fill-rule="evenodd" stroke-linecap="round" stroke-linejoin="round">
        <g id="Dispatch-System" transform="translate(-672.000000, -1279.000000)" stroke="#D80000" stroke-width="3.6">
            <g id="Group" transform="translate(674.000000, 1281.000000)">
                <g id="trip-pins">
                    <path d="M37.1625,17.516 C37.1625,25.404 25.025,40.816 20.55,46.232 C20.1548504,46.7110982 19.5532235,46.9904784 18.9166667,46.9904784 C18.2801098,46.9904784 17.6784829,46.7110982 17.2833333,46.232 C12.8083333,40.8 0.670833333,25.404 0.670833333,17.516 C0.670833333,7.84218032 8.83977117,1.77635684e-15 18.9166667,0 C28.9935622,-1.55431223e-15 37.1625,7.84218032 37.1625,17.516 Z" id="Shape"></path>
                    <path d="M25.7625,17.516 C25.7641855,20.1744893 24.0973208,22.5721063 21.5393421,23.5905875 C18.9813633,24.6090687 16.0361652,24.047784 14.0774066,22.1685202 C12.1186479,20.2892564 11.5321834,17.4622084 12.5915437,15.0059292 C13.650904,12.54965 16.1474065,10.9480005 18.9166667,10.948 C20.7319113,10.9469387 22.4731866,11.6384539 23.7571493,12.8703079 C25.041112,14.1021619 25.7625003,15.7733648 25.7625,17.516 L25.7625,17.516 Z" id="Shape"></path>
                    <path d="M73.0833333,44 C77.922768,43.9989387 82.5643095,45.8440283 85.9863067,49.1291456 C89.4083039,52.4142629 91.3302722,56.8701427 91.3291667,61.516 C91.3291667,69.404 79.1916667,84.812 74.7166667,90.228 C74.3215171,90.7070982 73.7198902,90.9864784 73.0833333,90.9864784 C72.4467765,90.9864784 71.8451496,90.7070982 71.45,90.228 C66.975,84.812 54.8375,69.4 54.8375,61.512 C54.8374999,56.8668357 56.7599562,52.4119837 60.1818335,49.1277316 C63.6037109,45.8434796 68.2446206,43.998939 73.0833333,44 Z" id="Shape"></path>
                    <path d="M79.9291667,61.516 C79.9308522,64.1744893 78.2639875,66.5721063 75.7060087,67.5905875 C73.14803,68.6090687 70.2028319,68.047784 68.2440732,66.1685202 C66.2853146,64.2892564 65.6988501,61.4622084 66.7582104,59.0059292 C67.8175707,56.54965 70.3140732,54.9480005 73.0833333,54.948 C74.898578,54.9469387 76.6398533,55.6384539 77.923816,56.8703079 C79.2077787,58.1021619 79.929167,59.7733648 79.9291667,61.516 Z" id="Shape"></path>
                    <polyline id="Shape" points="23.0833333 92 18.9166667 92 18.9166667 88"></polyline>
                    <path d="M56.4166667,92 L60.5833333,92" id="Shape"></path>
                    <path d="M43.9166667,92 L48.0833333,92" id="Shape"></path>
                    <path d="M31.4166667,92 L35.5833333,92" id="Shape"></path>
                    <path d="M18.9166667,52 L18.9166667,56" id="Shape"></path>
                    <path d="M18.9166667,64 L18.9166667,68" id="Shape"></path>
                    <path d="M18.9166667,76 L18.9166667,80" id="Shape"></path>
                </g>
            </g>
        </g>
    </g>
</svg>