<?xml version="1.0" encoding="UTF-8"?>
<svg width="40px" height="53px" viewBox="0 0 40 53" version="1.1" xmlns="http://www.w3.org/2000/svg" xmlns:xlink="http://www.w3.org/1999/xlink">
    <!-- Generator: Sketch 53.2 (72643) - https://sketchapp.com -->
    <title>click</title>
    <desc>Created with Sketch.</desc>
    <g id="Page-1" stroke="none" stroke-width="1" fill="none" fill-rule="evenodd">
        <g id="Home-" transform="translate(-556.000000, -2131.000000)" fill="#D80000" fill-rule="nonzero">
            <g id="Features" transform="translate(0.000000, 2131.000000)">
                <g transform="translate(235.000000, 0.000000)" id="Group-17">
                    <g transform="translate(271.000000, 0.000000)">
                        <g id="click" transform="translate(50.000000, 0.000000)">
                            <path d="M39.6689437,38.153673 L17.065507,16.5323672 C16.740017,16.2253779 16.256338,16.1302102 15.8335824,16.2988567 C15.4109328,16.4653748 15.1351351,16.8610453 15.1351351,17.2977626 L15.1351351,47.2346357 C15.1351351,47.647637 15.3814777,48.0238483 15.770328,48.2054676 C16.1590724,48.3870868 16.6225142,48.341682 16.9592353,48.086584 L22.6982216,43.7947143 L27.7071863,52.4172708 C27.9151735,52.7718945 28.2993619,52.972973 28.6972183,52.972973 C28.8667444,52.972973 29.0408264,52.9361829 29.2035714,52.8583461 L35.984613,49.6151451 C36.2604107,49.4832888 36.468292,49.2497783 36.5587765,48.9686333 C36.6491551,48.68536 36.6152499,48.3804991 36.468398,48.1232727 L31.748793,40.0001692 L38.8688867,40.0001692 C39.3254415,40.0001692 39.73686,39.7363551 39.9131671,39.3320698 C40.0893682,38.9276832 39.9922086,38.4628919 39.6689437,38.153673 Z M29.8296523,37.8401974 C29.4295708,37.8401974 29.0588386,38.0434042 28.8554073,38.3742107 C28.6519761,38.7028888 28.645195,39.1115321 28.8396202,39.4465953 L33.9186204,48.1881367 L29.1605542,50.4648638 L24.0363118,41.6389992 C23.8757918,41.3622122 23.5955441,41.1654918 23.2722791,41.1027562 C23.1954626,41.087655 23.1208712,41.0811686 23.0462797,41.0811686 C22.7976062,41.0811686 22.5490386,41.1611338 22.3500574,41.310321 L17.3953411,45.0161849 L17.3953411,19.9074245 L36.1426961,37.8401974 L29.8296523,37.8401974 Z" id="Shape"></path>
                            <path d="M16.2162162,0 C15.6194781,0 15.1351351,0.484354324 15.1351351,1.08110642 L15.1351351,7.56754223 C15.1351351,8.16429432 15.6194781,8.64864865 16.2162162,8.64864865 C16.8129543,8.64864865 17.2972973,8.16429432 17.2972973,7.56754223 L17.2972973,1.08110642 C17.2971959,0.484354324 16.8129543,0 16.2162162,0 Z" id="Path"></path>
                            <path d="M7.56754223,15.1351351 L1.08110642,15.1351351 C0.484354324,15.1351351 0,15.6194781 0,16.2162162 C0,16.8129543 0.484354324,17.2972973 1.08110642,17.2972973 L7.56754223,17.2972973 C8.16429432,17.2972973 8.64864865,16.8129543 8.64864865,16.2162162 C8.64864865,15.6194781 8.16429432,15.1351351 7.56754223,15.1351351 Z" id="Path"></path>
                            <path d="M32.4324071,15.1351351 L25.9459713,15.1351351 C25.3492192,15.1351351 24.8648649,15.6194781 24.8648649,16.2162162 C24.8648649,16.8129543 25.3492192,17.2972973 25.9459713,17.2972973 L32.4324071,17.2972973 C33.0291592,17.2972973 33.5135135,16.8129543 33.5135135,16.2162162 C33.5135135,15.6194781 33.0291592,15.1351351 32.4324071,15.1351351 Z" id="Path"></path>
                            <path d="M11.5879839,9.03751692 L7.17849397,4.62835097 C6.77328337,4.22298211 6.11452394,4.22298211 5.70931335,4.62835097 C5.30410276,5.03371984 5.30410276,5.69273657 5.70931335,6.09810544 L10.1188033,10.5072714 C10.3224801,10.7088839 10.5883995,10.8108108 10.8544164,10.8108108 C11.1204333,10.8108108 11.3863527,10.7110277 11.5879839,10.5072714 C11.9931945,10.1019025 11.9931945,9.44288578 11.5879839,9.03751692 Z" id="Path"></path>
                            <path d="M11.5879839,21.9256483 C11.1827734,21.5202794 10.5240139,21.5202794 10.1188033,21.9256483 L5.70931335,26.3348142 C5.30410276,26.7401831 5.30410276,27.3991998 5.70931335,27.8045687 C5.91299012,28.0061812 6.17890957,28.1081081 6.44492643,28.1081081 C6.71094328,28.1081081 6.97686273,28.0062787 7.17849397,27.8045687 L11.5879839,23.3954027 C11.9931945,22.9900339 11.9931945,22.3310171 11.5879839,21.9256483 Z" id="Path"></path>
                            <path d="M28.8853771,4.62981344 C28.4802942,4.22249462 27.8217424,4.22249462 27.4146147,4.62981344 L23.0065148,9.0379364 C22.601432,9.44320937 22.601432,10.1020702 23.0065148,10.5073432 C23.2101274,10.708908 23.475963,10.8108108 23.741896,10.8108108 C24.007829,10.8108108 24.2736646,10.7110513 24.4772772,10.5073432 L28.8853771,6.09922023 C29.2904599,5.69394726 29.2904599,5.03722968 28.8853771,4.62981344 Z" id="Path"></path>
                        </g>
                    </g>
                </g>
            </g>
        </g>
    </g>
</svg>