<?xml version="1.0" encoding="UTF-8"?>
<svg width="104px" height="104px" viewBox="0 0 104 104" version="1.1" xmlns="http://www.w3.org/2000/svg" xmlns:xlink="http://www.w3.org/1999/xlink">
    <!-- Generator: Sketch 53.2 (72643) - https://sketchapp.com -->
    <title>taxi-driver</title>
    <desc>Created with Sketch.</desc>
    <g id="Page-1" stroke="none" stroke-width="1" fill="none" fill-rule="evenodd" stroke-linecap="round" stroke-linejoin="round">
        <g id="Dispatch-System" transform="translate(-253.000000, -1275.000000)" stroke="#D80000" stroke-width="3.6">
            <g id="Group" transform="translate(255.000000, 1277.000000)">
                <g id="taxi-driver">
                    <circle id="Oval" cx="84.502924" cy="12.2624269" r="11.8603801"></circle>
                    <path d="M99.5979532,43.5307018 C99.597953,35.1939475 92.8396782,28.435673 84.502924,28.435673 C76.1661697,28.435673 69.407895,35.1939475 69.4078947,43.5307018 L69.4078947,56.4692982 L76.2351608,56.4692982 L78.0336257,78.0336257 L90.9722222,78.0336257 L92.7706871,56.4692982 L99.5979532,56.4692982 L99.5979532,43.5307018 Z" id="Shape"></path>
                    <path d="M73.7207602,86.6593567 L4.71491228,86.6593567 C2.33298244,86.6593567 0.402046784,84.7284211 0.402046784,82.3464912 L0.402046784,69.4078947 C0.402046784,64.6440351 4.26391809,60.7821637 9.02777778,60.7821637 L62.9385965,60.7821637" id="Shape"></path>
                    <path d="M11.1842105,60.7821637 L12.6807749,47.1276316 C13.0531238,42.656979 16.7901841,39.2180585 21.2763158,39.2178363 L54.3128655,39.2178363" id="Shape"></path>
                    <circle id="Oval" cx="13.3406433" cy="73.7207602" r="4.3128655"></circle>
                    <path d="M21.9663743,86.6593567 L21.9663743,93.128655 C21.9663743,96.7015497 19.0699708,99.5979532 15.497076,99.5979532 C11.9241813,99.5979532 9.02777778,96.7015497 9.02777778,93.128655 L9.02777778,86.6593567" id="Shape"></path>
                    <path d="M73.7207602,86.6593567 L73.7207602,93.128655 C73.7207602,96.7015497 70.8243568,99.5979532 67.251462,99.5979532 C63.6785672,99.5979532 60.7821637,96.7015497 60.7821637,93.128655 L60.7821637,86.6593567" id="Shape"></path>
                    <path d="M0.402046784,52.1564327 L11.1842105,60.7821637" id="Shape"></path>
                    <path d="M69.4078947,78.0336257 C67.0259649,78.0336257 65.0950292,76.1026901 65.0950292,73.7207602 C65.0950292,71.3388304 67.0259649,69.4078947 69.4078947,69.4078947" id="Shape"></path>
                    <path d="M26.2792398,30.5921053 L26.2792398,24.122807" id="Shape"></path>
                    <path d="M26.2792398,15.497076 L26.2792398,11.1842105 C26.2792398,9.99324561 27.2447076,9.02777778 28.4356725,9.02777778 L32.748538,9.02777778" id="Shape"></path>
                    <path d="M42.1592105,9.02777778 L50,9.02777778" id="Shape"></path>
                    <path d="M58.625731,9.02777778 L65.0950292,9.02777778" id="Shape"></path>
                </g>
            </g>
        </g>
    </g>
</svg>