<?xml version="1.0" encoding="UTF-8"?>
<svg width="47px" height="50px" viewBox="0 0 47 50" version="1.1" xmlns="http://www.w3.org/2000/svg" xmlns:xlink="http://www.w3.org/1999/xlink">
    <!-- Generator: Sketch 53.2 (72643) - https://sketchapp.com -->
    <title>headphones</title>
    <desc>Created with Sketch.</desc>
    <g id="Page-1" stroke="none" stroke-width="1" fill="none" fill-rule="evenodd">
        <g id="Home-" transform="translate(-333.000000, -2245.000000)" fill="#D80000" fill-rule="nonzero">
            <g id="Features" transform="translate(0.000000, 2131.000000)">
                <g transform="translate(235.000000, 0.000000)" id="Group-13">
                    <g transform="translate(13.000000, 114.000000)">
                        <g id="headphones" transform="translate(85.000000, 0.000000)">
                            <path d="M40.4307346,19.012605 L40.4307346,17.0903361 C40.4307346,12.4894958 38.8101595,8.21428571 35.8722137,5.04201681 C32.8610806,1.78571429 28.7207727,0 24.2040731,0 L22.6253193,0 C18.1086197,0 13.9683117,1.78571429 10.9571786,5.04201681 C8.01923285,8.21428571 6.39865776,12.4894958 6.39865776,17.0903361 L6.39865776,19.012605 C2.83339257,19.2542017 0,22.237395 0,25.8823529 L0,28.8865546 C0,32.6785714 3.073865,35.7668067 6.84823666,35.7668067 L10.7062509,35.7668067 C11.3963022,35.7668067 11.9608897,35.1995798 11.9608897,34.5063025 L11.9608897,20.2521008 C11.9608897,19.5588235 11.3963022,18.9915966 10.7062509,18.9915966 L8.90793531,18.9915966 L8.90793531,17.0903361 C8.90793531,8.78151261 14.8047376,2.5210084 22.6148639,2.5210084 L24.1936177,2.5210084 C32.0141994,2.5210084 37.9005464,8.78151261 37.9005464,17.0903361 L37.9005464,18.9915966 L36.1022308,18.9915966 C35.4121795,18.9915966 34.847592,19.5588235 34.847592,20.2521008 L34.847592,34.4957983 C34.847592,35.1890756 35.4121795,35.7563025 36.1022308,35.7563025 L37.8587251,35.7563025 C37.3464142,42.3319328 32.84017,43.855042 30.7491053,44.2016807 C30.1740626,42.4264706 28.5116662,41.144958 26.5565208,41.144958 L23.4199238,41.144958 C20.9942889,41.144958 19.0182328,43.1302521 19.0182328,45.5672269 C19.0182328,48.0042017 20.9942889,50 23.4199238,50 L26.5669761,50 C28.5953088,50 30.2995265,48.6134454 30.8118373,46.7436975 C31.836459,46.5966387 33.457034,46.2289916 35.0671538,45.2836134 C37.3359589,43.9495798 40.022977,41.2289916 40.378458,35.7457983 C43.9646338,35.5252101 46.8084817,32.5315126 46.8084817,28.8760504 L46.8084817,25.8718487 C46.818937,22.237395 43.9959998,19.2436975 40.4307346,19.012605 Z M9.47252276,33.2352941 L6.8691473,33.2352941 C4.4748783,33.2352941 2.5301882,31.2815126 2.5301882,28.8760504 L2.5301882,25.8718487 C2.5301882,23.4663866 4.4748783,21.512605 6.8691473,21.512605 L9.47252276,21.512605 L9.47252276,33.2352941 Z M26.5669761,47.4789916 L23.4199238,47.4789916 C22.3743915,47.4789916 21.5275103,46.6281513 21.5275103,45.5777311 C21.5275103,44.5273109 22.3743915,43.6764706 23.4199238,43.6764706 L26.5669761,43.6764706 C27.6125084,43.6764706 28.4593896,44.5273109 28.4593896,45.5777311 C28.4593896,46.6281513 27.6125084,47.4789916 26.5669761,47.4789916 Z M44.3096595,28.8760504 C44.3096595,31.2815126 42.3649694,33.2352941 39.9707004,33.2352941 L37.3673249,33.2352941 L37.3673249,21.512605 L39.9707004,21.512605 C42.3649694,21.512605 44.3096595,23.4663866 44.3096595,25.8718487 L44.3096595,28.8760504 Z" id="Shape"></path>
                        </g>
                    </g>
                </g>
            </g>
        </g>
    </g>
</svg>