<?xml version="1.0" encoding="UTF-8"?>
<svg width="45px" height="50px" viewBox="0 0 45 50" version="1.1" xmlns="http://www.w3.org/2000/svg" xmlns:xlink="http://www.w3.org/1999/xlink">
    <!-- Generator: Sketch 53.2 (72643) - https://sketchapp.com -->
    <title>Group 2</title>
    <desc>Created with Sketch.</desc>
    <g id="Page-1" stroke="none" stroke-width="1" fill="none" fill-rule="evenodd">
        <g id="Home-" transform="translate(-860.000000, -2131.000000)">
            <g id="Features" transform="translate(0.000000, 2131.000000)">
                <g transform="translate(235.000000, 0.000000)" id="Group-8">
                    <g transform="translate(558.000000, 0.000000)">
                        <g id="Group-2" transform="translate(67.000000, 0.000000)">
                            <g id="approve-invoice" fill="#D80000" fill-rule="nonzero">
                                <path d="M41.8408537,0 L12.6494919,0 C10.9789634,0 9.61981707,1.35914634 9.61981707,3.0296748 L9.61981707,9.80955285 C4.08221545,11.3943089 0.0172764228,16.5023374 0.0172764228,22.5420732 C0.0172764228,28.5818089 4.08211382,33.6898374 9.61981707,35.2745935 L9.61981707,46.9395325 C9.61981707,48.610061 10.9789634,49.9692073 12.6494919,49.9692073 L36.5044715,49.9692073 C36.7875,49.9692073 37.0588415,49.8568089 37.2590447,49.6567073 L44.5579268,42.3577236 C44.7580285,42.157622 44.8704268,41.8861789 44.8704268,41.6031504 L44.8704268,3.0296748 C44.8704268,1.35914634 43.5113821,0 41.8408537,0 Z M12.6494919,2.13414634 L41.8408537,2.13414634 C42.3345528,2.13414634 42.7362805,2.53587398 42.7362805,3.0296748 L42.7362805,6.25010163 L11.7539634,6.25010163 L11.7539634,3.0296748 C11.7539634,2.53587398 12.1556911,2.13414634 12.6494919,2.13414634 Z M2.15142276,22.5419715 C2.15142276,16.4176829 7.13384146,11.4352642 13.2581301,11.4352642 C19.3824187,11.4352642 24.3648374,16.4176829 24.3648374,22.5419715 C24.3648374,28.6662602 19.3824187,33.6487805 13.2581301,33.6487805 C7.13384146,33.6487805 2.15142276,28.6662602 2.15142276,22.5419715 Z M11.7539634,46.9394309 L11.7539634,35.6969512 C12.2478659,35.7530488 12.7495935,35.7829268 13.2582317,35.7829268 C17.2353659,35.7829268 20.8082317,34.0200203 23.2373984,31.2349593 L29.7756098,31.2349593 C30.364939,31.2349593 30.8426829,30.7572154 30.8426829,30.1678862 C30.8426829,29.5785569 30.364939,29.100813 29.7756098,29.100813 L24.7572154,29.100813 C25.6853659,27.479878 26.2799797,25.6450203 26.4486789,23.6900407 L29.7755081,23.6900407 C30.3648374,23.6900407 30.8425813,23.2122967 30.8425813,22.6229675 C30.8425813,22.0336382 30.3648374,21.5558943 29.7755081,21.5558943 L26.4621951,21.5558943 C26.3178862,19.6052846 25.7487805,17.7711382 24.8477642,16.1452236 L29.7754065,16.1452236 C30.3647358,16.1452236 30.8424797,15.6674797 30.8424797,15.0781504 C30.8424797,14.4888211 30.3647358,14.0110772 29.7754065,14.0110772 L23.3756098,14.0110772 C20.9449187,11.1327236 17.3115854,9.30101626 13.2579268,9.30101626 C12.7492886,9.30101626 12.247561,9.33089431 11.7536585,9.38699187 L11.7536585,8.38424797 L42.7359756,8.38424797 L42.7359756,40.535874 L38.4667683,40.535874 C36.7961382,40.535874 35.4371951,41.8950203 35.4371951,43.5654472 L35.4371951,47.8348577 L12.6494919,47.8348577 C12.1556911,47.8348577 11.7539634,47.4332317 11.7539634,46.9394309 Z M37.5716463,46.3257114 L37.5716463,43.5655488 C37.5716463,43.071748 37.973374,42.670122 38.4670732,42.670122 L41.2272358,42.670122 L37.5716463,46.3257114 Z" id="Shape"></path>
                                <path d="M33.9680894,16.1452236 L37.5117886,16.1452236 C38.1011179,16.1452236 38.5788618,15.6674797 38.5788618,15.0781504 C38.5788618,14.4888211 38.1011179,14.0110772 37.5117886,14.0110772 L33.9680894,14.0110772 C33.3787602,14.0110772 32.9010163,14.4888211 32.9010163,15.0781504 C32.9010163,15.6674797 33.3787602,16.1452236 33.9680894,16.1452236 Z" id="Path"></path>
                                <path d="M33.9680894,23.6900407 L37.5117886,23.6900407 C38.1011179,23.6900407 38.5788618,23.2122967 38.5788618,22.6229675 C38.5788618,22.0336382 38.1011179,21.5558943 37.5117886,21.5558943 L33.9680894,21.5558943 C33.3787602,21.5558943 32.9010163,22.0336382 32.9010163,22.6229675 C32.9010163,23.2122967 33.3787602,23.6900407 33.9680894,23.6900407 Z" id="Path"></path>
                                <path d="M33.9680894,31.2349593 L37.5117886,31.2349593 C38.1011179,31.2349593 38.5788618,30.7572154 38.5788618,30.1678862 C38.5788618,29.5785569 38.1011179,29.100813 37.5117886,29.100813 L33.9680894,29.100813 C33.3787602,29.100813 32.9010163,29.5785569 32.9010163,30.1678862 C32.9010163,30.7572154 33.3787602,31.2349593 33.9680894,31.2349593 Z" id="Path"></path>
                                <path d="M37.5117886,38.7797764 C38.1011179,38.7797764 38.5788618,38.3020325 38.5788618,37.7127033 C38.5788618,37.123374 38.1011179,36.6456301 37.5117886,36.6456301 L27.5295732,36.6456301 C26.9402439,36.6456301 26.4625,37.123374 26.4625,37.7127033 C26.4625,38.3020325 26.9402439,38.7797764 27.5295732,38.7797764 L37.5117886,38.7797764 Z" id="Path"></path>
                            </g>
                            <polyline id="Path-2" stroke="#D80000" stroke-width="2" stroke-linecap="round" points="6 22.4203381 10.7217874 27 19 17"></polyline>
                        </g>
                    </g>
                </g>
            </g>
        </g>
    </g>
</svg>