<?xml version="1.0" encoding="UTF-8"?>
<svg width="40px" height="40px" viewBox="0 0 40 40" version="1.1" xmlns="http://www.w3.org/2000/svg" xmlns:xlink="http://www.w3.org/1999/xlink">
    <!-- Generator: Sketch 53.2 (72643) - https://sketchapp.com -->
    <title>magnifying-glass</title>
    <desc>Created with Sketch.</desc>
    <g id="Page-1" stroke="none" stroke-width="1" fill="none" fill-rule="evenodd">
        <g id="Desktop-HD" transform="translate(-274.000000, -1630.000000)" fill="#D80000" fill-rule="nonzero">
            <g id="Features" transform="translate(0.000000, 1320.000000)">
                <g transform="translate(216.000000, 0.000000)" id="Group">
                    <g transform="translate(0.000000, 310.000000)">
                        <g id="magnifying-glass" transform="translate(58.000000, 0.000000)">
                            <path d="M39.6540253,37.9600887 L29.9312486,28.2394678 C32.5393657,25.2416851 34.1184298,21.3303769 34.1184298,17.0554324 C34.1184298,7.64523282 26.4626303,0 17.0592149,0 C7.64692837,0 0,7.654102 0,17.0554324 C0,26.4567627 7.65579951,34.1108647 17.0592149,34.1108647 C21.3351076,34.1108647 25.2472832,32.5321508 28.2457308,29.924612 L37.9685074,39.6452328 C38.1991572,39.8758315 38.5096474,40 38.8112664,40 C39.1128853,40 39.4233755,39.8847007 39.6540253,39.6452328 C40.1153249,39.1840355 40.1153249,38.421286 39.6540253,37.9600887 Z M2.38633843,17.0554324 C2.38633843,8.96674058 8.96872921,2.39467849 17.0503438,2.39467849 C25.1408295,2.39467849 31.7143491,8.97560976 31.7143491,17.0554324 C31.7143491,25.135255 25.1408295,31.7250554 17.0503438,31.7250554 C8.96872921,31.7250554 2.38633843,25.1441242 2.38633843,17.0554324 Z" id="Shape"></path>
                        </g>
                    </g>
                </g>
            </g>
        </g>
    </g>
</svg>