<?xml version="1.0" encoding="UTF-8"?>
<svg width="40px" height="41px" viewBox="0 0 40 41" version="1.1" xmlns="http://www.w3.org/2000/svg" xmlns:xlink="http://www.w3.org/1999/xlink">
    <!-- Generator: Sketch 53.2 (72643) - https://sketchapp.com -->
    <title>Group 3</title>
    <desc>Created with Sketch.</desc>
    <defs>
        <polygon id="path-1" points="0 0 40 0 40 41 0 41"></polygon>
    </defs>
    <g id="Page-1" stroke="none" stroke-width="1" fill="none" fill-rule="evenodd">
        <g id="Home-" transform="translate(-1149.000000, -2440.000000)">
            <g id="Features" transform="translate(0.000000, 2131.000000)">
                <g transform="translate(235.000000, 0.000000)" id="Group">
                    <g transform="translate(857.000000, 309.000000)">
                        <g id="Group-3" transform="translate(57.000000, 0.000000)">
                            <mask id="mask-2" fill="white">
                                <use xlink:href="#path-1"></use>
                            </mask>
                            <g id="Clip-2"></g>
                            <path d="M16.7277404,2.55373381 C24.4483287,2.55373381 30.7277404,8.8339691 30.7277404,16.5537338 C30.7277404,24.2734985 24.4483287,30.5537338 16.7277404,30.5537338 C9.00797571,30.5537338 2.72774042,24.2734985 2.72774042,16.5537338 C2.72774042,8.8339691 9.00797571,2.55373381 16.7277404,2.55373381 M39.3923741,37.3445037 L29.5310075,27.1956255 C32.0663511,24.2130745 33.4554808,20.460415 33.4554808,16.5537338 C33.4554808,7.42614893 25.951271,0 16.7277404,0 C7.50420981,0 0,7.42614893 0,16.5537338 C0,25.6813187 7.50420981,33.1074676 16.7277404,33.1074676 C20.1903827,33.1074676 23.4901113,32.0739388 26.3112811,30.1119615 L36.2468316,40.3378506 C36.6621159,40.7646491 37.220677,41 37.8192392,41 C38.3858005,41 38.9232701,40.7862409 39.3320088,40.397588 C40.1982148,39.5720605 40.2258519,38.2031387 39.3923741,37.3445037" id="Fill-1" fill="#D80000" mask="url(#mask-2)"></path>
                        </g>
                    </g>
                </g>
            </g>
        </g>
    </g>
</svg>