<?xml version="1.0" encoding="UTF-8"?>
<svg width="38px" height="53px" viewBox="0 0 38 53" version="1.1" xmlns="http://www.w3.org/2000/svg" xmlns:xlink="http://www.w3.org/1999/xlink">
    <!-- Generator: Sketch 53.2 (72643) - https://sketchapp.com -->
    <title>tap</title>
    <desc>Created with Sketch.</desc>
    <g id="Page-1" stroke="none" stroke-width="1" fill="none" fill-rule="evenodd">
        <g id="Home-" transform="translate(-284.000000, -2430.000000)" fill-rule="nonzero">
            <g id="Features" transform="translate(0.000000, 2131.000000)">
                <g transform="translate(235.000000, 0.000000)" id="tap">
                    <g transform="translate(49.000000, 299.000000)">
                        <path d="M0.184027778,24.0136072 C-0.22478829,25.1040524 0.0944352554,26.3341328 0.982692216,27.0875975 C2.66557776,28.7716937 6.12659141,34.8510675 7.83974471,39.1349598 C9.00888617,42.0568043 11.5759929,44.9245706 13.5236203,46.8165053 C14.3618345,47.6414016 14.8323967,48.7689754 14.8299754,49.9453811 L14.8299754,50.2678333 C14.8299754,51.7287554 16.0140488,52.9128289 17.474971,52.9128289 L31.5805388,52.9128289 C33.041461,52.9128289 34.2255346,51.7287554 34.2255346,50.2678333 L34.2255346,47.5594771 C34.2174632,47.3354959 34.3026164,47.1179718 34.4608157,46.9593689 C37.714798,43.9838496 37.7519264,39.0167139 37.7519264,38.8068577 L37.7519264,24.8502071 C37.7846156,22.9623081 36.3612254,21.36619 34.4822049,21.1837765 C33.7759579,21.137366 33.0721323,21.3048474 32.4623386,21.6640244 L32.4623386,20.2930982 C32.4696028,19.0226608 31.7891843,17.8478694 30.6834034,17.2219328 C29.578026,16.5959963 28.2204176,16.6169819 27.1348151,17.2772219 C27.0218156,16.087902 26.3074973,15.0394279 25.2424769,14.4990482 C24.1770529,13.9586684 22.9094405,14.0010432 21.8827592,14.6120477 L21.8827592,13.1519325 C24.070914,11.9101486 25.4188368,9.58478014 25.4095547,7.06892666 C25.4095547,3.17367203 22.2516219,0.0161427875 18.3563672,0.0161427875 C14.4611126,0.0161427875 11.3035834,3.17367203 11.3035834,7.06892666 C11.2943012,9.58478014 12.6422241,11.9101486 14.8299754,13.1519325 L14.8299754,27.3458821 C14.8549966,28.3866883 14.7133436,29.424266 14.4102629,30.4202759 C14.3158275,30.7144783 14.0748964,30.938863 13.7746406,31.0127163 C13.4921418,31.0841481 13.1926931,31.005452 12.9812226,30.8044742 C12.2927327,30.1478664 11.6809211,29.4149839 11.1582983,28.6199515 C9.62836557,26.3313079 5.77871439,22.0562941 3.36899976,22.0562941 C2.01542697,22.0280443 0.770414509,22.7932124 0.184027778,24.0136072 Z M13.0667793,7.06892666 C13.0667793,4.14748566 15.4349263,1.77933873 18.3563672,1.77933873 C21.2778082,1.77933873 23.6459552,4.14748566 23.6459552,7.06892666 C23.6544301,8.5774702 23.0119472,10.0161961 21.8827592,11.0170489 L21.8827592,7.06892666 C21.8827592,5.12129929 20.3039946,3.54253467 18.3563672,3.54253467 C16.40874,3.54253467 14.8299754,5.12129929 14.8299754,7.06892666 L14.8299754,11.0170489 C13.701191,10.0161961 13.0583044,8.5774702 13.0667793,7.06892666 Z M9.68849753,29.5986081 C10.2861842,30.5050256 10.9851669,31.3404148 11.7717242,32.0890366 C12.4202607,32.7024625 13.3375746,32.9417793 14.2032316,32.7230446 C15.0854349,32.5030991 15.7936998,31.8468948 16.0810414,30.9844664 C16.4458684,29.80685 16.6189998,28.5783839 16.5931713,27.3458821 L16.5931713,7.06892666 C16.5931713,6.09511303 17.3825536,5.30573072 18.3563672,5.30573072 C19.3301809,5.30573072 20.1195633,6.09511303 20.1195633,7.06892666 L20.1195633,25.5826861 C20.1195633,26.0697948 20.5142544,26.4644859 21.001363,26.4644859 C21.488068,26.4644859 21.8827592,26.0697948 21.8827592,25.5826861 L21.8827592,17.6485061 C21.8827592,16.6746924 22.6725451,15.88531 23.6459552,15.88531 C24.6197688,15.88531 25.4095547,16.6746924 25.4095547,17.6485061 L25.4095547,25.5826861 C25.4095547,26.0697948 25.8042459,26.4644859 26.2909508,26.4644859 C26.7780595,26.4644859 27.1727507,26.0697948 27.1727507,25.5826861 L27.1727507,20.2930982 C27.1727507,19.3192846 27.962133,18.5299023 28.9359466,18.5299023 C29.9097603,18.5299023 30.6991426,19.3192846 30.6991426,20.2930982 L30.6991426,26.4644859 C30.6991426,26.951191 31.0938338,27.3458821 31.5805388,27.3458821 C32.0676474,27.3458821 32.4623386,26.951191 32.4623386,26.4644859 L32.4623386,24.7012899 C32.4611279,24.2335526 32.647577,23.7847831 32.9797149,23.4554703 C33.3433312,23.0950826 33.8441612,22.9082298 34.3550804,22.9425332 C35.3075049,23.0668326 36.0121375,23.8901148 35.9887305,24.8502071 L35.9887305,38.8068577 C35.9887305,38.8500395 35.9439342,43.2150493 33.2698815,45.6590673 C32.7472588,46.151826 32.4542671,46.841123 32.4623386,47.5594771 L32.4623386,50.2678333 C32.4623386,50.7549418 32.0676474,51.149633 31.5805388,51.149633 L17.474971,51.149633 C16.9878625,51.149633 16.5931713,50.7549418 16.5931713,50.2678333 L16.5931713,49.9453811 C16.594382,48.2927632 15.9305098,46.7091557 14.7516828,45.5513143 C13.2580714,44.1012884 10.5868436,41.25249 9.4778341,38.4791591 C7.66338478,33.9458607 4.07363248,27.6852841 2.22931896,25.8409707 C1.80960648,25.4216618 1.66916423,25.0334278 1.81202785,24.6879722 C2.13165504,24.1342744 2.72974537,23.8005224 3.36899976,23.8194902 C4.56719813,23.8194902 7.81593418,26.7897631 9.68849753,29.5986081 L9.68849753,29.5986081 Z" id="Shape" fill="#D80000"></path>
                        <path d="M11.3035834,14.5971156 C11.6554961,14.5971156 11.9735091,14.3884701 12.1131442,14.0656143 C12.2527793,13.7427586 12.187401,13.3678423 11.9464699,13.1115756 C8.89185091,9.88301807 8.72598385,4.88319323 11.5602537,1.45930799 C11.7697064,1.21756972 11.8318562,0.881396199 11.7228923,0.580736807 C11.6135249,0.280077415 11.3499939,0.0621496803 11.0339988,0.0112999513 C10.7180038,-0.0395497778 10.3995873,0.0847495828 10.2014346,0.336173524 C6.80176358,4.44451295 6.99870558,10.4431728 10.6611004,14.3194596 C10.8277748,14.4966267 11.0602309,14.5971156 11.3035834,14.5971156 Z" id="Path" fill="#D80606"></path>
                        <path d="M26.5847496,12.2616579 C26.792588,12.3682003 27.0347298,12.3879751 27.2570967,12.3161398 C27.4798672,12.2443043 27.6647022,12.0873158 27.7712446,11.8790738 C29.6986934,8.1258757 29.2031097,3.58490957 26.5113,0.336173524 C26.3135508,0.0847495828 25.9947308,-0.0395497778 25.6787357,0.0112999513 C25.3631442,0.0621496803 25.0996131,0.280077415 24.9902458,0.580736807 C24.8808784,0.881396199 24.9430282,1.21756972 25.1528844,1.45930799 C27.3959247,4.16564627 27.8087765,7.94870858 26.2029727,11.075163 C25.9806058,11.5081932 26.1517193,12.0392909 26.5847496,12.2616579 Z" id="Path" fill="#D80606"></path>
                    </g>
                </g>
            </g>
        </g>
    </g>
</svg>