<?xml version="1.0" encoding="UTF-8"?>
<svg width="60px" height="40px" viewBox="0 0 60 40" version="1.1" xmlns="http://www.w3.org/2000/svg"
	 xmlns:xlink="http://www.w3.org/1999/xlink">
	<title>arrow (3) copy</title>
	<g id="Page-1" stroke="none" stroke-width="1" fill="none" fill-rule="evenodd">
		<g id="Customer" transform="translate(-1192.000000, -3478.000000)" fill="#000000" fill-rule="nonzero">
			<g id="arrow-(3)-copy" transform="translate(1192.000000, 3478.000000)">
				<path d="M59.6337454,19.1162449 L40.8837591,0.366240324 C40.3954392,-0.122080108 39.6044241,-0.122080108 39.1162213,0.366240324 C38.6279014,0.854560756 38.6279014,1.64557657 39.1162213,2.13377982 L55.7324592,18.7500339 L1.25003815,18.7500339 C0.559101153,18.7500339 0,19.3091356 0,20.0000732 C0,20.6910109 0.559101153,21.2501126 1.25003815,21.2501126 L55.7324592,21.2501126 L39.1162213,37.8662495 C38.6279014,38.3545699 38.6279014,39.1455857 39.1162213,39.633789 C39.3603227,39.8778906 39.6802444,40 40.0000488,40 C40.3198533,40 40.6396577,39.8778906 40.8838763,39.633789 L59.6338626,20.8837844 C60.1220653,20.3955812 60.1220653,19.6045653 59.6337454,19.1162449 Z"
					  id="Path"></path>
			</g>
		</g>
	</g>
</svg>
