<?xml version="1.0" encoding="UTF-8"?>
<svg width="48px" height="48px" viewBox="0 0 48 48" version="1.1" xmlns="http://www.w3.org/2000/svg"
	 xmlns:xlink="http://www.w3.org/1999/xlink">
	<title>bid</title>
	<g id="Page-1" stroke="none" stroke-width="1" fill="none" fill-rule="evenodd">
		<g id="Driver-App" transform="translate(-928.000000, -1082.000000)" fill="#D80000" fill-rule="nonzero">
			<g id="bid" transform="translate(928.000000, 1082.000000)">
				<path d="M47.9966283,26.9496563 C47.9972813,26.7005625 47.8988438,26.4614063 47.7229688,26.2851563 C47.5470938,26.1088125 47.3082188,26.0097188 47.059125,26.0097188 L40.0369687,26.0100938 L40.0369687,20.9109375 C44.494875,19.648875 47.7704063,15.5430938 47.7704063,10.6865625 C47.7704063,4.82840625 43.0044375,0.0624375 37.1462813,0.0624375 C31.288125,0.0624375 26.5221563,4.82840625 26.5221563,10.6865625 C26.5221563,15.5430938 29.7977813,19.648875 34.2556875,20.9109375 L34.2556875,26.0104688 L30.7224375,26.0106563 C30.5751562,26.0106563 30.4300312,26.0453438 30.2986875,26.1119063 L24.9681563,28.8133125 L24.9681563,28.4605313 C24.9681563,27.94275 24.5484375,27.5230313 24.0306563,27.5230313 L17.9120625,27.5230313 L1.0355625,26.5298438 C0.7783125,26.5149375 0.5251875,26.6064375 0.3373125,26.783625 C0.1494375,26.9608125 0.0429375,27.2074688 0.0429375,27.46575 L0.0429375,33.3465938 C0.0429375,33.864375 0.46265625,34.2840938 0.9804375,34.2840938 C1.49821875,34.2840938 1.9179375,33.864375 1.9179375,33.3465938 L1.9179375,28.4600625 L16.9465313,29.3444063 L16.9465313,44.3265938 L1.91803125,45.9523125 L1.91803125,41.6552813 C1.91803125,41.1375 1.4983125,40.7177813 0.98053125,40.7177813 C0.46275,40.7177813 0.0429375,41.1375 0.0429375,41.6552813 L0.0429375,46.9967813 C0.0429375,47.2629375 0.1561875,47.516625 0.35428125,47.694375 C0.52715625,47.849625 0.7505625,47.9342813 0.98053125,47.9342813 C1.014,47.9342813 1.04775,47.9325 1.08140625,47.9288438 L17.9346563,46.1057813 L24.0306563,46.1057813 C24.4392188,46.1057813 24.7858125,45.8440313 24.9141563,45.4793438 L29.0940938,47.736 C29.230125,47.8095 29.3822813,47.848125 29.536875,47.8485938 L32.7525,47.8573125 L32.7526875,47.8573125 L32.7553125,47.8573125 C32.7567188,47.8573125 32.7580313,47.857125 32.7594375,47.857125 L36.5465625,47.8673438 L36.5541563,47.8673438 C38.0862188,47.86725 39.334875,46.6229063 39.339,45.0900938 L39.3394688,44.9333438 C39.3403125,44.6187188 39.28875,44.3121563 39.1899375,44.0229375 L39.1907813,44.0229375 L39.19875,44.0229375 C39.9604688,44.0229375 40.6772813,43.72725 41.2176563,43.1897813 C41.7599063,42.6504375 42.059625,41.9322188 42.0616875,41.1675 C42.0629063,40.7299688 41.96625,40.3065938 41.7829688,39.9220313 C42.7951875,39.4847813 43.5064688,38.4825938 43.5096563,37.3167187 C43.5107813,36.9014063 43.4235,36.4990313 43.2578438,36.1303125 C44.3454375,35.728875 45.1240313,34.688625 45.1274063,33.4693125 C45.1288125,32.9237813 44.9783438,32.41275 44.7158438,31.977 C46.6423125,31.1151563 47.990625,29.1882187 47.9966283,26.9496563 Z M28.3970625,10.6865625 C28.3970625,5.86228125 32.3219062,1.9374375 37.1461875,1.9374375 C41.9704688,1.9374375 45.8953125,5.86228125 45.8953125,10.6865625 C45.8953125,15.1544063 42.5288438,18.8503125 38.199375,19.372125 C37.518,19.4532188 36.8225625,19.4549063 36.1412813,19.3776563 C31.7886563,18.8775938 28.3970625,15.171 28.3970625,10.6865625 L28.3970625,10.6865625 Z M36.1305937,21.2626875 C36.8053125,21.3267188 37.4871562,21.326625 38.161875,21.2625938 L38.161875,26.0101875 L36.1305937,26.0102813 L36.1305937,21.2626875 Z M18.821625,44.2306875 L18.821625,29.3980313 L23.0931563,29.3980313 L23.0931563,30.3388125 L23.0931563,30.3394688 L23.0931563,44.2306875 L18.821625,44.2306875 L18.821625,44.2306875 Z M42.2668125,32.4593438 C42.8117812,32.4608438 43.2539062,32.9115938 43.2524101,33.4641563 C43.2509062,34.007625 42.8172187,34.4324062 42.264375,34.4323125 C42.2624062,34.4323125 42.260625,34.4323125 42.2589375,34.4323125 L35.809875,34.4303438 C35.205,34.4056875 34.7578125,33.8260312 34.8850312,33.234375 C34.981875,32.7900938 35.3787187,32.4559688 35.855625,32.4559688 L42.2668125,32.4593438 Z M41.3440313,36.6021563 C41.5321875,36.793125 41.6354063,37.0450313 41.6347531,37.3114688 C41.63325,37.8560625 41.1994688,38.2815937 40.646625,38.2815937 C40.64475,38.2815937 40.642875,38.2815937 40.6412812,38.2815937 L34.8786562,38.2810312 C34.8774375,38.2810312 34.8763125,38.2808438 34.8751875,38.2808438 C34.3378125,38.272875 33.901875,37.8285 33.9033711,37.2902813 C33.904875,36.7472813 34.3476562,36.3054375 34.8944062,36.3054375 L40.649625,36.3074063 C40.9109063,36.3081563 41.1575625,36.412875 41.3440313,36.6021563 L41.3440313,36.6021563 Z M37.4640233,45.0846563 C37.4626875,45.5855625 37.0546875,45.9921563 36.5541562,45.9921563 C36.5533125,45.9921563 36.5524687,45.9921563 36.551625,45.9921563 L32.7574687,45.9819375 C32.2209375,45.9804375 31.7705625,45.52725 31.7720588,44.9908125 C31.7735625,44.4478125 32.2163437,44.0059688 32.7636562,44.0059688 L33.1363125,44.0065313 L36.5569687,44.0158125 C36.8560312,44.0165625 37.138875,44.1679688 37.307625,44.4145313 C37.4481562,44.61975 37.46475,44.8449375 37.4640233,45.0846563 L37.4640233,45.0846563 Z M39.8954063,41.8602188 C39.7082813,42.0464063 39.4621875,42.1449375 39.1958438,42.14775 L33.4472813,42.1322813 C32.9065313,42.1264688 32.4537188,41.6884688 32.4551217,41.1414375 C32.4567188,40.6011563 32.9106562,40.1558438 33.4484063,40.1558438 L39.2011875,40.1565937 C39.7429688,40.158 40.1881875,40.6247813 40.1866913,41.16225 C40.1860313,41.4261563 40.082625,41.6740313 39.8954063,41.8602188 L39.8954063,41.8602188 Z M42.454875,30.5840625 C42.4515,30.5840625 42.448125,30.5840625 42.4448437,30.5840625 L36.9899062,30.581625 L35.8584375,30.5810625 C35.8557187,30.5810625 35.8530937,30.5810625 35.8504687,30.5810625 C35.08875,30.5810625 34.3719375,30.87675 33.8315625,31.4142188 C33.3661875,31.8770625 33.0800625,32.4718125 33.0068437,33.1145625 C32.9368125,33.7190625 33.063,34.3419375 33.3668437,34.8695625 C33.190125,34.9812187 33.024,35.112375 32.8722187,35.2633125 C32.4214687,35.711625 32.1389062,36.2837813 32.0550937,36.9034688 C32.0430937,36.9909375 32.0352187,37.0793438 32.031375,37.1675625 C31.990875,37.3161563 31.8376875,37.7815313 31.4110312,38.2335 C30.7118437,38.9745 29.6211562,39.3501563 28.1693437,39.3501563 C27.6515625,39.3501563 27.2318437,39.769875 27.2318437,40.2876563 C27.2318437,40.8054375 27.6515625,41.2251563 28.1693437,41.2251563 C29.112375,41.2251563 29.9140312,41.087625 30.5940937,40.8619688 C30.5316562,41.5041563 30.6876562,42.1617188 31.0407187,42.70275 C30.935625,42.781875 30.8350312,42.8684063 30.7401562,42.9628125 C29.9575312,43.7412188 29.6912812,44.9370938 30.0688125,45.9749063 L29.777625,45.9741563 L24.96825,43.3775625 L24.96825,30.915375 L30.9466875,27.8856563 L45.9959062,27.8847188 C45.5746875,29.4384375 44.1467812,30.5840625 42.454875,30.5840625 L42.454875,30.5840625 Z"
					  id="Shape"></path>
				<path d="M36.4482188,14.371875 L42.4439063,8.3761875 C42.81,8.01009375 42.81,7.41646875 42.4439063,7.05028125 C42.0778125,6.68428125 41.4841875,6.68428125 41.118,7.05028125 L35.8523438,12.3160313 L34.281375,10.4094375 C33.952125,10.009875 33.3614063,9.952875 32.9616562,10.282125 C32.5620938,10.611375 32.5050938,11.2021875 32.8343438,11.6018438 L35.0618437,14.305125 C35.2299375,14.509125 35.4763125,14.6326875 35.7403125,14.6453437 C35.7554063,14.6460938 35.7704063,14.6464688 35.7854063,14.6464688 C36.0332813,14.6464688 36.2719687,14.5480312 36.4482187,14.371875 L36.4482188,14.371875 Z"
					  id="Path"></path>
				<path d="M21.8225625,31.909875 C21.6687188,31.540875 21.2880937,31.3039688 20.8885312,31.333875 C20.4804375,31.3643438 20.134125,31.6640625 20.0435625,32.062875 C19.8580312,32.8806563 20.8097812,33.5166563 21.4965,33.0346875 C21.850875,32.7859688 21.9891562,32.3098125 21.8225625,31.909875 Z"
					  id="Path"></path>
				<path d="M0.1550625,37.968 C0.6331875,38.6991563 1.807125,38.3815313 1.86890625,37.5165937 C1.92778125,36.6931875 0.9196875,36.1965937 0.3045,36.7532813 C-0.035625,37.0609688 -0.098625,37.5872813 0.1550625,37.968 Z"
					  id="Path"></path>
			</g>
		</g>
	</g>
</svg>
