<?xml version="1.0" encoding="UTF-8"?>
<svg width="48px" height="48px" viewBox="0 0 48 48" version="1.1" xmlns="http://www.w3.org/2000/svg"
	 xmlns:xlink="http://www.w3.org/1999/xlink">
	<title>pencil</title>
	<g id="Page-1" stroke="none" stroke-width="1" fill="none" fill-rule="evenodd">
		<g id="Passenger-App" transform="translate(-610.000000, -1083.000000)" fill="#D80000" fill-rule="nonzero">
			<g id="pencil" transform="translate(610.000000, 1083.000000)">
				<path d="M41.50425,31.9575 C41.50275,31.956 41.50275,31.9545 41.50125,31.953 C41.49975,31.9515 41.49825,31.9515 41.49675,31.95 L39.38175,29.835 C39.381,29.83425 39.381,29.8335 39.38025,29.83275 C39.3795,29.832 39.37875,29.832 39.378,29.83125 L31.42425,21.87825 L44.166,9.1365 C44.1765,9.126 44.18175,9.111 44.1915,9.099 C44.2305,9.05475 44.262,9.006 44.2905,8.95275 C44.3025,8.93175 44.31975,8.9145 44.32875,8.892 C44.3325,8.883 44.33325,8.87475 44.33625,8.86575 C44.33925,8.85675 44.346,8.85 44.349,8.84175 L46.44975,2.499 C46.4595,2.47125 46.45425,2.44275 46.46025,2.415 C46.4715,2.36475 46.47825,2.31525 46.47825,2.2635 C46.47825,2.21175 46.47075,2.16225 46.46025,2.112 C46.45425,2.08425 46.4595,2.05575 46.44975,2.028 C46.44375,2.01075 46.43025,1.99875 46.4235,1.9815 C46.404,1.9335 46.377,1.89225 46.34775,1.84875 C46.32075,1.809 46.296,1.77075 46.26225,1.7385 C46.23,1.70625 46.19325,1.6815 46.15425,1.65525 C46.11075,1.626 46.06875,1.599 46.02,1.57875 C46.0035,1.57125 45.99075,1.55775 45.97275,1.55175 C45.945,1.542 45.91725,1.54725 45.88875,1.54125 C45.8385,1.53 45.78975,1.5225 45.7365,1.5225 C45.6855,1.5225 45.6375,1.53 45.588,1.53975 C45.5595,1.54575 45.53025,1.5405 45.50175,1.55025 L39.159,3.65025 C39.153,3.6525 39.1485,3.65775 39.14325,3.65925 C39.00525,3.705 38.88975,3.78675 38.8005,3.89625 L26.121,16.575 L13.92525,4.37925 C13.9245,4.3785 13.9245,4.37775 13.92375,4.377 C13.923,4.37625 13.92225,4.37625 13.9215,4.3755 L9.76575,0.21975 C9.4725,-0.0735 8.9985,-0.0735 8.70525,0.21975 L0.21975,8.70525 C-0.0735,8.9985 -0.0735,9.4725 0.21975,9.76575 L16.575,26.121 L10.209,32.48775 C10.20825,32.4885 10.2075,32.4885 10.20675,32.48925 C10.206,32.49 10.206,32.49075 10.20525,32.4915 L8.08725,34.6095 C8.0865,34.61025 8.08575,34.61025 8.085,34.611 C8.08425,34.61175 8.08425,34.6125 8.0835,34.61325 L1.94175,40.755 C1.94025,40.7565 1.94025,40.758 1.93875,40.75875 C1.3575,41.34375 1.3575,42.29325 1.94175,42.87675 L5.12325,46.05825 C5.41575,46.35075 5.79975,46.497 6.18375,46.497 C6.56775,46.497 6.95175,46.35075 7.24425,46.05825 L21.879,31.4235 L38.235,47.7795 C38.3805,47.9265 38.5725,48 38.7645,48 C38.9565,48 39.1485,47.9265 39.29475,47.78025 L47.78025,39.29475 C48.0735,39.0015 48.0735,38.5275 47.78025,38.23425 L41.50425,31.9575 Z M14.97975,36.2025 L11.79825,33.021 L26.6505,18.168 C26.65125,18.16725 26.652,18.16725 26.65275,18.1665 C26.6535,18.16575 26.6535,18.165 26.65425,18.16425 L38.62425,6.19425 L38.62425,8.6055 C38.62425,9.02025 38.9595,9.3555 39.37425,9.3555 L41.8275,9.3555 L14.97975,36.2025 Z M42.3615,4.17 L43.82925,5.63775 L43.095,7.8555 L40.12275,7.8555 L40.12275,4.911 L42.3615,4.17 Z M44.358,4.044 L43.956,3.64275 L44.55675,3.444 L44.358,4.044 Z M1.8105,9.2355 L9.2355,1.8105 L10.21125,2.78625 L9.681,3.3165 C9.38775,3.60975 9.38775,4.08375 9.681,4.377 C9.82725,4.52325 10.01925,4.59675 10.21125,4.59675 C10.40325,4.59675 10.59525,4.52325 10.7415,4.377 L11.27175,3.84675 L12.33225,4.90725 L10.74075,6.4995 C10.4475,6.79275 10.4475,7.26675 10.74075,7.56 C10.887,7.70625 11.079,7.77975 11.271,7.77975 C11.463,7.77975 11.655,7.70625 11.80125,7.56 L13.39275,5.96775 L14.45475,7.02975 L13.92375,7.56 C13.6305,7.85325 13.6305,8.32725 13.92375,8.6205 C14.07,8.76675 14.262,8.84025 14.454,8.84025 C14.646,8.84025 14.838,8.76675 14.98425,8.6205 L15.51525,8.09025 L16.57575,9.15075 L14.9835,10.743 C14.69025,11.03625 14.69025,11.51025 14.9835,11.8035 C15.12975,11.94975 15.32175,12.02325 15.51375,12.02325 C15.70575,12.02325 15.89775,11.94975 16.044,11.8035 L17.63625,10.21125 L18.69675,11.27175 L18.1665,11.802 C17.87325,12.09525 17.87325,12.56925 18.1665,12.8625 C18.31275,13.00875 18.50475,13.08225 18.69675,13.08225 C18.88875,13.08225 19.08075,13.00875 19.227,12.8625 L19.75725,12.33225 L20.81775,13.39275 L19.2255,14.985 C18.93225,15.27825 18.93225,15.75225 19.2255,16.0455 C19.37175,16.19175 19.56375,16.26525 19.75575,16.26525 C19.94775,16.26525 20.13975,16.19175 20.286,16.0455 L21.87825,14.45325 L22.93875,15.51375 L22.4085,16.044 C22.11525,16.33725 22.11525,16.81125 22.4085,17.1045 C22.55475,17.25075 22.74675,17.32425 22.93875,17.32425 C23.13075,17.32425 23.32275,17.25075 23.469,17.1045 L24,16.575 L25.0605,17.6355 L17.6355,25.0605 L1.8105,9.2355 Z M6.183,44.9985 L3.0015,41.817 C3.00225,41.81625 3.00225,41.8155 3.003,41.81475 L6.49275,38.325 L9.67425,41.50725 L6.183,44.9985 Z M10.73475,40.44675 L7.55325,37.2645 L8.61525,36.2025 C8.7615,36.34875 8.95275,36.42225 9.14475,36.42225 C9.33675,36.42225 9.52875,36.34875 9.675,36.2025 C9.96825,35.90925 9.96825,35.436 9.675,35.14275 L10.737,34.0815 L13.9185,37.263 L12.85725,38.32425 C12.564,38.031 12.09,38.031 11.79675,38.32425 C11.5035,38.6175 11.5035,39.0915 11.79675,39.38475 L10.73475,40.44675 Z M38.7645,46.1895 L22.93875,30.36375 L30.36375,22.93875 L31.425,24 L30.894,24.53025 C30.60075,24.82275 30.60075,25.2975 30.894,25.59075 C31.04025,25.737 31.23225,25.8105 31.42425,25.8105 C31.61625,25.8105 31.80825,25.737 31.9545,25.59075 L32.4855,25.0605 L33.546,26.121 L31.95375,27.71325 C31.6605,28.0065 31.6605,28.4805 31.95375,28.77375 C32.1,28.92 32.292,28.9935 32.484,28.9935 C32.676,28.9935 32.868,28.92 33.01425,28.77375 L34.6065,27.1815 L35.667,28.242 L35.13675,28.77225 C34.8435,29.0655 34.8435,29.5395 35.13675,29.83275 C35.283,29.979 35.475,30.0525 35.667,30.0525 C35.859,30.0525 36.051,29.979 36.19725,29.83275 L36.7275,29.3025 L37.788,30.363 L36.1965,31.95525 C35.90325,32.2485 35.90325,32.7225 36.1965,33.01575 C36.34275,33.162 36.53475,33.2355 36.72675,33.2355 C36.91875,33.2355 37.11075,33.162 37.257,33.01575 L38.8485,31.4235 L39.909,32.484 L39.37875,33.01575 C39.08625,33.30975 39.08625,33.78375 39.3795,34.077 C39.52575,34.2225 39.71775,34.296 39.90975,34.296 C40.10175,34.296 40.2945,34.2225 40.44075,34.07625 L40.971,33.546 L42.03075,34.60575 L40.4385,36.19725 C40.14525,36.48975 40.14525,36.9645 40.4385,37.25775 C40.58475,37.404 40.77675,37.4775 40.96875,37.4775 C41.16075,37.4775 41.35275,37.404 41.499,37.25775 L43.09125,35.66625 L44.1525,36.7275 L43.6215,37.25775 C43.32825,37.551 43.32825,38.025 43.6215,38.31825 C43.76775,38.4645 43.95975,38.538 44.15175,38.538 C44.34375,38.538 44.53575,38.4645 44.682,38.31825 L45.213,37.788 L46.18875,38.76375 L38.7645,46.1895 Z"
					  id="Shape"></path>
			</g>
		</g>
	</g>
</svg>
