<?xml version="1.0" encoding="UTF-8"?>
<svg width="44px" height="45px" viewBox="0 0 44 45" version="1.1" xmlns="http://www.w3.org/2000/svg"
	 xmlns:xlink="http://www.w3.org/1999/xlink">
	<title>Group 10</title>
	<g id="Page-1" stroke="none" stroke-width="1" fill="none" fill-rule="evenodd">
		<g id="Passenger-App" transform="translate(-928.000000, -1333.000000)">
			<g id="Group-10" transform="translate(928.000000, 1334.000000)">
				<g id="phone-call-(1)" fill="#D80000" fill-rule="nonzero">
					<path d="M8.181,0.0625 C9.38053125,0.0625 10.50825,0.52965625 11.3564063,1.3778125 L11.3564063,1.3778125 L17.860875,7.8821875 C19.61175,9.63315625 19.61175,12.4820313 17.860875,14.233 L17.860875,14.233 L16.3775625,15.7163125 C15.673125,16.4206563 15.673125,17.5668438 16.3775625,18.2711875 L16.3775625,18.2711875 L24.7288125,26.6224375 C25.4330625,27.326875 26.57925,27.326875 27.2836875,26.6224375 L27.2836875,26.6224375 L28.767,25.139125 C30.5179688,23.38825 33.3668438,23.38825 35.1178125,25.139125 L35.1178125,25.139125 L41.6221875,31.6435938 C42.4703437,32.49175 42.9375,33.6194687 42.9375,34.819 C42.9375,36.0184375 42.4703437,37.14625 41.6221875,37.9944062 L41.6221875,37.9944062 L40.0658437,39.55075 C37.8415313,41.7750625 34.8840938,43 31.7385,43 C28.5929063,43 25.6354688,41.7750625 23.4110625,39.5506562 L23.4110625,39.5506562 L15.5579063,31.6975 C15.1918125,31.3314063 15.1918125,30.7377812 15.5579063,30.3716875 C15.9240938,30.0055938 16.5177188,30.0055938 16.8838125,30.3716875 L16.8838125,30.3716875 L24.7369688,38.2248437 C26.6070938,40.0950625 29.093625,41.125 31.7385,41.125 C34.383375,41.125 36.8699062,40.0950625 38.740125,38.2249375 L38.740125,38.2249375 L40.2964688,36.6685937 C40.7905313,36.1745312 41.0625938,35.5177187 41.0625938,34.819 C41.0625938,34.1202812 40.7905313,33.4634687 40.2964688,32.9694062 L40.2964688,32.9694062 L33.792,26.4649375 C32.7721875,25.445125 31.1127188,25.4450312 30.0929063,26.4649375 L30.0929063,26.4649375 L29.2497188,27.308125 L36.0396563,34.0981563 C36.40575,34.4643437 36.40575,35.0579688 36.0396563,35.4240625 C35.8566563,35.6070625 35.6166563,35.6986562 35.37675,35.6986562 C35.1368438,35.6986562 34.8969375,35.6071562 34.7138438,35.4240625 L34.7138438,35.4240625 L27.8323125,28.5425312 C27.2822813,28.8578125 26.6574375,29.0266562 26.00625,29.0266562 C25.0228125,29.0266562 24.09825,28.6436875 23.4029063,27.9483437 L23.4029063,27.9483437 L15.0516563,19.5970937 C14.3563125,18.9016562 13.9733438,17.9771875 13.9733438,16.99375 C13.9733438,16.3426562 14.1422813,15.7177187 14.4575625,15.1676875 L14.4575625,15.1676875 L8.3949375,9.1050625 C8.02884375,8.738875 8.02884375,8.14525 8.3949375,7.77915625 C8.76103125,7.41315625 9.35465625,7.4130625 9.72075,7.77915625 L9.72075,7.77915625 L15.691875,13.7502812 L16.5350625,12.9070937 C17.5549688,11.8872812 17.5549688,10.2278125 16.5350625,9.208 L16.5350625,9.208 L10.0305938,2.703625 C9.53653125,2.2095625 8.879625,1.9375 8.181,1.9375 C7.482375,1.9375 6.82546875,2.2095625 6.3315,2.703625 L6.3315,2.703625 L4.77515625,4.25996875 C2.9049375,6.1301875 1.875,8.61671875 1.875,11.2615 C1.875,13.9062813 2.9049375,16.3928125 4.7750625,18.2630312 L4.7750625,18.2630312 L11.8637813,25.3516562 C12.229875,25.7178438 12.229875,26.3114688 11.8637813,26.6775625 C11.4975938,27.0436562 10.9039688,27.0436562 10.537875,26.6775625 L10.537875,26.6775625 L3.44925,19.5889375 C1.2249375,17.3645312 7.10542736e-15,14.4071875 7.10542736e-15,11.2615 C7.10542736e-15,8.1158125 1.2249375,5.15846875 3.44925,2.9340625 L3.44925,2.9340625 L5.00559375,1.3778125 C5.85375,0.52965625 6.9815625,0.0625 8.181,0.0625 Z M13.8121875,27.6878125 C14.05875,27.6878125 14.300625,27.788125 14.475,27.9625 C14.649375,28.1369687 14.74875,28.37875 14.74875,28.6253125 C14.74875,28.871875 14.649375,29.11375 14.475,29.288125 C14.300625,29.4625 14.05875,29.5628125 13.8121875,29.5628125 C13.5646875,29.5628125 13.3228125,29.4625 13.1484375,29.288125 C12.9740625,29.11375 12.8746875,28.871875 12.8746875,28.6253125 C12.8746875,28.37875 12.9740625,28.136875 13.1484375,27.9625 C13.3228125,27.788125 13.5646875,27.6878125 13.8121875,27.6878125 Z M6.7584375,5.205625 C7.005,5.205625 7.246875,5.3059375 7.42125,5.4803125 C7.595625,5.65478125 7.6959375,5.895625 7.6959375,6.143125 C7.6959375,6.3896875 7.595625,6.6315625 7.42125,6.8059375 C7.246875,6.9803125 7.005,7.080625 6.7584375,7.080625 C6.511875,7.080625 6.27,6.9803125 6.095625,6.8059375 C5.92125,6.6315625 5.8209375,6.3896875 5.8209375,6.143125 C5.8209375,5.895625 5.92125,5.6546875 6.095625,5.4803125 C6.27,5.3059375 6.511875,5.205625 6.7584375,5.205625 Z"
						  id="Combined-Shape"></path>
				</g>
				<path d="M36,19 C36,12.372583 30.627417,7 24,7" id="Path" stroke="#D80000" stroke-width="1.8"
					  stroke-linecap="round"></path>
				<path d="M43,19 C43,8.50658975 34.4934102,0 24,0" id="Path-Copy" stroke="#D80000" stroke-width="1.8"
					  stroke-linecap="round"></path>
			</g>
		</g>
	</g>
</svg>
