<?xml version="1.0" encoding="UTF-8"?>
<svg width="30px" height="48px" viewBox="0 0 30 48" version="1.1" xmlns="http://www.w3.org/2000/svg"
	 xmlns:xlink="http://www.w3.org/1999/xlink">
	<title>click</title>
	<g id="Page-1" stroke="none" stroke-width="1" fill="none" fill-rule="evenodd">
		<g id="Passenger-App" transform="translate(-296.000000, -1080.000000)" fill="#D80000" fill-rule="nonzero">
			<g id="click" transform="translate(296.000000, 1080.000000)">
				<path d="M0.180846305,29.8843731 C0.761967106,32.3713019 1.68106821,34.7623241 2.91288334,36.9906741 C4.14543078,39.2204998 5.67934095,41.2666275 7.47213728,43.0726203 L7.50216364,43.1032366 L7.50216364,47.0556901 C7.50216364,47.5772738 7.92180097,48 8.43957349,48 L25.3129508,48 C25.8307233,48 26.2503606,47.5772738 26.2503606,47.0556901 L26.2503606,42.9944197 C28.6832321,39.2186554 30,34.7918337 30,30.236645 L30,22.8813559 C30,20.7987098 28.3177888,19.1041162 26.2503606,19.1041162 C25.4788283,19.1041162 24.7611239,19.3401937 24.1642575,19.7444764 C23.6512454,18.2734186 22.2594114,17.2154964 20.6259015,17.2154964 C19.8543692,17.2154964 19.1366648,17.4515738 18.5397985,17.8558565 C18.0267863,16.3847987 16.6349523,15.3268765 15.0014424,15.3268765 C14.3324394,15.3268765 13.6905333,15.5031969 13.1266227,15.8325988 L13.1266227,7.20581114 C13.1266227,5.11910754 11.4488055,3.42857143 9.37698334,3.42857143 C7.30955517,3.42857143 5.62734395,5.12316506 5.62734395,7.20581114 L5.62734395,20.8020298 L3.0655786,22.5224444 C0.685802556,24.1207627 -0.473875979,27.0791087 0.180846305,29.8843731 Z M4.1058838,24.0938351 L5.62734395,23.0716934 L5.62734395,29.4915254 C5.62734395,30.0131092 6.04698128,30.4358354 6.5647538,30.4358354 C7.08252631,30.4358354 7.50216364,30.0131092 7.50216364,29.4915254 C7.50216364,28.8032121 7.50216364,7.77534806 7.50216364,7.20581114 C7.50216364,6.1644881 8.34326925,5.31719128 9.37698334,5.31719128 C10.4125283,5.31719128 11.251803,6.16264377 11.251803,7.20581114 L11.251803,25.7142857 C11.251803,26.2358694 11.6714404,26.6585956 12.1892129,26.6585956 C12.7069854,26.6585956 13.1266227,26.2358694 13.1266227,25.7142857 L13.1266227,19.1041162 C13.1266227,18.0609488 13.9658975,17.2154964 15.0014424,17.2154964 C16.0351565,17.2154964 16.8762621,18.0627932 16.8762621,19.1041162 L16.8762621,25.7142857 C16.8762621,26.2358694 17.2958995,26.6585956 17.813672,26.6585956 C18.3314445,26.6585956 18.7510818,26.2358694 18.7510818,25.7142857 L18.7510818,20.9927361 C18.7510818,19.951413 19.5921874,19.1041162 20.6259015,19.1041162 C21.6596156,19.1041162 22.5007212,19.951413 22.5007212,20.9927361 L22.5007212,25.7142857 C22.5007212,26.2358694 22.9203585,26.6585956 23.4381311,26.6585956 C23.9559036,26.6585956 24.3755409,26.2358694 24.3755409,25.7142857 L24.3755409,22.8813559 C24.3755409,21.8400329 25.2166465,20.9927361 26.2503606,20.9927361 C27.2840747,20.9927361 28.1251803,21.8400329 28.1251803,22.8813559 L28.1251803,30.236645 C28.1251803,34.4653829 26.8897034,38.6269863 24.5329965,42.1880675 C24.4304673,42.3433622 24.3755409,42.5255845 24.3755409,42.7118644 L24.3755409,46.1113801 L9.37698334,46.1113801 L9.37698334,42.7118644 C9.37698334,42.4614009 9.27811585,42.2212659 9.1023515,42.0442078 C8.90388431,41.8166143 6.56109208,39.7088851 4.55078732,36.0718164 C3.40355881,33.99581 2.54707377,31.7685665 2.00549986,29.4520562 C1.52947142,27.4107238 2.37350643,25.2572544 4.1058838,24.0938351 Z"
					  id="Shape"></path>
				<path d="M21.1745856,40.9857384 C21.5921172,41.271401 22.1575987,41.157209 22.4371386,40.7270734 C23.9482902,38.403101 24.9359267,35.8317733 25.3726634,33.0842324 C25.4533957,32.5752934 25.1165963,32.095176 24.6204663,32.0123594 C24.1239806,31.929178 23.6563026,32.2746728 23.5752146,32.7836118 C23.1808002,35.2662856 22.2884775,37.5898931 20.9224307,39.690589 C20.6432464,40.1196301 20.7563427,40.6993462 21.1745856,40.9857384 L21.1745856,40.9857384 Z"
					  id="Path"></path>
				<path d="M3.24519231,8 C3.76301462,8 4.18269231,7.60208338 4.18269231,7.11111111 C4.18269231,4.17013884 6.7062519,1.77777778 9.80769231,1.77777778 C12.909499,1.77777778 15.4326923,4.17013884 15.4326923,7.11111111 C15.4326923,7.60208338 15.85237,8 16.3701923,8 C16.8880146,8 17.3076923,7.60208338 17.3076923,7.11111111 C17.3076923,3.18993058 13.9433124,0 9.80769231,0 C5.67207221,0 2.30769231,3.18993058 2.30769231,7.11111111 C2.30769231,7.60208338 2.72737,8 3.24519231,8 Z"
					  id="Path"></path>
			</g>
		</g>
	</g>
</svg>
