<?xml version="1.0" encoding="UTF-8"?>
<svg width="50px" height="48px" viewBox="0 0 50 48" version="1.1" xmlns="http://www.w3.org/2000/svg"
	 xmlns:xlink="http://www.w3.org/1999/xlink">
	<title>Group</title>
	<g id="Page-1" stroke="none" stroke-width="1" fill="none" fill-rule="evenodd" stroke-linecap="round"
	   stroke-linejoin="round">
		<g id="Dispatch-System" transform="translate(-295.000000, -1081.000000)" stroke="#D80000" stroke-width="2">
			<g id="taxi-driver" transform="translate(296.000000, 1082.000000)">
				<circle id="Oval" cx="40.5614035" cy="5.88596491" r="5.69298246"></circle>
				<path d="M47.8070175,18.8947368 C47.8070175,14.8930948 44.5630456,11.649123 40.5614035,11.649123 C36.5597615,11.649123 33.3157895,14.8930948 33.3157895,18.8947368 L33.3157895,25.1052632 L36.5928772,25.1052632 L37.4561404,35.4561404 L43.6666667,35.4561404 L44.5299298,25.1052632 L47.8070175,25.1052632 L47.8070175,18.8947368 Z"
					  id="Shape"></path>
				<path d="M35.3859649,39.5964912 L2.26315789,39.5964912 C1.11983157,39.5964912 0.192982456,38.6696421 0.192982456,37.5263158 L0.192982456,31.3157895 C0.192982456,29.0291368 2.04668068,27.1754386 4.33333333,27.1754386 L30.2105263,27.1754386"
					  id="Shape"></path>
				<path d="M5.36842105,27.1754386 L6.08677193,20.6212632 C6.26549942,18.4753499 8.05928835,16.8246681 10.2126316,16.8245614 L26.0701754,16.8245614"
					  id="Shape"></path>
				<circle id="Oval" cx="6.40350877" cy="33.3859649" r="2.07017544"></circle>
				<path d="M10.5438596,39.5964912 L10.5438596,42.7017544 C10.5438596,44.4167439 9.15358598,45.8070175 7.43859649,45.8070175 C5.723607,45.8070175 4.33333333,44.4167439 4.33333333,42.7017544 L4.33333333,39.5964912"
					  id="Shape"></path>
				<path d="M35.3859649,39.5964912 L35.3859649,42.7017544 C35.3859649,44.4167439 33.9956912,45.8070175 32.2807018,45.8070175 C30.5657123,45.8070175 29.1754386,44.4167439 29.1754386,42.7017544 L29.1754386,39.5964912"
					  id="Shape"></path>
				<line x1="0.192982456" y1="23.0350877" x2="5.36842105" y2="27.1754386" id="Shape"></line>
				<path d="M33.3157895,35.4561404 C32.1724631,35.4561404 31.245614,34.5292912 31.245614,33.3859649 C31.245614,32.2426386 32.1724631,31.3157895 33.3157895,31.3157895"
					  id="Shape"></path>
				<line x1="12.6140351" y1="12.6842105" x2="12.6140351" y2="9.57894737" id="Shape"></line>
				<line x1="20.2364211" y1="2.33333333" x2="24" y2="2.33333333" id="Shape"></line>
				<line x1="28.1403509" y1="2.33333333" x2="31.245614" y2="2.33333333" id="Shape"></line>
			</g>
		</g>
	</g>
</svg>
