<?xml version="1.0" encoding="UTF-8"?>
<svg width="48px" height="48px" viewBox="0 0 48 48" version="1.1" xmlns="http://www.w3.org/2000/svg"
	 xmlns:xlink="http://www.w3.org/1999/xlink">
	<title>Group</title>
	<g id="Page-1" stroke="none" stroke-width="1" fill="none" fill-rule="evenodd">
		<g id="Home-Drop" transform="translate(-925.000000, -3015.000000)">
			<g id="Group-11" transform="translate(-10.000000, 2723.000000)">
				<g id="Features" transform="translate(10.000000, 0.000000)">
					<g id="design-tool-layout" transform="translate(926.000000, 293.000000)">
						<rect id="Rectangle-path" stroke="#D80000" stroke-width="2" stroke-linecap="round"
							  stroke-linejoin="round" x="0" y="0" width="46" height="46" rx="1"></rect>
						<path d="M7,7 L7,29 L29,29 L29,7 L7,7 Z M7,5 L29,5 C30.1045695,5 31,5.8954305 31,7 L31,29 C31,30.1045695 30.1045695,31 29,31 L7,31 C5.8954305,31 5,30.1045695 5,29 L5,7 C5,5.8954305 5.8954305,5 7,5 Z"
							  id="Rectangle-path" fill="#D80000" fill-rule="nonzero"></path>
						<circle id="Oval" stroke="#D80000" stroke-width="2" stroke-linecap="round"
								stroke-linejoin="round" cx="18" cy="18" r="8"></circle>
						<line x1="38" y1="6" x2="42" y2="6" id="Shape" stroke="#D80000" stroke-width="2"
							  stroke-linecap="round" stroke-linejoin="round"></line>
						<line x1="38" y1="10" x2="42" y2="10" id="Shape" stroke="#D80000" stroke-width="2"
							  stroke-linecap="round" stroke-linejoin="round"></line>
						<line x1="38" y1="15" x2="42" y2="15" id="Shape" stroke="#D80000" stroke-width="2"
							  stroke-linecap="round" stroke-linejoin="round"></line>
						<line x1="38" y1="19" x2="42" y2="19" id="Shape" stroke="#D80000" stroke-width="2"
							  stroke-linecap="round" stroke-linejoin="round"></line>
						<rect id="Rectangle-path" stroke="#D80000" stroke-width="2" stroke-linecap="round"
							  stroke-linejoin="round" x="36" y="36" width="6" height="6" rx="0.5"></rect>
						<rect id="Rectangle-path" stroke="#D80000" stroke-width="2" stroke-linecap="round"
							  stroke-linejoin="round" x="26" y="36" width="6" height="6" rx="0.5"></rect>
						<line x1="6" y1="37" x2="20" y2="37" id="Shape" stroke="#D80000" stroke-width="2"
							  stroke-linecap="round" stroke-linejoin="round"></line>
						<line x1="6" y1="41" x2="16" y2="41" id="Shape" stroke="#D80000" stroke-width="2"
							  stroke-linecap="round" stroke-linejoin="round"></line>
					</g>
				</g>
			</g>
		</g>
	</g>
</svg>
