<?xml version="1.0" encoding="UTF-8"?>
<svg width="48px" height="48px" viewBox="0 0 48 48" version="1.1" xmlns="http://www.w3.org/2000/svg"
	 xmlns:xlink="http://www.w3.org/1999/xlink">
	<title>team</title>
	<g id="Page-1" stroke="none" stroke-width="1" fill="none" fill-rule="evenodd">
		<g id="Customer" transform="translate(-928.000000, -1082.000000)" fill="#D80000" fill-rule="nonzero">
			<g id="team" transform="translate(928.000000, 1082.000000)">
				<path d="M42.9870937,31.8910313 L39.8582812,31.1434688 L39.8582812,30.0444375 C41.5864688,29.0235 42.748875,27.1423125 42.748875,24.99375 L42.748875,20.8455937 C42.748875,17.6128125 40.1187187,14.98275 36.8859375,14.98275 L36.2375625,14.98275 C34.5115312,14.98275 32.9577187,15.7328437 31.8839062,16.92375 C30.8439375,13.5576562 27.703125,11.104875 24,11.104875 C20.296875,11.104875 17.1560625,13.5574687 16.1160937,16.92375 C15.0422812,15.7328437 13.4884687,14.98275 11.7624375,14.98275 L11.1140625,14.98275 C7.88128125,14.98275 5.25103125,17.6128125 5.25103125,20.8455937 L5.25103125,24.99375 C5.25103125,27.1422188 6.4134375,29.0235 8.141625,30.0444375 L8.141625,31.1434688 L5.0128125,31.8910313 C2.062125,32.5960313 0.0013125,35.2070625 0.0013125,38.2407188 L0.0013125,41.0627813 C0.0013125,41.5804688 0.421125,42.0001875 0.93871875,42.0001875 L8.51015625,42.0001875 C8.46271875,42.36975 8.43825,42.7459688 8.43825,43.1270625 L8.43825,46.125 L2.813625,46.125 C2.2959375,46.125 1.87621875,46.5448125 1.87621875,47.0624063 C1.87621875,47.5800938 2.29603125,47.9998125 2.813625,47.9998125 L45.1861875,47.9998125 C45.703875,47.9998125 46.1235938,47.58 46.1235938,47.0624063 C46.1235938,46.5447188 45.7037813,46.125 45.1861875,46.125 L39.5615625,46.125 L39.5615625,43.1315625 C39.5615625,42.7487813 39.5369063,42.3711563 39.4890938,42.0002813 L47.0610938,42.0002813 C47.5787813,42.0002813 47.9985,41.5804688 47.9985,41.062875 L47.9985,38.2408125 C47.9985,35.2070625 45.9376875,32.5959375 42.9870937,31.8910313 Z M32.249625,20.8455938 C32.2495313,18.6465938 34.0385625,16.8575625 36.2376563,16.8575625 L36.8860313,16.8575625 C39.085125,16.8575625 40.8741563,18.6465938 40.8741563,20.8455938 L40.8741563,21.0859688 C39.5213438,21.0694688 38.2095,20.6708438 37.0752188,19.928625 C36.7634063,19.7244375 36.360375,19.7244375 36.0486563,19.928625 C34.914375,20.6709375 33.6025313,21.0695625 32.2497188,21.0859688 L32.2497188,20.8455938 L32.249625,20.8455938 Z M32.2495312,24.229125 L32.2495312,22.9610625 C33.7673437,22.9464375 35.2450312,22.5511875 36.56175,21.8095313 C37.8784687,22.5512813 39.3561562,22.9464375 40.8739687,22.9610625 L40.8739687,24.9938438 C40.8739687,27.1929375 39.0849375,28.9819688 36.8858437,28.9819688 L36.2374687,28.9819688 C34.038375,28.9819688 32.2493437,27.1929375 32.2493437,24.9938438 L32.2493437,24.229125 L32.2495312,24.229125 Z M34.0474688,35.019375 C33.6665625,34.8694688 33.2719687,34.7431875 32.863875,34.6456875 L29.8845,33.9338438 C30.1055625,33.843 30.3340313,33.768375 30.5687813,33.712125 L33.5300625,33.0024375 L34.0474688,35.019375 Z M33.2714062,30.0480938 L33.2714062,31.1365313 L30.1318125,31.888875 C29.4529688,32.0515313 28.8098438,32.3204063 28.22325,32.6830312 L28.22325,31.3129688 C29.5081875,30.5439375 30.5674688,29.435625 31.2765,28.1125313 C31.7770313,28.9059375 32.4619687,29.5712813 33.2714062,30.0480938 Z M30.3748125,24.229125 C30.3748125,27.7440938 27.5150625,30.60375 24.0000938,30.60375 C20.485125,30.60375 17.6254688,27.7440938 17.6254688,24.229125 L17.6254688,21.483 L18.6557813,21.483 L18.6557813,21.483 C21.287625,21.483 23.7950625,20.6431875 25.8564375,19.1180625 L26.0713125,19.4391563 C26.92725,20.7188438 28.3576875,21.483 29.8973438,21.483 L30.3748125,21.483 L30.3748125,24.229125 L30.3748125,24.229125 Z M17.6252812,19.3543125 C17.6252812,15.8394375 20.4849375,12.9797813 23.9999062,12.9797813 C27.514875,12.9797813 30.3745312,15.8394375 30.3745312,19.3544063 L30.3745312,19.6080938 L29.8970625,19.6080938 C28.9845937,19.6080938 28.1368125,19.1552813 27.6294375,18.39675 L27.28275,17.8785 C27.5638125,17.5933125 27.8330625,17.2935938 28.0880625,16.978125 C28.4135625,16.5754688 28.3509375,15.9852188 27.9481875,15.6598125 C27.5458125,15.3343125 26.955375,15.3968438 26.629875,15.7996875 C24.6739687,18.2199375 21.7675312,19.608 18.6556875,19.608 L17.6252812,19.608 L17.6252812,19.3543125 L17.6252812,19.3543125 Z M16.7234063,28.1125313 C17.4340313,29.438625 18.4965,30.549 19.7852813,31.318125 L19.7852813,32.6882813 C19.1963438,32.3229375 18.5502188,32.0524688 17.868,31.8889688 L14.7285,31.136625 L14.7285,30.0481875 C15.5378438,29.5712813 16.2227813,28.9059375 16.7234063,28.1125313 Z M18.1050938,33.9297187 L15.1298438,34.6426875 C14.7242813,34.7399062 14.332125,34.8654375 13.9535625,35.0144062 L14.4698438,33.002625 L17.4310313,33.7123125 C17.662125,33.767625 17.8872188,33.84075 18.1050938,33.9297187 Z M7.12603125,20.8455938 C7.1259375,18.6465938 8.91496875,16.8575625 11.1140625,16.8575625 L11.7624375,16.8575625 C13.9615313,16.8575625 15.7505625,18.6465938 15.7505625,20.8455938 L15.7505625,21.0859688 C14.39775,21.0694688 13.0859063,20.6708438 11.951625,19.928625 C11.6398125,19.7244375 11.2367813,19.7244375 10.9250625,19.928625 C9.79078125,20.6709375 8.47903125,21.0695625 7.126125,21.0859688 L7.126125,20.8455938 L7.12603125,20.8455938 Z M7.1259375,24.9938438 L7.1259375,22.9610625 C8.64375,22.9464375 10.1214375,22.5511875 11.4381562,21.8095313 C12.754875,22.5512813 14.2325625,22.9464375 15.750375,22.9610625 L15.750375,24.229125 L15.750375,24.9938438 C15.750375,27.1929375 13.9613438,28.9819688 11.76225,28.9819688 L11.113875,28.9819688 C8.91496875,28.9819688 7.1259375,27.1929375 7.1259375,24.9938438 Z M8.9671875,40.1256563 L1.87621875,40.1256563 L1.87621875,40.1254688 L1.87621875,38.2408125 C1.87621875,36.078375 3.3451875,34.2170625 5.448375,33.71475 L8.40009375,33.0095625 L9.794625,38.445375 C9.460875,38.971125 9.18271875,39.5339063 8.9671875,40.1256563 Z M10.016625,30.75225 C10.3723125,30.8199375 10.738875,30.8567813 11.1139688,30.8567813 L11.7623438,30.8567813 C12.135375,30.8567813 12.4997812,30.8203125 12.8535937,30.753375 L12.8535937,31.7574375 L11.6789063,36.3357187 C11.5416563,36.44625 11.4068438,36.5595937 11.277,36.6779062 L10.016625,31.7649375 L10.016625,30.75225 Z M10.31325,46.1250937 L10.31325,43.1273437 C10.31325,40.854 11.4171562,38.8067812 13.176,37.5525937 C15.3997329,36.258138 17.547831,35.4905286 19.6202941,35.2497656 C19.6361945,35.2516121 20.6660794,38.8767215 22.7099488,46.1250937 L10.31325,46.1250937 Z M21.6600937,34.1480625 L21.6600937,32.1403125 C22.4022187,32.3601563 23.187375,32.4788438 23.9999062,32.4788438 C24.8155312,32.4788438 25.6035938,32.3593125 26.3483437,32.1377813 L26.3483437,34.1588438 L24.0057187,43.2901875 L21.6600937,34.1480625 Z M37.6866563,46.1250937 C29.5955643,46.1298726 25.3862954,46.1298726 25.0588495,46.1250937 C26.3627857,41.7529816 27.5604139,37.2623687 28.1472732,35.1888311 C28.183856,35.0595739 33.0824063,36.3105937 34.834875,37.5650625 C36.5873438,38.8195312 37.6866563,40.862625 37.6866563,43.1316562 L37.6866563,46.1250937 Z M37.9834688,31.765125 L37.9834688,31.765125 L36.7221562,36.6814688 C36.5929687,36.5638125 36.4589062,36.451125 36.3224063,36.3411563 L35.1464062,31.757625 L35.1464062,30.7535625 C35.5002188,30.8205 35.8647187,30.8569688 36.2376563,30.8569688 L36.8860312,30.8569688 C37.2612187,30.8569688 37.6277812,30.820125 37.9834688,30.7524375 L37.9834688,31.765125 Z M46.1236875,40.1254688 L39.0313125,40.1254688 C38.8157813,39.5346563 38.5378125,38.973 38.2045313,38.448 L39.5997188,33.0094687 L42.5514375,33.7146563 C44.6547188,34.2170625 46.1235938,36.078375 46.1235938,38.2407187 L46.1235938,40.1254688 L46.1236875,40.1254688 Z"
					  id="Shape"></path>
				<path d="M23.9999062,0 C23.4823125,0 23.0625,0.4198125 23.0625,0.93740625 L23.0625,4.95121875 C23.0625,5.469 23.4822188,5.888625 23.9999062,5.888625 C24.5175938,5.888625 24.9373125,5.4688125 24.9373125,4.95121875 L24.9373125,0.93740625 C24.9374063,0.4198125 24.5175938,0 23.9999062,0 Z"
					  id="Path"></path>
				<path d="M24.662625,7.54828125 C24.4883437,7.374 24.2464687,7.27359375 23.9999062,7.27359375 C23.7523125,7.27359375 23.5114687,7.37390625 23.3370937,7.54828125 C23.1627187,7.72265625 23.0624062,7.9636875 23.0624062,8.21109375 C23.0624062,8.45765625 23.162625,8.69953125 23.3370937,8.87390625 C23.5114687,9.04828125 23.7533437,9.14859375 23.9999062,9.14859375 C24.2464687,9.14859375 24.4883437,9.04828125 24.662625,8.87390625 C24.837,8.69859375 24.9374062,8.45765625 24.9374062,8.21109375 C24.9374062,7.96359375 24.8370937,7.72265625 24.662625,7.54828125 Z"
					  id="Path"></path>
				<path d="M17.766,7.761 L14.2924687,4.28821875 C13.926375,3.922125 13.3328437,3.9223125 12.9666562,4.28840625 C12.6006562,4.6545 12.60075,5.24803125 12.9668437,5.61421875 L16.4404688,9.087 C16.6234688,9.27 16.8634687,9.3615 17.1032812,9.3615 C17.3432812,9.3615 17.5831875,9.26990625 17.7662812,9.0868125 C18.1321875,8.7208125 18.1320937,8.1271875 17.766,7.761 Z"
					  id="Path"></path>
				<path d="M35.1733125,4.14253125 C34.8072187,3.77671875 34.213875,3.77653125 33.8475,4.14253125 L30.162375,7.8275625 C29.7962813,8.19365625 29.7962813,8.7871875 30.162375,9.153375 C30.3455625,9.33646875 30.5854687,9.42796875 30.825375,9.42796875 C31.0652813,9.42796875 31.3051875,9.336375 31.4882812,9.153375 L35.1734062,5.46834375 C35.5394062,5.10225 35.5394062,4.508625 35.1733125,4.14253125 Z"
					  id="Path"></path>
			</g>
		</g>
	</g>
</svg>
