<?xml version="1.0" encoding="UTF-8"?>
<svg width="50px" height="48px" viewBox="0 0 50 48" version="1.1" xmlns="http://www.w3.org/2000/svg"
	 xmlns:xlink="http://www.w3.org/1999/xlink">
	<title>day-and-night (1)</title>
	<g id="Page-1" stroke="none" stroke-width="1" fill="none" fill-rule="evenodd">
		<g id="Driver-App" transform="translate(-927.000000, -1329.000000)" fill="#D80000" fill-rule="nonzero">
			<g id="day-and-night-(1)" transform="translate(927.000000, 1329.000000)">
				<path d="M45.7292746,5.47072051 C45.6105449,5.35192628 45.4494741,5.28518295 45.2815193,5.28518295 C45.1135645,5.28518295 44.9524937,5.35192628 44.833764,5.47072051 L5.56975774,44.7347266 C5.4081148,44.8943546 5.34437015,45.1283418 5.40271221,45.3478999 C5.46105426,45.5674579 5.63254168,45.7389381 5.85210223,45.7972708 C6.07166278,45.8556035 6.30564724,45.791849 6.4652684,45.6301993 L45.7292746,6.36619316 C45.8480572,6.24746497 45.9147932,6.08640233 45.9147932,5.91845683 C45.9147932,5.75051134 45.8480572,5.5894487 45.7292746,5.47072051 Z"
					  id="Path"></path>
				<path d="M21.6576998,14.3719298 C21.6576998,10.403231 18.4404337,7.18596491 14.4717349,7.18596491 C10.5030361,7.18596491 7.28576998,10.403231 7.28576998,14.3719298 C7.28576998,18.3406287 10.5030361,21.5578947 14.4717349,21.5578947 C18.4385805,21.5534242 21.6532292,18.3387754 21.6576998,14.3719298 L21.6576998,14.3719298 Z M14.4717349,19.9610136 C11.3849691,19.9610136 8.88265107,17.4586956 8.88265107,14.3719298 C8.88265107,11.2851641 11.3849691,8.782846 14.4717349,8.782846 C17.5585007,8.782846 20.0608187,11.2851641 20.0608187,14.3719298 C20.0572197,17.4572036 17.5570086,19.9574146 14.4717349,19.9610136 Z"
					  id="Shape"></path>
				<path d="M12.0764133,6.38752437 L16.8670565,6.38752437 C17.1437362,6.38739061 17.4006412,6.24408101 17.5461083,6.00872814 C17.6915754,5.77337526 17.704884,5.47950336 17.5812856,5.23196532 L15.1859639,0.441322043 C15.0360172,0.189654382 14.7646865,0.0354764146 14.4717349,0.0354764146 C14.1787833,0.0354764146 13.9074526,0.189654382 13.7575059,0.441322043 L11.3621842,5.23196532 C11.2385858,5.47950336 11.2518943,5.77337526 11.3973615,6.00872814 C11.5428286,6.24408101 11.7997336,6.38739061 12.0764133,6.38752437 Z M14.4717349,2.58401709 L15.575052,4.79064327 L13.3684178,4.79064327 L14.4717349,2.58401709 Z"
					  id="Shape"></path>
				<path d="M5.81014007,10.1076026 C5.89776325,10.3700274 6.11482188,10.5685073 6.38401921,10.6323617 C6.4442435,10.6462797 6.50584896,10.6533402 6.56766054,10.6534086 C6.77939602,10.6533292 6.98243684,10.5691835 7.132158,10.4194655 L10.5196778,7.03233697 C10.715298,6.83674342 10.7956968,6.55380746 10.7321616,6.2845726 C10.6686264,6.01533774 10.4702172,5.79819606 10.2077909,5.7106943 L5.12631566,4.017154 C4.83942116,3.92137314 4.52303441,3.99595135 4.30912103,4.20978188 C4.09520765,4.42361241 4.02050689,4.73997025 4.11617659,5.02690183 L5.81014007,10.1076026 Z M8.47680374,6.81715724 L6.91657107,8.37738991 L6.1360635,6.03664967 L8.47680374,6.81715724 Z"
					  id="Shape"></path>
				<path d="M0.541127111,15.0861588 L5.33177039,17.4814805 C5.57929787,17.6052187 5.87324496,17.5919758 6.10864292,17.4464808 C6.34404088,17.3009858 6.48732943,17.0439842 6.48732943,16.7672515 L6.48732943,11.9766082 C6.48732943,11.6998755 6.34404088,11.4428739 6.10864292,11.2973789 C5.87324496,11.1518839 5.57929787,11.138641 5.33177039,11.2623792 L0.541127111,13.6577008 C0.270646008,13.7930056 0.0998030812,14.069494 0.0998030812,14.3719298 C0.0998030812,14.6743656 0.270646008,14.950854 0.541127111,15.0861588 L0.541127111,15.0861588 Z M4.89044834,13.2686127 L4.89044834,15.4752469 L2.68343092,14.3719298 L4.89044834,13.2686127 Z"
					  id="Shape"></path>
				<path d="M6.38401921,18.111498 C6.11482188,18.1753524 5.89776325,18.3738323 5.81014007,18.6362571 L4.11617659,23.7169578 C4.03505816,23.9604612 4.07590845,24.2281125 4.22597108,24.4363319 C4.3760337,24.6445512 4.61702162,24.7679644 4.87368109,24.7680336 C4.95958444,24.7681461 5.04492611,24.7541854 5.12631566,24.7267057 L10.2077989,23.0331414 C10.4702252,22.9456396 10.6686344,22.728498 10.7321696,22.4592631 C10.7957048,22.1900282 10.715306,21.9070923 10.5196857,21.7114987 L7.13216599,18.3243702 C6.93621239,18.1290883 6.65342595,18.0486263 6.38401921,18.111498 Z M6.1360635,22.70721 L6.91657107,20.3664697 L8.47680374,21.9267024 L6.1360635,22.70721 Z"
					  id="Shape"></path>
				<path d="M16.8670565,22.3563353 L12.0764133,22.3563353 C11.7997336,22.356469 11.5428286,22.4997786 11.3973615,22.7351315 C11.2518943,22.9704844 11.2385858,23.2643563 11.3621842,23.5118943 L13.7575059,28.3025376 C13.8928107,28.5730187 14.1692991,28.7438616 14.4717349,28.7438616 C14.7741707,28.7438616 15.0506591,28.5730187 15.1859639,28.3025376 L17.5812856,23.5118943 C17.704884,23.2643563 17.6915754,22.9704844 17.5461083,22.7351315 C17.4006412,22.4997786 17.1437362,22.356469 16.8670565,22.3563353 Z M14.4717349,26.1598426 L13.3684178,23.9532164 L15.575052,23.9532164 L14.4717349,26.1598426 Z"
					  id="Shape"></path>
				<path d="M18.7356709,23.0331414 L23.8171541,24.7267057 C23.8985437,24.7541854 23.9838853,24.7681461 24.0697887,24.7680336 C24.3264482,24.7679644 24.5674361,24.6445512 24.7174987,24.4363319 C24.8675613,24.2281125 24.9084116,23.9604612 24.8272932,23.7169578 L23.1333297,18.6362571 C23.0459502,18.373624 22.8287257,18.1750214 22.5593334,18.1114675 C22.2899412,18.0479136 22.006855,18.128485 21.8113038,18.3243702 L18.423784,21.7114987 C18.2281638,21.9070923 18.147765,22.1900282 18.2113002,22.4592631 C18.2748354,22.728498 18.4732446,22.9456396 18.7356709,23.0331414 L18.7356709,23.0331414 Z M22.0268987,20.3664697 L22.8074063,22.70721 L20.466666,21.9267024 L22.0268987,20.3664697 Z"
					  id="Shape"></path>
				<path d="M22.834697,11.2974626 C22.5994788,11.4430735 22.4562857,11.6999675 22.4561404,11.9766082 L22.4561404,16.7672515 C22.4561404,17.0439622 22.599493,17.3009238 22.8348723,17.4464073 C23.0702516,17.5918907 23.3641675,17.6051608 23.6116994,17.4814805 L28.4023427,15.0861588 C28.6728238,14.950854 28.8436667,14.6743656 28.8436667,14.3719298 C28.8436667,14.069494 28.6728238,13.7930056 28.4023427,13.6577008 L23.6116994,11.2623792 C23.3640854,11.1387937 23.0701658,11.1520649 22.834697,11.2974626 Z M24.0530214,13.2686127 L26.2600389,14.3719298 L24.0530214,15.4752469 L24.0530214,13.2686127 Z"
					  id="Shape"></path>
				<path d="M21.8113038,10.4194894 C21.961025,10.5692075 22.1640658,10.6533531 22.3758013,10.6534325 C22.4376141,10.6534325 22.4992221,10.6463255 22.5594426,10.6323856 C22.8286399,10.5685312 23.0456985,10.3700513 23.1333217,10.1076265 L24.8272932,5.02690183 C24.9229629,4.73997025 24.8482621,4.42361241 24.6343488,4.20978188 C24.4204354,3.99595135 24.1040486,3.92137314 23.8171541,4.017154 L18.7356709,5.71071825 C18.4732446,5.79822002 18.2748354,6.0153617 18.2113002,6.28459655 C18.147765,6.55383141 18.2281638,6.83676738 18.423784,7.03236092 L21.8113038,10.4194894 Z M22.8074063,6.03664967 L22.0268987,8.37738991 L20.466666,6.81715724 L22.8074063,6.03664967 Z"
					  id="Shape"></path>
				<path d="M42.077194,27.0214398 C41.7838091,26.9109028 41.4528852,26.9822833 41.2311528,27.2039313 C41.0094204,27.4255794 40.9379141,27.7564762 41.0483395,28.049903 C42.271979,31.2743138 41.490551,34.9166152 39.0519338,37.3553168 C36.6133167,39.7940183 32.9710424,40.5755724 29.7465892,39.3520445 C29.4532053,39.2415121 29.1222849,39.3128947 28.9005551,39.5345418 C28.6788254,39.756189 28.6073195,40.0870827 28.7177427,40.3805078 C30.3986089,44.8572097 34.9216032,47.6051269 39.6692349,47.0340192 C44.4168666,46.4629115 48.1591473,42.7207382 48.7303912,37.9731229 C49.3016351,33.2255075 46.5538476,28.7024344 42.077194,27.0214398 L42.077194,27.0214398 Z M38.4249513,45.5111148 C35.3874514,45.4986705 32.5697559,43.9252496 30.9656881,41.3458065 C31.5824165,41.4610042 32.2084725,41.5189513 32.8358674,41.5189084 C38.5657438,41.5124226 43.2091088,36.8690576 43.2155945,31.1391813 C43.2155283,30.5119029 43.15745,29.8859748 43.0421014,29.2693932 C46.3821138,31.3311159 47.9466844,35.3601725 46.8733946,39.1356767 C45.8001048,42.911181 42.3500463,45.5146928 38.4249513,45.5111148 L38.4249513,45.5111148 Z"
					  id="Shape"></path>
				<path d="M32.0609569,35.3261157 C32.1497328,35.6804353 32.4678655,35.9291591 32.8331368,35.9298246 L32.8362587,35.9298246 C33.2007686,35.9289626 33.5187471,35.6821426 33.6099955,35.3292376 C34.0796731,33.676579 35.3708611,32.3844939 37.0231931,31.9136686 C37.3786693,31.8248968 37.62808,31.5055423 37.62808,31.1391493 C37.62808,30.7727564 37.3786693,30.4534019 37.0231931,30.3646301 C35.3718841,29.8942519 34.0811562,28.6035239 33.6107779,26.952215 C33.5219897,26.597908 33.2038601,26.3491998 32.8385981,26.348538 L32.8354762,26.348538 C32.4709662,26.3494 32.1529878,26.5962199 32.0617394,26.949125 C31.5920618,28.6017836 30.3008738,29.8938687 28.6485418,30.364694 C28.2930656,30.4534657 28.0436549,30.7728203 28.0436549,31.1392132 C28.0436549,31.5056061 28.2930656,31.8249607 28.6485418,31.9137325 C30.2998429,32.3841048 31.5905692,33.674819 32.0609569,35.3261157 Z M32.8358674,29.0822627 C33.3362324,29.9086649 34.0163614,30.6117125 34.825733,31.1391813 C34.0163614,31.6666501 33.3362324,32.3696977 32.8358674,33.1960999 C32.3355025,32.3696977 31.6553735,31.6666501 30.8460019,31.1391813 C31.6553735,30.6117125 32.3355025,29.9086649 32.8358674,29.0822627 Z"
					  id="Shape"></path>
				<path d="M39.2233918,24.7516569 C40.5462914,24.7516569 41.6187135,23.6792349 41.6187135,22.3563353 C41.6187135,21.0334357 40.5462914,19.9610136 39.2233918,19.9610136 C37.9004922,19.9610136 36.8280702,21.0334357 36.8280702,22.3563353 C36.8295135,23.6786366 37.9010905,24.7502136 39.2233918,24.7516569 L39.2233918,24.7516569 Z M39.2233918,21.5578947 C39.6643583,21.5578947 40.0218324,21.9153687 40.0218324,22.3563353 C40.0218324,22.7973018 39.6643583,23.1547758 39.2233918,23.1547758 C38.7824253,23.1547758 38.4249513,22.7973018 38.4249513,22.3563353 C38.4253914,21.9155512 38.7826077,21.5583349 39.2233918,21.5578947 L39.2233918,21.5578947 Z"
					  id="Shape"></path>
				<path d="M22.4561404,40.7204678 C21.1332407,40.7204678 20.0608187,41.7928899 20.0608187,43.1157895 C20.0608187,44.4386891 21.1332407,45.5111111 22.4561404,45.5111111 C23.77904,45.5111111 24.851462,44.4386891 24.851462,43.1157895 C24.8500186,41.7934882 23.7784416,40.7219112 22.4561404,40.7204678 Z M22.4561404,43.91423 C22.0151738,43.91423 21.6576998,43.556756 21.6576998,43.1157895 C21.6576998,42.6748229 22.0151738,42.3173489 22.4561404,42.3173489 C22.8971069,42.3173489 23.2545809,42.6748229 23.2545809,43.1157895 C23.2541408,43.5565736 22.8969245,43.9137899 22.4561404,43.91423 L22.4561404,43.91423 Z"
					  id="Shape"></path>
			</g>
		</g>
	</g>
</svg>
