<?xml version="1.0" encoding="UTF-8"?>
<svg width="53px" height="46px" viewBox="0 0 53 46" version="1.1" xmlns="http://www.w3.org/2000/svg"
	 xmlns:xlink="http://www.w3.org/1999/xlink">
	<title>Group 5 Copy 4</title>
	<g id="Page-1" stroke="none" stroke-width="1" fill="none" fill-rule="evenodd">
		<g id="Dispatch-System" transform="translate(-612.000000, -1331.000000)" fill="#D80000" fill-rule="nonzero">
			<g id="partner" transform="translate(612.000000, 1331.000000)">
				<path d="M13.77075,29.4061563 C15.0739688,28.1725938 15.8895937,26.42875 15.8895937,24.4968438 C15.8895937,20.76775 12.85575,17.7339063 9.1265625,17.7339063 C5.39746875,17.7339063 2.363625,20.76775 2.363625,24.4968438 C2.363625,26.4286563 3.17915625,28.1725938 4.48246875,29.4061563 C1.972875,29.6341563 0,31.748875 0,34.3167813 L0,45.0626875 C0,45.5804688 0.4198125,46.0001875 0.9375,46.0001875 L17.3157187,46.0001875 C17.8335,46.0001875 18.2532187,45.5804688 18.2532187,45.0626875 L18.2532187,34.3167813 C18.2534063,31.748875 16.2803438,29.6340625 13.77075,29.4061563 Z M4.238625,24.4968438 C4.238625,21.801625 6.43134375,19.6089063 9.1265625,19.6089063 C11.8217812,19.6089063 14.0145937,21.801625 14.0145937,24.4968438 C14.0145937,27.191875 11.8221562,29.3844063 9.12721875,29.3847813 C9.12703125,29.3847813 9.12684375,29.3847813 9.12665625,29.3847813 C9.12646875,29.3847813 9.1261875,29.3847813 9.126,29.3847813 C6.43115625,29.3845 4.238625,27.191875 4.238625,24.4968438 Z M1.87509375,44.1251875 L1.87509375,34.3167813 C1.87509375,32.6311563 3.24646875,31.2597813 4.932,31.2597813 L8.18915625,31.2597813 L8.18915625,36.884875 C8.18915625,37.4026563 8.60896875,37.822375 9.12665625,37.822375 C9.64434375,37.822375 10.0641562,37.4026563 10.0641562,36.884875 L10.0641562,31.2597813 L13.3212187,31.2597813 C15.0068437,31.2597813 16.3782188,32.6311563 16.3782188,34.3167813 L16.3782188,44.1251875 L1.87509375,44.1251875 Z"
					  id="Shape"></path>
				<g id="steering-wheel-(2)" transform="translate(29.000000, 0.000000)">
					<path d="M12,0 C5.39207813,0 0,5.39292188 0,12 C0,18.6079688 5.39292188,24 12,24 C18.6079219,24 24,18.6070781 24,12 C24,5.39203125 18.6070781,0 12,0 Z M12,22.59375 C6.15857813,22.59375 1.40625,17.8414219 1.40625,12 C1.40625,6.15857812 6.15857813,1.40625 12,1.40625 C17.8414219,1.40625 22.59375,6.15857812 22.59375,12 C22.59375,17.8414219 17.8414219,22.59375 12,22.59375 Z"
						  id="Shape"></path>
					<path d="M12,2.8125 C6.96857813,2.8125 2.8125,6.93885937 2.8125,12 C2.8125,17.0404219 6.94907813,21.1875 12,21.1875 C17.0460937,21.1875 21.1875,17.0465156 21.1875,12 C21.1875,6.93328125 17.0262187,2.8125 12,2.8125 Z M12,4.21875 C14.9901094,4.21875 17.59125,5.9143125 18.893625,8.39423437 C17.1554063,7.74810937 14.7019688,7.078125 12,7.078125 C9.29803125,7.078125 6.84459375,7.74810937 5.106375,8.39423437 C6.40875,5.9143125 9.00989063,4.21875 12,4.21875 Z M4.62257813,14.4755625 L5.21639062,14.5604062 C7.39214063,14.8712344 9.1288125,16.6079062 9.43959375,18.7836562 L9.5244375,19.3774687 C7.22175,18.6026719 5.39728125,16.7782031 4.62257813,14.4755625 Z M14.4755625,19.3774219 L14.5604063,18.7836094 C14.8711875,16.6078594 16.6078594,14.8712344 18.7836094,14.5604062 L19.3774219,14.4755625 C18.6027188,16.7782031 16.77825,18.6026719 14.4755625,19.3774219 Z M18.5847656,13.1682656 C15.79425,13.5668906 13.5668906,15.79425 13.1682656,18.5847188 L13.0065938,19.7162813 C12.6769688,19.7589844 12.3410625,19.78125 12,19.78125 C11.6589375,19.78125 11.3230312,19.7589844 10.9934062,19.7162344 L10.8317344,18.5847188 C10.4331094,15.7942031 8.20575,13.5668906 5.41523437,13.1682656 L4.28376562,13.0066406 C4.24101562,12.6770156 4.21875,12.3410625 4.21875,12 C4.21875,11.3749688 4.29332812,10.7670469 4.43315625,10.1842969 C5.99517188,9.49335938 8.821125,8.484375 12,8.484375 C15.178875,8.484375 18.0048281,9.49335938 19.5668437,10.1842969 C19.7066719,10.7670469 19.78125,11.3749688 19.78125,12 C19.78125,12.3410625 19.7589844,12.6770156 19.7162344,13.0066406 L18.5847656,13.1682656 Z"
						  id="Shape"></path>
					<path d="M12,9.890625 C10.8368906,9.890625 9.890625,10.8368906 9.890625,12 C9.890625,13.1631094 10.8368906,14.109375 12,14.109375 C13.1631094,14.109375 14.109375,13.1631094 14.109375,12 C14.109375,10.8368906 13.1631094,9.890625 12,9.890625 Z M12,12.703125 C11.6122969,12.703125 11.296875,12.3877031 11.296875,12 C11.296875,11.6122969 11.6122969,11.296875 12,11.296875 C12.3877031,11.296875 12.703125,11.6122969 12.703125,12 C12.703125,12.3877031 12.3877031,12.703125 12,12.703125 Z"
						  id="Shape"></path>
				</g>
				<path d="M27.1689375,1.85040625 C27.121875,1.84196875 27.0624375,1.83428125 26.991,1.83428125 C26.4733125,1.83428125 26.0535,2.254 26.0535,2.77178125 C26.0535,3.2453125 26.4045938,3.6368125 26.8605,3.70028125 C26.9075625,3.70871875 26.967,3.71640625 27.0384375,3.71640625 C27.556125,3.71640625 27.9759375,3.2966875 27.9759375,2.77890625 C27.9760313,2.305375 27.6249375,1.913875 27.1689375,1.85040625 Z"
					  id="Path"></path>
				<path d="M24.0001875,1.60403125 C19.8766875,1.60403125 15.896625,2.8345 12.4905,5.1623125 C9.93459375,6.90896875 7.8375,9.181 6.31734375,11.8293437 L6.17109375,10.925125 C6.08840625,10.414 5.60671875,10.0665625 5.09596875,10.14925 C4.58484375,10.2319375 4.2375,10.71325 4.32009375,11.224375 L4.94390625,15.0822812 C4.94503125,15.0889375 4.947,15.0952187 4.94821875,15.1017812 C4.9524375,15.1244687 4.95740625,15.1469687 4.96321875,15.1691875 C4.96621875,15.1808125 4.9693125,15.1924375 4.972875,15.203875 C4.97925,15.22525 4.98675,15.24625 4.99471875,15.2670625 C4.99875,15.27775 5.0025,15.2884375 5.00690625,15.2989375 C5.017875,15.3248125 5.03015625,15.3500312 5.04346875,15.3747812 C5.0458125,15.3791875 5.0476875,15.3837812 5.050125,15.3881875 C5.06634375,15.4174375 5.08434375,15.4456562 5.10365625,15.473125 C5.10796875,15.4793125 5.11284375,15.4849375 5.11734375,15.4910312 C5.13290625,15.512125 5.14921875,15.5325625 5.16646875,15.5523437 C5.17284375,15.5595625 5.17959375,15.5664062 5.18615625,15.5734375 C5.20284375,15.59125 5.2201875,15.6085 5.238375,15.625 C5.24578125,15.63175 5.25328125,15.6384062 5.26096875,15.6449687 C5.2794375,15.6608125 5.29875,15.6758125 5.318625,15.69025 C5.32678125,15.6961562 5.33484375,15.70225 5.3431875,15.707875 C5.364,15.7219375 5.38575,15.7350625 5.407875,15.7475312 C5.41415625,15.7510937 5.41996875,15.7554062 5.42634375,15.758875 C5.42821875,15.7599062 5.4301875,15.7605625 5.43215625,15.7615 C5.46328125,15.7779062 5.4954375,15.7930937 5.529,15.8062187 C5.52975,15.8065 5.5305,15.8066875 5.53125,15.8069687 C5.53396875,15.808 5.53678125,15.80875 5.5395,15.8097812 C5.57025,15.8213125 5.6011875,15.8309687 5.63221875,15.839125 C5.641125,15.8414687 5.65003125,15.8434375 5.6589375,15.8454062 C5.6863125,15.8516875 5.71378125,15.8568437 5.74125,15.8606875 C5.74865625,15.8617187 5.7560625,15.8629375 5.7635625,15.8637812 C5.7988125,15.8678125 5.8340625,15.8705312 5.869125,15.8705312 C5.8730625,15.8705312 5.8768125,15.8696875 5.88075,15.8696875 C5.9176875,15.8692187 5.954625,15.8662187 5.991375,15.8613437 C6.0043125,15.8596562 6.0170625,15.8574062 6.02990625,15.8551562 C6.061125,15.8497187 6.09196875,15.8426875 6.12271875,15.8340625 C6.13228125,15.8313437 6.1419375,15.8292812 6.1515,15.8262812 C6.187125,15.8150312 6.22246875,15.8020937 6.25696875,15.7864375 L9.815625,14.171125 C10.287,13.9570937 10.4957813,13.4013437 10.28175,12.9299687 C10.0679063,12.4585 9.51215625,12.2497187 9.04059375,12.46375 L7.80075,13.0265312 C11.0295,7.23090625 17.2621875,3.47903125 24.0001875,3.47903125 C24.517875,3.47903125 24.9376875,3.0593125 24.9376875,2.54153125 C24.9376875,2.02375 24.5177813,1.60403125 24.0001875,1.60403125 Z"
					  id="Path"></path>
				<path d="M21.13875,40.2997188 C21.0919688,40.2914688 21.0328125,40.2837813 20.9616563,40.2837813 C20.4439688,40.2837813 20.0241563,40.7035 20.0241563,41.2212813 C20.0241563,41.6950938 20.3757188,42.0867813 20.8320938,42.149875 C20.878875,42.158125 20.9380313,42.1658125 21.0091875,42.1658125 C21.526875,42.1658125 21.9466875,41.7460938 21.9466875,41.2283125 C21.9467813,40.7545 21.5952188,40.3628125 21.13875,40.2997188 Z"
					  id="Path"></path>
				<path d="M43.6800938,32.7760938 L43.0562813,28.918 C43.0551563,28.9114375 43.0531875,28.9051563 43.0519688,28.8985938 C43.04775,28.8757188 43.0426875,28.853125 43.036875,28.8307188 C43.0339688,28.8192813 43.0307813,28.8080313 43.0274063,28.7967813 C43.0209375,28.775125 43.0133438,28.7538438 43.0051875,28.7326563 C43.00125,28.7223438 42.9976875,28.7118438 42.9932813,28.701625 C42.982125,28.6751875 42.9695625,28.6494063 42.9560625,28.6240938 C42.9539063,28.62025 42.9523125,28.616125 42.9501563,28.612375 C42.9338438,28.5830313 42.9158438,28.5547188 42.8964375,28.5271563 C42.8922188,28.5211563 42.8873438,28.5154375 42.8830313,28.5094375 C42.867375,28.4883438 42.8511563,28.4679063 42.8338125,28.448125 C42.8274375,28.4408125 42.8205938,28.433875 42.8139375,28.4268438 C42.7973438,28.409125 42.7801875,28.3919688 42.7620938,28.3755625 C42.7545938,28.368625 42.7469063,28.3619688 42.739125,28.3553125 C42.72075,28.3396563 42.701625,28.3246563 42.6818438,28.3103125 C42.6735938,28.3043125 42.6654375,28.2982188 42.657,28.2925 C42.6361875,28.2784375 42.6145313,28.2654063 42.5923125,28.2529375 C42.5860313,28.2492813 42.5802188,28.2449688 42.5738438,28.2415 C42.571875,28.2404688 42.5698125,28.2398125 42.5678438,28.2386875 C42.5423438,28.2252813 42.5157188,28.2131875 42.4885313,28.2019375 C42.4834688,28.199875 42.4786875,28.1971563 42.4735313,28.1951875 C42.4726875,28.1949063 42.4720313,28.1945313 42.4712813,28.1941563 C42.4395,28.1817813 42.4074375,28.1714688 42.3752813,28.16275 C42.3696563,28.1611563 42.3638438,28.1603125 42.3580313,28.1589063 C42.3302813,28.1519688 42.3025313,28.1459688 42.2745938,28.1416563 C42.26625,28.1403438 42.2578125,28.1396875 42.249375,28.1386563 C42.223875,28.135375 42.1982813,28.1328438 42.172875,28.1317188 C42.1633125,28.1313438 42.1539375,28.13125 42.1444688,28.1310795 C42.1198125,28.130875 42.0954375,28.1313438 42.0710625,28.1329375 C42.0610313,28.1335938 42.0510938,28.1343438 42.0410625,28.1352813 C42.0167813,28.137625 41.9927813,28.1410938 41.968875,28.1453125 C41.9592188,28.147 41.9496563,28.1484063 41.94,28.150375 C41.9128125,28.1560938 41.8860938,28.163125 41.8596563,28.1710938 C41.85375,28.172875 41.8479375,28.1740938 41.8422188,28.1759688 C41.8101563,28.1862813 41.77875,28.1984688 41.7480938,28.21225 C41.7465,28.2129063 41.7449063,28.213375 41.7433125,28.214125 L38.18475,29.8294375 C37.713375,30.0434688 37.5045938,30.599125 37.718625,31.0705938 C37.9325625,31.5420625 38.4882188,31.75075 38.9597813,31.5368125 L40.1995313,30.9740313 C36.970875,36.7696563 30.7381875,40.5215313 24.0000938,40.5215313 C23.4824063,40.5215313 23.0625938,40.94125 23.0625938,41.4590313 C23.0625938,41.9768125 23.4824063,42.3965313 24.0000938,42.3965313 C28.1235938,42.3965313 32.1036563,41.1661563 35.5097813,38.83825 C38.0656875,37.0915 40.1627813,34.8194688 41.6829375,32.1712188 L41.8291875,33.0754375 C41.9037188,33.5359375 42.3016875,33.8635 42.7535625,33.8634063 C42.80325,33.8634063 42.8535938,33.8594688 42.9043125,33.8512188 C43.4153438,33.768625 43.7627813,33.2872188 43.6800938,32.7760938 Z"
					  id="Path"></path>
			</g>
		</g>
	</g>
</svg>
