<?xml version="1.0" encoding="UTF-8"?>
<svg width="45px" height="49px" viewBox="0 0 45 49" version="1.1" xmlns="http://www.w3.org/2000/svg"
	 xmlns:xlink="http://www.w3.org/1999/xlink">
	<title>money (2)</title>
	<g id="Page-1" stroke="none" stroke-width="1" fill="none" fill-rule="evenodd">
		<g id="Dispatch-System" transform="translate(-612.000000, -1329.000000)">
			<g id="money-(2)" transform="translate(612.000000, 1329.000000)">
				<path d="M43.494283,1.10134124e-13 L35.6575784,0.0115430862 C35.0274341,1.10134124e-13 34.5118614,0.519438878 34.5004042,1.15430862 C34.4889471,1.78917836 35.0045197,2.30861723 35.6346641,2.32016032 C35.6461213,2.32016032 35.6461213,2.32016032 35.6575784,2.32016032 L40.7331049,2.30861723 L28.3020751,14.7866934 L23.9598075,10.446493 C23.7421213,10.2387174 23.4442348,10.1348297 23.1463484,10.1463727 C22.848462,10.1348297 22.5505756,10.2387174 22.3328893,10.446493 L0.335122233,32.6092184 C-0.111707411,33.0593988 -0.111707411,33.7866132 0.335122233,34.2252505 C0.55280847,34.4445691 0.839237729,34.56 1.14858133,34.56 C1.45792493,34.56 1.74435419,34.4445691 1.96204042,34.2252505 L23.1578056,12.8705411 L27.5000731,17.28 C27.7063022,17.5108617 28.0041886,17.6378357 28.3135322,17.6493788 C28.6228758,17.6378357 28.9093051,17.4993186 29.1269913,17.28 L42.3485659,3.94773547 L42.3371088,9.08440882 C42.3371088,9.73082164 42.8412243,10.2502605 43.4828258,10.2733467 C44.1244273,10.2618036 44.6285428,9.73082164 44.6285428,9.08440882 L44.64,1.1658517 C44.64,0.530981964 44.1244273,1.10134124e-13 43.494283,1.10134124e-13 Z"
					  id="Path" fill="#D80000" fill-rule="nonzero"></path>
				<path d="M15.8,32.4 C16.3522847,32.4 16.8,32.8477153 16.8,33.4 L16.8,47 C16.8,47.5522847 16.3522847,48 15.8,48 L10.6,48 C10.0477153,48 9.6,47.5522847 9.6,47 L9.6,33.4 C9.6,32.8477153 10.0477153,32.4 10.6,32.4 L15.8,32.4 Z M27.8,26.4 C28.3522847,26.4 28.8,26.8477153 28.8,27.4 L28.8,47 C28.8,47.5522847 28.3522847,48 27.8,48 L22.6,48 C22.0477153,48 21.6,47.5522847 21.6,47 L21.6,27.4 C21.6,26.8477153 22.0477153,26.4 22.6,26.4 L27.8,26.4 Z M41,20.4 C41.5522847,20.4 42,20.8477153 42,21.4 L42,47 C42,47.5522847 41.5522847,48 41,48 L35.8,48 C35.2477153,48 34.8,47.5522847 34.8,47 L34.8,21.4 C34.8,20.8477153 35.2477153,20.4 35.8,20.4 L41,20.4 Z"
					  id="Combined-Shape" stroke="#D80000" stroke-width="2"></path>
			</g>
		</g>
	</g>
</svg>
