<?xml version="1.0" encoding="UTF-8"?>
<svg width="48px" height="48px" viewBox="0 0 48 48" version="1.1" xmlns="http://www.w3.org/2000/svg"
	 xmlns:xlink="http://www.w3.org/1999/xlink">
	<title>passenger (1)</title>
	<g id="Page-1" stroke="none" stroke-width="1" fill="none" fill-rule="evenodd">
		<g id="Driver-App" transform="translate(-296.000000, -1083.000000)" fill="#D80000" fill-rule="nonzero">
			<g id="passenger-(1)" transform="translate(296.000000, 1083.000000)">
				<path d="M18.2186279,13.2125244 L14.2478027,13.2125244 C13.9991455,13.2125244 13.760376,13.3114013 13.5845948,13.4871826 C13.4088135,13.6629638 13.3099365,13.9017334 13.3103027,14.1503906 L13.3114013,21.0736084 L7.125,21.0736084 L7.125,16.5849609 C7.125,16.0675049 6.70532231,15.6474609 6.1875,15.6474609 C5.66967769,15.6474609 5.25,16.0675049 5.25,16.5849609 L5.25,25.197876 C4.19201662,25.0517578 3.37426763,24.1417237 3.37426763,23.0441895 L3.37426763,14.5437011 C3.37426763,12.776001 4.81237791,11.3375244 6.58044431,11.3375244 L8.66088863,11.3375244 C9.17871094,11.3375244 9.59838863,10.9178467 9.59838863,10.4000244 L9.59838863,9.95507812 C9.80126953,9.98254397 10.0078125,9.99792478 10.2180176,9.99792478 C10.4278565,9.99792478 10.6343994,9.98254397 10.8369141,9.95507812 L10.8369141,10.4000244 C10.8369141,10.9178467 11.2565918,11.3375244 11.7744141,11.3375244 L17.9992676,11.3375244 C18.0014648,11.3375244 18.0040283,11.3371582 18.0062256,11.3371582 L28.1286621,11.3371582 C28.645752,11.3371582 29.0665283,11.7575683 29.0665283,12.2746582 C29.0665283,12.791748 28.645752,13.2125244 28.1286621,13.2125244 L24.375,13.2125244 C23.8571777,13.2125244 23.4375,13.6322021 23.4375,14.1500244 C23.4375,14.6674805 23.8571777,15.0875244 24.375,15.0875244 L28.1290283,15.0875244 C29.6799317,15.0875244 30.9415283,13.8255615 30.9415283,12.2746582 C30.9415283,10.7237549 29.6799317,9.46215825 28.1290283,9.46215825 L14.2478027,9.46215825 C14.2452393,9.46215825 14.243042,9.46252444 14.2404786,9.46252444 L12.7119141,9.46252444 L12.7119141,9.26257322 C13.9848633,8.44042969 14.8300781,7.010376 14.8300781,5.38586428 L14.8300781,4.6120605 C14.8300781,2.06909175 12.7609864,-2.66453526e-15 10.2180176,-2.66453526e-15 C7.67468259,-2.66453526e-15 5.60559084,2.06909175 5.60559084,4.6120605 L5.60559084,5.38586428 C5.60559084,7.010376 6.45080569,8.4400635 7.72338862,9.26220703 L7.72338862,9.46252444 L6.58044431,9.46252444 C3.7785645,9.46252444 1.49890134,11.7418213 1.49890134,14.5437011 L1.49890134,23.0441895 C1.49890134,23.8747558 1.75085447,24.6478271 2.18151853,25.2912598 C0.933837937,25.5787354 -2.66453526e-15,26.6982422 -2.66453526e-15,28.0323487 L-2.66453526e-15,37.40625 C-2.66453526e-15,37.9240723 0.419677687,38.34375 0.9375,38.34375 L5.25,38.34375 L5.25,42.7089844 C3.52148437,43.4000244 2.29650881,45.0904541 2.29650881,47.0625 C2.29650881,47.5803223 2.71655269,48 3.23400881,48 L17.2023926,48 C17.7202148,48 18.1398926,47.5803223 18.1398926,47.0625 C18.1398926,45.0904541 16.914917,43.4000244 15.1864013,42.7089844 L15.185669,15.0875244 L18.2189942,15.0875244 C18.7368164,15.0875244 19.1564942,14.6674805 19.1564942,14.1500244 C19.1564942,13.6322021 18.7364502,13.2125244 18.2186279,13.2125244 Z M7.48059084,4.6120605 C7.48059084,3.10290525 8.70849609,1.875 10.2180176,1.875 C11.7271729,1.875 12.9550781,3.10290525 12.9550781,4.6120605 L12.9550781,5.38586428 C12.9550781,6.89501953 11.7271729,8.12292478 10.2176513,8.12292478 C8.70849609,8.12292478 7.48059084,6.89501953 7.48059084,5.38586428 L7.48059084,4.6120605 Z M13.3114013,22.9482422 L13.3114013,42.3552246 L11.1555176,42.3552246 L11.1555176,27.4284667 C11.1555176,26.9106445 10.7358398,26.4909667 10.2180176,26.4909667 C9.70019531,26.4909667 9.28051762,26.9106445 9.28051762,27.4284667 L9.28051762,42.3552246 L7.125,42.3552246 L7.125,22.9486084 L13.3114013,22.9486084 L13.3114013,22.9482422 Z M1.875,36.46875 L1.875,28.0323487 C1.875,27.5148926 2.29614263,27.09375 2.81359866,27.09375 L4.31140134,27.09375 C4.82885738,27.09375 5.25,27.5148926 5.25,28.0323487 L5.25,36.46875 L1.875,36.46875 Z M6.98400881,44.25 L9.28088381,44.25 L9.28088381,46.125 L4.33227544,46.125 C4.71936038,45.0336914 5.76196294,44.25 6.98400881,44.25 Z M16.104126,46.125 L11.1555176,46.125 L11.1555176,44.25 L13.4523926,44.25 C14.6744385,44.25 15.7170411,45.0336914 16.104126,46.125 Z"
					  id="Shape"></path>
				<path d="M21.8503417,14.8125 C22.0246583,14.6381836 22.125,14.3961182 22.125,14.1496582 C22.125,13.9031982 22.0246583,13.6611328 21.8503417,13.4868164 C21.6760254,13.3125 21.4339599,13.2121582 21.1875,13.2121582 C20.9410401,13.2121582 20.6989746,13.3125 20.5246583,13.4868164 C20.3503417,13.6611328 20.25,13.9031982 20.25,14.1496582 C20.25,14.3961182 20.3503417,14.6381836 20.5246583,14.8125 C20.6989746,14.9868164 20.9410401,15.0871582 21.1875,15.0871582 C21.4339599,15.0871582 21.6760254,14.9868164 21.8503417,14.8125 Z"
					  id="Path"></path>
				<path d="M47.0625,18.4822998 C47.5803223,18.4822998 48,18.0626221 48,17.5447998 C48,17.0273438 47.5803223,16.6072998 47.0625,16.6072998 L39.5976563,16.6072998 L39.5976563,14.2811279 L47.0625,14.2811279 C47.5803223,14.2811279 48,13.8614502 48,13.3436279 C48,12.8261719 47.5803223,12.4061279 47.0625,12.4061279 L38.6601562,12.4061279 C38.1423339,12.4061279 37.7226562,12.8261719 37.7226562,13.3436279 L37.7226562,16.6072998 L32.1273193,16.6072998 C30.2091065,16.6072998 28.5073242,17.8974609 27.9887695,19.7442627 L26.746582,24.1695557 L24.074707,24.1695557 C22.399292,24.1695557 21.0362549,25.5325927 21.0362549,27.2076416 C21.0362549,28.6889648 22.1022949,29.9256592 23.5074463,30.1918945 C22.4263916,31.2908935 21.7580567,32.7971192 21.7580567,34.4567871 L21.7580567,38.0789795 C21.7580567,40.6153565 23.7059326,42.7045898 26.1844482,42.930542 L26.1844482,45.4229737 C26.1844482,46.8438721 27.3405761,48 28.7614746,48 L30.7287598,48 C32.1496583,48 33.3057862,46.8438721 33.3057862,45.4229737 L33.3057862,42.9517822 L47.0625,42.9517822 C47.5803223,42.9517822 48,42.5321045 48,42.0142822 C48,41.4968261 47.5803223,41.0767822 47.0625,41.0767822 L26.6308594,41.0767822 C24.9777833,41.0767822 23.6330567,39.7320557 23.6330567,38.0789795 L23.6330567,37.4901123 L43.4652099,37.4901123 C43.9826661,37.4901123 44.4027099,37.0700683 44.4027099,36.5526123 C44.4027099,36.0347901 43.9826661,35.6151123 43.4652099,35.6151123 L31.4824219,35.6151123 C30.4464112,35.6151123 29.5026855,34.9643555 29.1342773,33.9957276 C28.7255859,32.9212646 27.9265136,32.0628662 26.8842773,31.5776367 L25.5241699,30.9448242 C26.1899414,30.5035401 26.9871826,30.2457276 27.8441162,30.2457276 L47.0625,30.2457276 C47.5803223,30.2457276 48,29.8260498 48,29.3082276 C48,28.7907714 47.5803223,28.3707276 47.0625,28.3707276 L39.5976563,28.3707276 L39.5976563,27.1472167 C39.5976563,25.0645752 37.9031982,23.3704834 35.8205567,23.3704834 C33.7379151,23.3704834 32.0438232,25.0645752 32.0438232,27.1472167 L32.0438232,28.3707276 L27.8441162,28.3707276 C27.7327881,28.3707276 27.6221924,28.3743896 27.5123291,28.380249 L29.7941895,20.2510987 C30.0864258,19.2099609 31.0458984,18.4826661 32.1273193,18.4826661 L41.9238281,18.4826661 L41.9238281,19.493042 L41.3470459,19.493042 C40.8295898,19.493042 40.4095459,19.9127198 40.4095459,20.430542 C40.4095459,20.947998 40.8295898,21.368042 41.3470459,21.368042 L44.3756104,21.368042 C44.8934326,21.368042 45.3131104,20.947998 45.3131104,20.430542 C45.3131104,19.9127198 44.8934326,19.493042 44.3756104,19.493042 L43.7988281,19.493042 L43.7988281,18.4826661 L47.0625,18.4826661 L47.0625,18.4822998 Z M31.4311523,42.9517822 L31.4311523,45.4229737 C31.4311523,45.8100586 31.1162109,46.125 30.729126,46.125 L28.7614746,46.125 C28.3743896,46.125 28.0598145,45.8100586 28.0598145,45.4229737 L28.0598145,42.9517822 L31.4311523,42.9517822 Z M33.9188232,27.1472167 C33.9188232,26.0987549 34.7717286,25.2454834 35.8205567,25.2454834 C36.8693848,25.2454834 37.7226563,26.0987549 37.7226563,27.1472167 L37.7226563,28.3707276 L33.9188232,28.3707276 L33.9188232,27.1472167 Z M22.9116211,27.2076416 C22.9116211,26.5664062 23.4331055,26.0445557 24.074707,26.0445557 L26.2203369,26.0445557 L25.5673828,28.3707276 L24.074707,28.3707276 C23.4331055,28.3707276 22.9116211,27.8492432 22.9116211,27.2076416 L22.9116211,27.2076416 Z M27.3815918,34.6625977 C27.5119629,35.0046386 27.6833496,35.3232422 27.888794,35.6151123 L23.6330567,35.6151123 L23.6330567,34.4567871 C23.6330567,33.7042237 23.8322754,32.9978027 24.1798096,32.385498 C24.1896973,32.390625 24.1984864,32.3961182 24.2087402,32.4008789 L26.0932617,33.2775879 C26.6901855,33.555542 27.147583,34.0473633 27.3815918,34.6625977 L27.3815918,34.6625977 Z"
					  id="Shape"></path>
				<path d="M47.0625,35.6147461 C46.8160401,35.6147461 46.5739746,35.7150879 46.3996583,35.8894042 C46.2253417,36.0648193 46.125,36.3057862 46.125,36.5522461 C46.125,36.798706 46.2253417,37.0407714 46.3996583,37.2150879 C46.5739746,37.3901367 46.8160401,37.4897461 47.0625,37.4897461 C47.3089599,37.4897461 47.5510254,37.3901367 47.7253417,37.2150879 C47.8996583,37.0407714 48,36.7998047 48,36.5522461 C48,36.3057862 47.8996583,36.0637208 47.7253417,35.8894042 C47.5510254,35.7150879 47.3089599,35.6147461 47.0625,35.6147461 Z"
					  id="Path"></path>
			</g>
		</g>
	</g>
</svg>
