<?xml version="1.0" encoding="UTF-8"?>
<svg width="39px" height="49px" viewBox="0 0 39 49" version="1.1" xmlns="http://www.w3.org/2000/svg"
	 xmlns:xlink="http://www.w3.org/1999/xlink">
	<title>growth</title>
	<g id="Page-1" stroke="none" stroke-width="1" fill="none" fill-rule="evenodd">
		<g id="growth">
			<path d="M3,41 L9,41 C9.55228475,41 10,41.4477153 10,42 L10,47 C10,47.5522847 9.55228475,48 9,48 L3,48 C2.44771525,48 2,47.5522847 2,47 L2,42 C2,41.4477153 2.44771525,41 3,41 Z"
				  id="Rectangle" stroke="#D80000" stroke-width="2"></path>
			<path d="M17,36 L23,36 C23.5522847,36 24,36.4477153 24,37 L24,47 C24,47.5522847 23.5522847,48 23,48 L17,48 C16.4477153,48 16,47.5522847 16,47 L16,37 C16,36.4477153 16.4477153,36 17,36 Z"
				  id="Rectangle-Copy" stroke="#D80000" stroke-width="2"></path>
			<path d="M31,26 L37,26 C37.5522847,26 38,26.4477153 38,27 L38,47 C38,47.5522847 37.5522847,48 37,48 L31,48 C30.4477153,48 30,47.5522847 30,47 L30,27 C30,26.4477153 30.4477153,26 31,26 Z"
				  id="Rectangle-Copy-2" stroke="#D80000" stroke-width="2"></path>
			<g id="high" fill="#D80000" fill-rule="nonzero">
				<g id="Group-7"
				   transform="translate(18.000000, 18.000000) rotate(9.000000) translate(-18.000000, -18.000000) translate(3.000000, 3.000000)">
					<path d="M14.4881338,23.6345688 C14.2326328,23.6345688 13.9771318,23.5367598 13.7815139,23.343138 L6.6035334,16.1631614 C6.22826635,15.7878943 6.21229754,15.1830756 6.56760358,14.7898436 L12.4481182,8.26059607 C16.6259584,3.43601907 23.2530149,0.1105142 28.925935,0.00472082802 C29.1714554,-0.0272167938 29.458894,0.106521998 29.6505198,0.296151627 C29.8421455,0.48977346 29.9459428,0.751262738 29.9421666,1.02073642 C29.8361572,6.6936565 26.5106523,13.320713 21.6701065,17.5105298 L15.1548316,23.3790678 C14.9671981,23.5507325 14.727666,23.6345688 14.4881338,23.6345688 Z M8.68546713,15.4226078 L14.5260597,21.2632004 L20.3506835,16.0154499 C24.4945899,12.4284557 27.4208745,6.94915748 27.8839701,2.06270133 C22.9975139,2.52579685 17.5202118,5.45208145 13.9451942,9.58201517 L8.68546713,15.4226078 Z"
						  id="Shape"></path>
					<path d="M17.1748862,28.3693212 C17.0850617,28.3693212 16.993241,28.3573446 16.9034164,28.3313953 C16.5560948,28.2315902 16.2886172,27.9561282 16.2027849,27.6028183 L14.7915412,21.7143193 C14.6637907,21.1793641 14.9951435,20.6404167 15.5300987,20.5106701 C16.0730383,20.3849158 16.6059973,20.7142725 16.7337478,21.2492277 L17.6699194,25.1595902 C19.4045315,22.4468885 19.749857,18.9756682 19.7857868,16.9456331 C19.7957673,16.3947091 20.2448901,15.9635512 20.8018024,15.9655335 C21.3527264,15.9735317 21.7918687,16.430639 21.7818882,16.9795668 C21.6980519,21.7023427 20.3127576,25.6426468 17.87951,28.0758943 C17.6898804,28.2655239 17.4343794,28.3693212 17.1748862,28.3693212 L17.1748862,28.3693212 Z"
						  id="Path"></path>
					<path d="M8.46589598,15.1810795 C8.38804802,15.1810795 8.31020007,15.1730951 8.23235212,15.1531341 L2.34385309,13.7418904 C1.99253925,13.6580542 1.71308506,13.3925727 1.61527609,13.0432549 C1.51746713,12.6959333 1.61527609,12.3226623 1.86878097,12.0671614 C4.30202853,9.63391381 8.24233262,8.24861946 12.9671046,8.16478321 C13.4960714,8.11488067 13.9731396,8.593945 13.9813375,9.14486898 C13.9891085,9.69579295 13.5539584,10.1509041 13.0010383,10.1608846 C10.9690071,10.1968144 7.49978292,10.5421399 4.78708116,12.276752 L8.69744373,13.2129236 C9.2323989,13.340674 9.56375173,13.8796214 9.43600124,14.4165727 C9.32421956,14.8736799 8.91701488,15.1810795 8.46589598,15.1810795 Z"
						  id="Path"></path>
					<path d="M0.998480772,29.9462413 C0.736991493,29.9462413 0.48348662,29.842444 0.291860889,29.6548105 C0.0323677112,29.3953173 -0.0634451543,29.014062 0.042348218,28.6627481 C0.371704943,27.5609002 2.08435991,21.9997618 3.42574003,20.6583816 C5.04058603,19.0415395 7.66945153,19.0395434 9.29028584,20.6583816 C10.9071279,22.2752238 10.9071279,24.9060854 9.29028584,26.5229275 C7.95090182,27.8643076 2.38776732,29.5749664 1.28591937,29.9043232 C1.1901065,29.9322686 1.09429364,29.9462413 0.998480772,29.9462413 Z M6.35801294,21.4408534 C5.80708896,21.4408534 5.25616498,21.650444 4.8369837,22.0696253 C4.27009091,22.6365181 3.29599344,25.135637 2.53348272,27.4131887 C4.81103438,26.6506779 7.31214939,25.6765805 7.87704607,25.1116838 C8.71540865,24.2733212 8.71540865,22.9079879 7.87704607,22.0716214 C7.45786479,21.650444 6.90694081,21.4408534 6.35801294,21.4408534 L6.35801294,21.4408534 Z"
						  id="Shape"></path>
				</g>
			</g>
		</g>
	</g>
</svg>
