<?xml version="1.0" encoding="UTF-8"?>
<svg width="44px" height="48px" viewBox="0 0 44 48" version="1.1" xmlns="http://www.w3.org/2000/svg"
	 xmlns:xlink="http://www.w3.org/1999/xlink">
	<title>Invoice</title>
	<g id="Page-1" stroke="none" stroke-width="1" fill="none" fill-rule="evenodd">
		<g id="Passenger-App" transform="translate(-928.000000, -1082.000000)">
			<g id="Invoice" transform="translate(928.000000, 1082.000000)">
				<g id="approve-invoice" fill="#D80000" fill-rule="nonzero">
					<path d="M40.1672195,0 L12.1435122,0 C10.5398049,0 9.23502439,1.30478049 9.23502439,2.9084878 L9.23502439,9.41717073 C3.91892683,10.9385366 0.0165853659,15.8422439 0.0165853659,21.6403902 C0.0165853659,27.4385366 3.91882927,32.3422439 9.23502439,33.8636098 L9.23502439,45.0619512 C9.23502439,46.6656585 10.5398049,47.970439 12.1435122,47.970439 L35.0442927,47.970439 C35.316,47.970439 35.5764878,47.8625366 35.7686829,47.670439 L42.7756098,40.6634146 C42.9677073,40.4713171 43.0756098,40.2107317 43.0756098,39.9390244 L43.0756098,2.9084878 C43.0756098,1.30478049 41.7709268,0 40.1672195,0 Z M12.1435122,2.04878049 L40.1672195,2.04878049 C40.6411707,2.04878049 41.0268293,2.43443902 41.0268293,2.9084878 L41.0268293,6.00009756 L11.2838049,6.00009756 L11.2838049,2.9084878 C11.2838049,2.43443902 11.6694634,2.04878049 12.1435122,2.04878049 Z M2.06536585,21.6402927 C2.06536585,15.7609756 6.8484878,10.9778537 12.7278049,10.9778537 C18.607122,10.9778537 23.3902439,15.7609756 23.3902439,21.6402927 C23.3902439,27.5196098 18.607122,32.3028293 12.7278049,32.3028293 C6.8484878,32.3028293 2.06536585,27.5196098 2.06536585,21.6402927 Z M11.2835122,45.0618537 L11.2835122,34.2690732 C11.7579512,34.3229268 12.2396098,34.3516098 12.7279024,34.3516098 C16.5459512,34.3516098 19.9759024,32.6592195 22.3079024,29.985561 L28.5845854,29.985561 C29.1503415,29.985561 29.6089756,29.5269268 29.6089756,28.9611707 C29.6089756,28.3954146 29.1503415,27.9367805 28.5845854,27.9367805 L23.7669268,27.9367805 C24.6579512,26.3806829 25.2287805,24.6192195 25.3907317,22.742439 L28.5844878,22.742439 C29.1502439,22.742439 29.608878,22.2838049 29.608878,21.7180488 C29.608878,21.1522927 29.1502439,20.6936585 28.5844878,20.6936585 L25.4037073,20.6936585 C25.2651707,18.8210732 24.7188293,17.0602927 23.8538537,15.4994146 L28.5843902,15.4994146 C29.1501463,15.4994146 29.6087805,15.0407805 29.6087805,14.4750244 C29.6087805,13.9092683 29.1501463,13.4506341 28.5843902,13.4506341 L22.4405854,13.4506341 C20.107122,10.6874146 16.619122,8.92897561 12.7276098,8.92897561 C12.2393171,8.92897561 11.7576585,8.95765854 11.2835122,9.0115122 L11.2835122,8.04887805 L41.0265366,8.04887805 L41.0265366,38.914439 L36.9280976,38.914439 C35.3242927,38.914439 34.0197073,40.2192195 34.0197073,41.8228293 L34.0197073,45.9214634 L12.1435122,45.9214634 C11.6694634,45.9214634 11.2835122,45.5359024 11.2835122,45.0618537 Z M36.0687805,44.4726829 L36.0687805,41.8229268 C36.0687805,41.348878 36.454439,40.9633171 36.9283902,40.9633171 L39.5781463,40.9633171 L36.0687805,44.4726829 Z"
						  id="Shape"></path>
					<path d="M32.6093659,15.4994146 L36.0113171,15.4994146 C36.5770732,15.4994146 37.0357073,15.0407805 37.0357073,14.4750244 C37.0357073,13.9092683 36.5770732,13.4506341 36.0113171,13.4506341 L32.6093659,13.4506341 C32.0436098,13.4506341 31.5849756,13.9092683 31.5849756,14.4750244 C31.5849756,15.0407805 32.0436098,15.4994146 32.6093659,15.4994146 Z"
						  id="Path"></path>
					<path d="M32.6093659,22.742439 L36.0113171,22.742439 C36.5770732,22.742439 37.0357073,22.2838049 37.0357073,21.7180488 C37.0357073,21.1522927 36.5770732,20.6936585 36.0113171,20.6936585 L32.6093659,20.6936585 C32.0436098,20.6936585 31.5849756,21.1522927 31.5849756,21.7180488 C31.5849756,22.2838049 32.0436098,22.742439 32.6093659,22.742439 Z"
						  id="Path"></path>
					<path d="M32.6093659,29.985561 L36.0113171,29.985561 C36.5770732,29.985561 37.0357073,29.5269268 37.0357073,28.9611707 C37.0357073,28.3954146 36.5770732,27.9367805 36.0113171,27.9367805 L32.6093659,27.9367805 C32.0436098,27.9367805 31.5849756,28.3954146 31.5849756,28.9611707 C31.5849756,29.5269268 32.0436098,29.985561 32.6093659,29.985561 Z"
						  id="Path"></path>
					<path d="M36.0113171,37.2285854 C36.5770732,37.2285854 37.0357073,36.7699512 37.0357073,36.2041951 C37.0357073,35.638439 36.5770732,35.1798049 36.0113171,35.1798049 L26.4283902,35.1798049 C25.8626341,35.1798049 25.404,35.638439 25.404,36.2041951 C25.404,36.7699512 25.8626341,37.2285854 26.4283902,37.2285854 L36.0113171,37.2285854 Z"
						  id="Path"></path>
				</g>
				<polyline id="Path-2" stroke="#D80000" stroke-width="2" stroke-linecap="round"
						  points="5.76 21.5235246 10.2929159 25.92 18.24 16.32"></polyline>
			</g>
		</g>
	</g>
</svg>
