<?xml version="1.0" encoding="UTF-8"?>
<svg width="512px" height="491px" viewBox="0 0 512 491" version="1.1" xmlns="http://www.w3.org/2000/svg"
	 xmlns:xlink="http://www.w3.org/1999/xlink">
	<title>paper-plane</title>
	<g id="Page-1" stroke="none" stroke-width="1" fill="none" fill-rule="evenodd">
		<g id="paper-plane" fill="#535455" fill-rule="nonzero">
			<path d="M186.666667,375.722667 L186.666667,474.666667 C186.666667,481.578667 191.104,487.701333 197.674667,489.877333 C199.317333,490.410667 201.002667,490.666667 202.666667,490.666667 C207.658667,490.666667 212.48,488.32 215.552,484.138667 L273.429333,405.376 L186.666667,375.722667 Z"
				  id="Path"></path>
			<path d="M505.28,2.96533333 C500.373333,-0.512 493.930667,-0.981333333 488.597333,1.81333333 L8.59733333,252.48 C2.92266667,255.445333 -0.426666667,261.504 0.0426666667,267.882667 C0.533333333,274.282667 4.77866667,279.744 10.816,281.813333 L144.256,327.424 L428.437333,84.4373333 L208.533333,349.376 L432.170667,425.813333 C433.834667,426.368 435.584,426.666667 437.333333,426.666667 C440.234667,426.666667 443.114667,425.877333 445.653333,424.341333 C449.706667,421.866667 452.458667,417.706667 453.162667,413.034667 L511.829333,18.368 C512.704,12.3946667 510.186667,6.464 505.28,2.96533333 Z"
				  id="Path"></path>
		</g>
	</g>
</svg>
