<?xml version="1.0" encoding="UTF-8"?>
<svg width="48px" height="48px" viewBox="0 0 48 48" version="1.1" xmlns="http://www.w3.org/2000/svg"
	 xmlns:xlink="http://www.w3.org/1999/xlink">
	<title>pay</title>
	<g id="Page-1" stroke="none" stroke-width="1" fill="none" fill-rule="evenodd">
		<g id="Passenger-App" transform="translate(-930.000000, -1329.000000)" fill="#D80000" fill-rule="nonzero">
			<g id="pay" transform="translate(930.000000, 1329.000000)">
				<path d="M43.1243438,37.0295625 C43.1206875,37.0201875 43.1169375,37.0109063 43.113,37.0017188 C42.250125,34.982625 40.2264375,34.236375 37.8315,35.0543438 L31.300125,36.8605313 C30.9225,35.7169688 29.9805938,34.7438438 28.6487813,34.2495938 C28.6405313,34.2465938 28.6322813,34.2435938 28.6239375,34.2407813 L21.4444688,31.8040313 C20.8469063,31.031625 18.9750938,29.0551875 15.4704375,29.0551875 C13.0212188,29.0551875 10.8545625,30.735375 9.615,32.5667812 L0.9375,32.5667812 C0.41971875,32.5667812 0,32.9865 0,33.5042812 L0,45.324 C0,45.8417813 0.41971875,46.2615 0.9375,46.2615 L6.51159375,46.2615 C7.029375,46.2615 7.44909375,45.8417813 7.44909375,45.324 L7.44909375,44.5145625 L10.063125,44.5145625 C10.5809062,44.5145625 11.000625,44.0948438 11.000625,43.5770625 L11.000625,43.30725 C12.5244375,43.4401875 13.025625,43.7292188 14.425125,44.5362188 C15.501375,45.1568438 17.1280313,46.0948125 20.0573438,47.4119063 C20.0709375,47.418 20.0847188,47.4238125 20.0985,47.42925 C20.6607188,47.6504062 21.75975,47.9978438 23.1147188,47.9978438 C24.0578438,47.9978438 25.1251875,47.829375 26.22075,47.3327812 L40.6574063,42.1637812 C40.6830938,42.1545937 40.7084063,42.1442812 40.7331563,42.1328437 C42.112875,41.4980625 44.1689063,39.7090313 43.1243438,37.0295625 Z M5.57409375,44.3864063 L1.875,44.3864063 L1.875,34.4416875 L5.57409375,34.4416875 L5.57409375,44.3864063 Z M9.125625,42.6394688 L7.44909375,42.6394688 L7.44909375,34.4416875 L9.125625,34.4416875 L9.125625,42.6394688 Z M39.984,40.4131875 L25.5538125,45.5798438 C25.5411563,45.5843438 25.524,45.5910938 25.5115312,45.5961563 C25.498875,45.6013125 25.4862187,45.60675 25.47375,45.6124688 C23.4640312,46.5360938 21.5536875,45.9831563 20.805,45.6920625 C17.9754375,44.4188438 16.4652187,43.548 15.3617812,42.9117188 C13.8276562,42.0270938 13.0884375,41.6007188 11.000625,41.4283125 L11.000625,33.8775 C11.8892812,32.421 13.6125937,30.9300938 15.4705312,30.9300938 C18.6567187,30.9300938 20.0068125,33.0024375 20.059875,33.0860625 C20.1743437,33.27225 20.3503125,33.4125938 20.5572187,33.4828125 L28.008,36.011625 C29.1979687,36.45825 29.8268437,37.4773125 29.5378125,38.4935625 C29.4044062,38.962875 29.0961562,39.352125 28.6699687,39.5895938 C28.2474375,39.825 27.759,39.8832188 27.2934375,39.7544063 L18.8940937,37.0926563 C18.4002187,36.9361875 17.8735312,37.2095625 17.7171562,37.7031563 C17.5606875,38.19675 17.8340625,38.723625 18.3276562,38.8800938 L26.741625,41.5464375 C26.7505312,41.54925 26.7594375,41.5519688 26.7684375,41.5545 C27.1043437,41.6500312 27.4463437,41.6972813 27.7862812,41.6972813 C28.4085937,41.6972813 29.0240625,41.53875 29.582625,41.2275 C30.4463437,40.7462813 31.0709062,39.9574687 31.3412812,39.006375 C31.3628437,38.9304375 31.3819687,38.8545 31.3985625,38.7785625 L38.4375937,36.8285625 C39.4542187,36.4813125 40.78875,36.3561562 41.3829375,37.724625 C41.9979375,39.3312188 40.3995,40.215 39.984,40.4131875 Z"
					  id="Shape"></path>
				<path d="M47.0625,3.17728125 L41.4884062,3.17728125 C40.970625,3.17728125 40.5509062,3.597 40.5509062,4.11478125 L40.5509062,4.92421875 L37.936875,4.92421875 C37.4190938,4.92421875 36.999375,5.3439375 36.999375,5.86171875 L36.999375,6.13153125 C35.4755625,5.9985 34.974375,5.7095625 33.5749688,4.9025625 C32.4987187,4.2819375 30.8720625,3.34396875 27.9426563,2.026875 C27.9290625,2.0206875 27.915375,2.01496875 27.9014063,2.00953125 C26.947875,1.63434375 24.4487812,0.89615625 21.779625,2.1058125 L18.007125,3.4565625 L14.8272187,0.27675 C14.461125,-0.08934375 13.8675,-0.08934375 13.5014062,0.27675 L3.06159375,10.7164687 C2.72390625,11.05425 2.659125,11.6399062 3.06159375,12.042375 L20.901,29.8817812 C21.1864687,30.1673438 21.8549062,30.2536875 22.2269062,29.8817812 L31.758,20.3507813 C32.0057812,20.3721563 32.2629375,20.3836875 32.5294687,20.3836875 C34.9787812,20.3836875 37.1453437,18.7035 38.3848125,16.8721875 L47.0625,16.8721875 C47.5802812,16.8721875 48,16.4524688 48,15.9346875 L48,4.11478125 C48,3.597 47.5802812,3.17728125 47.0625,3.17728125 Z M14.1642187,2.26546875 L16.3009687,4.40221875 C15.6658125,4.79503125 14.9314687,5.00521875 14.1642187,5.00521875 C13.396875,5.00521875 12.662625,4.795125 12.0274687,4.40221875 L14.1642187,2.26546875 Z M7.18715625,13.5162188 L5.05040625,11.379375 L7.18715625,9.242625 C7.57996875,9.87778125 7.79015625,10.612125 7.79015625,11.379375 C7.79015625,12.146625 7.5800625,12.8809687 7.18715625,13.5162188 Z M21.564,27.8929687 L19.427625,25.7565937 C20.7319687,24.9516562 22.3958437,24.9516562 23.7002812,25.7565937 L21.564,27.8929687 Z M25.0510313,24.4060313 C22.9793438,22.9032188 20.1486562,22.9032188 18.0769687,24.4060313 L8.5378125,14.8667813 C9.26990625,13.8599063 9.66515625,12.6504375 9.66515625,11.379375 C9.66515625,10.1082188 9.27,8.89884375 8.5378125,7.89196875 L10.6769062,5.75296875 C11.6837812,6.4850625 12.8931562,6.8803125 14.1643125,6.8803125 C15.4354687,6.8803125 16.6448437,6.4850625 17.6517188,5.75296875 L19.6794375,7.7806875 C19.2419062,7.84528125 18.81525,7.98946875 18.417375,8.2111875 C17.745375,8.585625 17.218125,9.14634375 16.8898125,9.82471875 C15.8323125,10.0205625 14.8532812,10.5325313 14.0852812,11.3004375 C12.0016875,13.384125 12.0016875,16.7744063 14.085375,18.8580938 C15.127125,19.8998438 16.4955937,20.4208125 17.8641563,20.4208125 C19.232625,20.4208125 20.6011875,19.8999375 21.6430313,18.8580938 C22.3208437,18.1802813 22.7956875,17.3472188 23.0335312,16.4393438 L26.1989063,17.513625 C25.8425625,19.164375 26.2075313,20.901 27.192,22.2650625 L25.0510313,24.4060313 Z M19.3512187,15.1891875 C19.3594687,15.1921875 19.3677187,15.1951875 19.3760625,15.198 L21.2506875,15.8342813 C21.109125,16.4731875 20.7887812,17.060625 20.3172187,17.5322813 C18.9645937,18.8847188 16.7637187,18.8849063 15.4112812,17.5322813 C14.0586563,16.17975 14.0586563,13.9789688 15.4112812,12.6263438 C15.7375312,12.2999063 16.1225625,12.0448125 16.5420937,11.8718438 C16.7151562,13.3120313 17.752125,14.59575 19.3512187,15.1891875 Z M28.5428437,20.914125 C28.1809687,20.3244375 27.9762188,19.6514063 27.943875,18.9645 C28.3929375,19.2891563 28.94175,19.60725 29.59725,19.8597187 L28.5428437,20.914125 Z M36.9992812,15.5609063 C36.1107188,17.0175937 34.3874062,18.5085 32.5294687,18.5085 C32.1818437,18.5085 31.8560625,18.48375 31.5514687,18.4396875 C31.55025,18.4395 31.5490312,18.4393125 31.5478125,18.439125 C29.5231875,18.1450312 28.4340937,16.9943437 28.075125,16.5387188 C28.056,16.5105937 27.9745312,16.404 27.9624375,16.3862812 C27.8532187,16.1910938 27.6741562,16.0341562 27.4457812,15.956625 L19.9919062,13.4267812 C18.8024062,12.9803437 18.173625,11.96175 18.4618125,10.945875 C18.462,10.9452187 18.4621875,10.9445625 18.462375,10.9439062 C18.4626562,10.9431562 18.4628437,10.9423125 18.4630312,10.9415625 C18.597,10.47375 18.9046875,10.0857187 19.3299375,9.8488125 C19.752375,9.61340625 20.2407187,9.555 20.7064687,9.68409375 L29.1058125,12.34575 C29.5995,12.5024062 30.126375,12.2288437 30.28275,11.73525 C30.439125,11.2416562 30.1658437,10.7147812 29.67225,10.5583125 L22.9920937,8.4414375 L22.9337812,8.383125 C22.9332187,8.3825625 22.9326562,8.38190625 22.932,8.38134375 L19.4735625,4.92290625 L22.4461875,3.85846875 C22.4562187,3.8548125 22.4685937,3.85021875 22.4785312,3.8461875 C22.4810625,3.84515625 22.4859375,3.84328125 22.488375,3.84225 C22.501125,3.83709375 22.5136875,3.83165625 22.5261562,3.8259375 C24.5357812,2.9023125 26.4460312,3.45515625 27.1948125,3.74634375 C30.0244687,5.0195625 31.5347812,5.89040625 32.6382187,6.5266875 C34.1723437,7.41140625 34.9115625,7.8376875 36.9992812,8.01009375 L36.9992812,15.5609063 L36.9992812,15.5609063 Z M40.5509062,14.997 L38.874375,14.997 L38.874375,6.79921875 L40.5509062,6.79921875 L40.5509062,14.997 Z M46.125,14.997 L42.4259062,14.997 L42.4259062,5.05228125 L46.125,5.05228125 L46.125,14.997 Z"
					  id="Shape"></path>
			</g>
		</g>
	</g>
</svg>
