<?xml version="1.0" encoding="UTF-8"?>
<svg width="49px" height="48px" viewBox="0 0 49 48" version="1.1" xmlns="http://www.w3.org/2000/svg"
	 xmlns:xlink="http://www.w3.org/1999/xlink">
	<title>credit-card (2)</title>
	<g id="Page-1" stroke="none" stroke-width="1" fill="none" fill-rule="evenodd">
		<g id="Passenger-App" transform="translate(-615.000000, -1329.000000)" fill="#D80000" fill-rule="nonzero">
			<g id="Group-5-Copy-3" transform="translate(296.000000, 1329.000000)">
				<g id="credit-card-(2)" transform="translate(319.000000, 0.000000)">
					<path d="M27.7891846,14.2459717 C27.2717286,14.2459717 26.8520508,14.6660156 26.8520508,15.1834717 C26.8520508,15.7005615 27.2717286,16.1206055 27.7891846,16.1206055 C28.3066406,16.1206055 28.7263183,15.7005615 28.7263183,15.1834717 C28.7263183,14.6660156 28.3066406,14.2459717 27.7891846,14.2459717 L27.7891846,14.2459717 Z"
						  id="Path"></path>
					<path d="M22.1055908,32.5561523 C22.4714355,32.1895752 22.4714355,31.5963135 22.1055908,31.2297364 C21.7393799,30.8642578 21.1461182,30.8642578 20.7795411,31.2297364 C20.4140625,31.5963135 20.4140625,32.1895752 20.7795411,32.5561523 C21.1461182,32.9216308 21.7393799,32.9216308 22.1055908,32.5561523 Z"
						  id="Path"></path>
					<path d="M10.8424072,47.7227783 C11.2056885,48.0889893 11.7971192,48.0930176 12.1651612,47.7304687 L16.7091065,43.2539062 C17.4810791,42.4819336 17.7158203,41.3389893 17.3763427,40.3454589 L18.3537598,39.402832 C18.8800049,38.8945312 19.572876,38.6143799 20.3052979,38.6143799 L32.7648926,38.6143799 C34.9753417,38.6143799 37.0645752,37.7655029 38.6484375,36.2241211 C38.713623,36.1607666 38.1536865,36.8203125 47.1485596,26.0698242 C48.4826661,24.4914551 48.283081,22.1213379 46.7032471,20.7857666 C45.1333008,19.4626464 42.7814942,19.6527099 41.4437256,21.2039795 L35.913208,26.8883057 C35.2148437,26.0288086 34.1499023,25.493042 32.9992676,25.493042 L22.5479737,25.493042 C21.0607911,24.8708496 19.4827881,24.5559082 17.8546143,24.5559082 C13.3428955,24.5559082 9.40136719,26.6389161 7.28576662,30.5485839 C6.39477544,30.3797607 5.45507812,30.649292 4.77905269,31.3253174 L0.320434594,35.7971192 C-0.043579125,36.1622315 -0.0443115,36.7529297 0.31896975,37.1187744 L10.8424072,47.7227783 Z M17.854248,26.4301758 C19.2897949,26.4301758 20.6777344,26.7191162 21.9803467,27.2889404 C22.098999,27.3409424 22.2268067,27.3676758 22.3560791,27.3676758 L32.9992676,27.3676758 C34.0155029,27.3676758 34.8739013,28.1964112 34.8739013,29.2419433 C34.8739013,30.2757568 34.033081,31.1165771 32.9992676,31.1165771 L25.352417,31.1165771 C24.8349609,31.1165771 24.4152832,31.5362549 24.4152832,32.0537109 C24.4152832,32.5715333 24.8349609,32.9908447 25.352417,32.9908447 L32.9992676,32.9908447 C35.0665283,32.9908447 36.748169,31.3092041 36.748169,29.2419433 C36.748169,29.0771484 36.7364502,28.9138183 36.7152099,28.7519531 C42.0651855,23.2525635 42.8195801,22.4798584 42.8518067,22.4414062 C43.5197754,21.6529541 44.7055664,21.5529786 45.4943848,22.2180176 C46.2839355,22.8856201 46.3839112,24.0706787 45.7141114,24.8635254 L37.3077393,34.9130859 C36.0802002,36.0915527 34.4685058,36.7401123 32.7648926,36.7401123 L20.3052979,36.7401123 C19.0843506,36.7401123 17.9285888,37.2070312 17.0518799,38.0540771 L16.2553711,38.8227539 L8.91284175,31.4805908 C10.6289063,28.2612305 13.848999,26.4301758 17.854248,26.4301758 L17.854248,26.4301758 Z M6.10546875,32.6499023 C6.41455078,32.3408203 6.88916016,32.2851562 7.26599119,32.5180664 C7.40917969,32.6052246 15.4255371,40.6413574 15.4749756,40.7076416 C15.7492676,41.0771484 15.710083,41.6019287 15.3889161,41.9234619 L11.5151367,45.7397461 L2.30603025,36.4603271 L6.10546875,32.6499023 Z"
						  id="Shape"></path>
					<path d="M14.6678467,19.8695068 L37.1616211,19.8695068 C38.7121583,19.8695068 39.9733886,18.6082763 39.9733886,17.0577393 C39.9733886,14.6953125 39.9733886,4.51062009 39.9733886,2.81176762 C39.9733886,1.26123047 38.7121583,0 37.1616211,0 L14.6678467,0 C13.1173096,0 11.8560791,1.26123047 11.8560791,2.81176762 L11.8560791,17.0577393 C11.8560791,18.6082763 13.1173096,19.8695068 14.6678467,19.8695068 Z M38.0987549,7.49780269 L13.7307129,7.49780269 L13.7307129,5.62353516 L38.0987549,5.62353516 L38.0987549,7.49780269 Z M37.1616211,17.9952393 L14.6678467,17.9952393 C14.151123,17.9952393 13.7307129,17.5744629 13.7307129,17.0577393 L13.7307129,9.3724365 L38.0987549,9.3724365 L38.0987549,17.0577393 C38.0987549,17.5744629 37.6783447,17.9952393 37.1616211,17.9952393 Z M14.6678467,1.87463381 L37.1616211,1.87463381 C37.6783447,1.87463381 38.0987549,2.29504397 38.0987549,2.81176762 L38.0987549,3.74890134 L13.7307129,3.74890134 L13.7307129,2.81176762 C13.7307129,2.29504397 14.151123,1.87463381 14.6678467,1.87463381 Z"
						  id="Shape"></path>
					<path d="M35.2869873,14.2459717 L31.5380859,14.2459717 C31.0206299,14.2459717 30.6009521,14.6656494 30.6009521,15.1834717 C30.6009521,15.7009277 31.0206299,16.1206055 31.5380859,16.1206055 L35.2869873,16.1206055 C35.8048096,16.1206055 36.2244873,15.7009277 36.2244873,15.1834717 C36.2244873,14.6656494 35.8048096,14.2459717 35.2869873,14.2459717 L35.2869873,14.2459717 Z"
						  id="Path"></path>
				</g>
			</g>
		</g>
	</g>
</svg>
