<?xml version="1.0" encoding="UTF-8"?>
<svg width="49px" height="48px" viewBox="0 0 49 48" version="1.1" xmlns="http://www.w3.org/2000/svg"
	 xmlns:xlink="http://www.w3.org/1999/xlink">
	<title>hand (1)</title>
	<g id="Page-1" stroke="none" stroke-width="1" fill="none" fill-rule="evenodd">
		<g id="Dispatch-System" transform="translate(-928.000000, -1329.000000)" fill="#D80000" fill-rule="nonzero">
			<g id="hand-(1)" transform="translate(928.000000, 1329.000000)">
				<path d="M22.1055908,32.5561523 C22.4714355,32.1895752 22.4714355,31.5963135 22.1055908,31.2297364 C21.7393799,30.8642578 21.1461182,30.8642578 20.7795411,31.2297364 C20.4140625,31.5963135 20.4140625,32.1895752 20.7795411,32.5561523 C21.1461182,32.9216308 21.7393799,32.9216308 22.1055908,32.5561523 Z"
					  id="Path"></path>
				<path d="M17.6671143,10.3095703 C17.6671143,15.9942627 22.2919922,20.6195068 27.9766846,20.6195068 C33.661377,20.6195068 38.2862549,15.9942627 38.2862549,10.3095703 C38.2862549,4.62487791 33.661377,0 27.9766846,0 C22.2919922,0 17.6671143,4.62487791 17.6671143,10.3095703 Z M36.4119873,10.3095703 C36.4119873,14.9608154 32.6279297,18.744873 27.9766846,18.744873 C23.3254395,18.744873 19.5413818,14.9608154 19.5413818,10.3095703 C19.5413818,5.65869141 23.3254395,1.87463381 27.9766846,1.87463381 C32.6279297,1.87463381 36.4119873,5.65869141 36.4119873,10.3095703 Z"
					  id="Shape"></path>
				<path d="M30.974,15 L30.974,13.656 L27.432,13.656 L27.432,10.59 L29.7,10.59 L29.7,9.414 L27.432,9.414 L27.432,8.154 C27.432,7.93 27.467,7.71533333 27.537,7.51 C27.607,7.30466667 27.712,7.12266667 27.852,6.964 C27.992,6.80533333 28.1623333,6.677 28.363,6.579 C28.5636667,6.481 28.7946667,6.432 29.056,6.432 C29.3546667,6.432 29.6253333,6.48566667 29.868,6.593 C30.1106667,6.70033333 30.3346667,6.84733333 30.54,7.034 L30.54,7.034 L31.674,5.816 C31.3286667,5.508 30.9226667,5.28166667 30.456,5.137 C29.9893333,4.99233333 29.504,4.92 29,4.92 C28.4213333,4.92 27.9266667,5.01566667 27.516,5.207 C27.1053333,5.39833333 26.7693333,5.64566667 26.508,5.949 C26.2466667,6.25233333 26.0553333,6.586 25.934,6.95 C25.8126667,7.314 25.752,7.66866667 25.752,8.014 L25.752,8.014 L25.752,9.414 L24.324,9.414 L24.324,10.59 L25.752,10.59 L25.752,13.656 L24.324,13.656 L24.324,15 L30.974,15 Z"
					  id="£"></path>
				<path d="M10.8424072,47.7227783 C11.2056885,48.0889893 11.7971192,48.0930176 12.1651612,47.7304687 L16.7091065,43.2539062 C17.4810791,42.4819336 17.7158203,41.3389893 17.3763427,40.3454589 L18.3537598,39.402832 C18.8800049,38.8945312 19.572876,38.6143799 20.3052979,38.6143799 L32.7648926,38.6143799 C34.9753417,38.6143799 37.0645752,37.7655029 38.6484375,36.2241211 C38.713623,36.1607666 38.1536865,36.8203125 47.1485596,26.0698242 C48.4826661,24.4914551 48.283081,22.1213379 46.7032471,20.7857666 C45.1333008,19.4626464 42.7814942,19.6527099 41.4437256,21.2039795 L35.913208,26.8883057 C35.2148437,26.0288086 34.1499023,25.493042 32.9992676,25.493042 L22.5479737,25.493042 C21.0607911,24.8708496 19.4827881,24.5559082 17.8546143,24.5559082 C13.3414307,24.5559082 9.40063481,26.6403808 7.28576662,30.5485839 C6.39477544,30.3797607 5.45507812,30.649292 4.77905269,31.3253174 L0.320434594,35.7971192 C-0.043579125,36.1622315 -0.0443115,36.7529297 0.31896975,37.1191406 L10.8424072,47.7227783 Z M17.854248,26.4301758 C19.2897949,26.4301758 20.6777344,26.7191162 21.9803467,27.2889404 C22.098999,27.3409424 22.2268067,27.3676758 22.3560791,27.3676758 L32.9992676,27.3676758 C34.0155029,27.3676758 34.8739013,28.1964112 34.8739013,29.2419433 C34.8739013,30.2757568 34.033081,31.1165771 32.9992676,31.1165771 L25.352417,31.1165771 C24.8349609,31.1165771 24.4152832,31.5362549 24.4152832,32.0537109 C24.4152832,32.5715333 24.8349609,32.9908447 25.352417,32.9908447 L32.9992676,32.9908447 C35.0665283,32.9908447 36.748169,31.3092041 36.748169,29.2419433 C36.748169,29.0771484 36.7364502,28.9138183 36.7152099,28.7519531 C42.0651855,23.2525635 42.8195801,22.4798584 42.8518067,22.4414062 C43.5197754,21.6529541 44.7055664,21.5529786 45.4943848,22.2180176 C46.2839355,22.8856201 46.3839112,24.0706787 45.7141114,24.8635254 L37.3077393,34.9130859 C36.0802002,36.0915527 34.4685058,36.7401123 32.7648926,36.7401123 L20.3052979,36.7401123 C19.0843506,36.7401123 17.9285888,37.2070312 17.0518799,38.0540771 L16.2553711,38.8227539 L8.91284175,31.4805908 C10.6289063,28.2612305 13.848999,26.4301758 17.854248,26.4301758 L17.854248,26.4301758 Z M6.10546875,32.6499023 C6.41455078,32.3408203 6.88916016,32.2851562 7.26599119,32.5180664 C7.42822266,32.6169433 6.96240234,32.1928711 15.3837891,40.6025391 C15.7584229,40.9771729 15.7382812,41.5740967 15.3889161,41.9234619 L11.5151367,45.7397461 L2.30603025,36.4603271 L6.10546875,32.6499023 Z"
					  id="Shape"></path>
			</g>
		</g>
	</g>
</svg>
