<?xml version="1.0" encoding="UTF-8"?>
<svg width="39px" height="48px" viewBox="0 0 39 48" version="1.1" xmlns="http://www.w3.org/2000/svg"
	 xmlns:xlink="http://www.w3.org/1999/xlink">
	<title>Document</title>
	<g id="Page-1" stroke="none" stroke-width="1" fill="none" fill-rule="evenodd">
		<g id="Home-Drop" transform="translate(-927.000000, -3261.000000)" fill="#D80000">
			<g id="Group-11" transform="translate(-10.000000, 2723.000000)">
				<g id="Features" transform="translate(10.000000, 0.000000)">
					<g id="Group-5-Copy-5" transform="translate(925.000000, 538.000000)">
						<g id="Document" transform="translate(2.000000, 0.000000)">
							<path d="M26.1349693,8.73459906 L3.85276074,8.73459906 C1.76196319,8.73459906 0.362192815,10.0809816 0.362192815,12.1717791 L0.362192815,44.1423313 C0.362192815,46.2331288 1.76196319,47.6248673 3.85276074,47.6248673 L26.1349693,47.6248673 C28.2257669,47.6248673 29.6468095,46.2331288 29.6468095,44.1423313 L29.6468095,12.1717791 C29.6369936,10.0809816 28.2159509,8.73459906 26.1349693,8.73459906 Z M27.4640491,44.2827894 C27.4640491,44.9169179 26.9452961,45.4321472 26.3068309,45.4321472 L3.66126731,45.4321472 C3.02280208,45.4321472 2.50404908,44.9169179 2.50404908,44.2827894 L2.50404908,12.021505 C2.50404908,11.3873766 3.02280208,10.8721472 3.66126731,10.8721472 L26.3068309,10.8721472 C26.9452961,10.8721472 27.4640491,11.3873766 27.4640491,12.021505 L27.4640491,44.2827894 Z"
								  id="Shape" fill-rule="nonzero"></path>
							<rect id="Rectangle-Copy-5" x="7" y="19" width="16" height="1.92" rx="0.96"></rect>
							<rect id="Rectangle-Copy-6" x="7" y="24.92" width="16" height="1.92" rx="0.96"></rect>
							<rect id="Rectangle-Copy-7" x="7" y="30.84" width="16" height="1.92" rx="0.96"></rect>
							<rect id="Rectangle-Copy-17" x="7" y="36.76" width="16" height="1.92" rx="0.96"></rect>
							<path d="M34.6552147,0.414599039 L12.3730061,0.414599039 C10.2822086,0.414599039 8.89778415,1.69815951 8.89778415,3.78895706 C8.89778415,3.83349823 8.89401904,8.66145952 8.89778415,8.73459906 C8.95625032,9.87034229 9.15229802,9.44300354 9.84395316,9.44300354 C10.528945,9.44300354 11.1522573,9.56808876 11.2343558,8.38282209 C11.2404929,8.2942211 11.2343558,3.84016152 11.2343558,3.78895706 C11.2343558,3.1607362 11.7447853,2.65030675 12.3730061,2.65030675 L34.6552147,2.65030675 C35.2834356,2.65030675 35.793865,3.1607362 35.793865,3.78895706 L35.793865,35.7595092 C35.793865,36.3877301 35.2834356,36.8981595 34.6552147,36.8981595 C34.5501221,36.8981595 29.7506276,36.8754411 29.4813473,36.8981595 C27.8642619,37.0345881 28.4220859,37.5922092 28.4220859,38.2233129 C28.4220859,38.8981357 28.1442793,39.0213976 29.4813473,39.1085949 C29.6029504,39.1165253 34.5938412,39.1085949 34.6552147,39.1085949 C36.7460123,39.1085949 38.0202168,37.8503067 38.0202168,35.7595092 L38.0202168,3.78895706 C38.0202168,1.69815951 36.7460123,0.414599039 34.6552147,0.414599039 Z"
								  id="Path" fill-rule="nonzero"></path>
						</g>
					</g>
				</g>
			</g>
		</g>
	</g>
</svg>
