<?xml version="1.0" encoding="UTF-8"?>
<svg width="48px" height="48px" viewBox="0 0 48 48" version="1.1" xmlns="http://www.w3.org/2000/svg"
	 xmlns:xlink="http://www.w3.org/1999/xlink">
	<title>loupe</title>
	<g id="Page-1" stroke="none" stroke-width="1" fill="none" fill-rule="evenodd">
		<g id="Dispatch-System" transform="translate(-611.000000, -1079.000000)" fill="#D80000" fill-rule="nonzero">
			<g id="Group-5-Copy" transform="translate(359.000000, 903.000000)">
				<g id="loupe"
				   transform="translate(276.000000, 200.000000) scale(-1, 1) translate(-276.000000, -200.000000) translate(252.000000, 176.000000)">
					<path d="M40.3900313,8.11921875 C35.7811875,3.28828125 28.6982813,2.54671875 23.4587813,5.457375 C23.0060625,5.7088125 22.8430312,6.27975 23.0944688,6.732375 C23.3459062,7.1851875 23.9168438,7.34803125 24.3694688,7.0966875 C29.1617813,4.43409375 35.1915938,5.3870625 39.02925,9.40959375 C42.988875,13.610625 43.43475,19.87275 40.3714688,24.5153437 C36.1519688,30.9242812 27.038625,31.8900937 21.5745938,26.4250312 C17.89275,22.7445 16.8260625,16.8089062 19.4856563,11.9788125 C19.7352188,11.5250625 19.56975,10.954875 19.1160938,10.7053125 C18.6624375,10.4559375 18.0923438,10.6212187 17.8425937,11.074875 C17.785125,11.1794062 17.6829375,11.3742187 17.5844063,11.574 L17.5845,11.574 C14.8575,17.1328125 16.0981875,23.6022187 20.2486875,27.751125 C26.5438125,34.0475625 37.059,32.9570625 41.9372813,25.5473437 C45.43575,20.2449375 45.0065625,13.0171875 40.3900313,8.11921875 Z"
						  id="Path"></path>
					<path d="M42.7910625,5.2089375 C35.8450312,-1.73615625 24.5425312,-1.7364375 17.5962187,5.20903125 C11.3498437,11.4563437 10.677375,21.2510625 15.7641563,28.2580312 L12.84225,31.1792813 C11.8178437,30.6889687 10.5224062,30.8472188 9.64021875,31.7295 L1.37503125,39.995625 C-0.4575,41.8269375 -0.459,44.792625 1.3745625,46.6249687 C3.20634375,48.4579687 6.1719375,48.4587187 8.00409375,46.6251562 L16.2705,38.3597812 C17.1523125,37.4777812 17.311125,36.1823437 16.820625,35.1578437 L19.7421563,32.2356562 C26.7507188,37.3235625 36.5446875,36.6493125 42.7910625,30.4037812 C49.7364375,23.4575625 49.7364375,12.15525 42.7910625,5.2089375 Z M14.9444062,37.0337812 L6.6778125,45.2993437 C5.57915625,46.3988437 3.80071875,46.399875 2.7005625,45.298875 C1.600875,44.2000312 1.60021875,42.4215937 2.70075,41.3218125 L10.966125,33.0555 C11.3314687,32.6900625 11.9263125,32.689875 12.2916562,33.0555 L14.9443125,35.7081562 C15.3099375,36.0735937 15.3099375,36.6683437 14.9444062,37.0337812 Z M15.6074063,33.7190625 L14.2810313,32.3926875 L16.951125,29.72325 C17.1605625,29.9556563 17.3757188,30.1834688 17.596125,30.4037813 C17.8165313,30.6241875 18.04425,30.8394375 18.2768438,31.0489688 L15.6074063,33.7190625 Z M41.4649688,29.0777813 C35.2515,35.2903125 25.1866875,35.3431875 18.9220312,29.0777813 C12.664875,22.8212813 12.7020937,12.756 18.9220312,6.53503125 C25.136625,0.32128125 35.2493438,0.32025 41.464875,6.53503125 C47.6790937,12.7500938 47.6790937,22.8628125 41.4649688,29.0777813 Z"
						  id="Shape"></path>
					<path d="M21.5971875,7.885125 C21.590625,7.8766875 21.583125,7.8691875 21.5746875,7.86075 C21.2080312,7.49503125 20.6145,7.49503125 20.2479375,7.86075 C19.8822187,8.22740625 19.8822187,8.8209375 20.2479375,9.1875 C20.256375,9.1959375 20.263875,9.2034375 20.2723125,9.2109375 C20.6408437,9.55321875 21.2165625,9.54478125 21.5746875,9.1875 C21.931875,8.82928125 21.9403125,8.2535625 21.5971875,7.885125 Z"
						  id="Path"></path>
				</g>
			</g>
		</g>
	</g>
</svg>
