<?xml version="1.0" encoding="UTF-8"?>
<svg width="513px" height="512px" viewBox="0 0 513 512" version="1.1" xmlns="http://www.w3.org/2000/svg"
	 xmlns:xlink="http://www.w3.org/1999/xlink">
	<title>share (2)</title>
	<g id="Page-1" stroke="none" stroke-width="1" fill="none" fill-rule="evenodd">
		<g id="share-(2)" fill="#D80000" fill-rule="nonzero">
			<path d="M512.453125,260.023438 L512.453125,432.007812 C512.453125,476.113281 476.570312,512 432.460938,512 L80.492188,512 C36.386719,512 0.5,476.113281 0.5,432.007812 L0.5,80.039062 C0.5,35.929688 36.386719,0.0429688 80.492188,0.0429688 L309.472656,0.0429688 C320.519531,0.0429688 329.472656,9 329.472656,20.0429688 C329.472656,31.089844 320.519531,40.0429688 309.472656,40.0429688 L80.492188,40.0429688 C58.4375,40.0429688 40.496094,57.984375 40.496094,80.039062 L40.496094,432.007812 C40.496094,454.0625 58.4375,472.003906 80.492188,472.003906 L432.460938,472.003906 C454.515625,472.003906 472.457031,454.0625 472.457031,432.007812 L472.457031,260.023438 C472.457031,248.976562 481.410156,240.023438 492.457031,240.023438 C503.5,240.023438 512.453125,248.976562 512.453125,260.023438 Z M466.566406,113.878906 C470.367188,117.65625 472.460938,122.667969 472.460938,127.988281 C472.460938,133.3125 470.367188,138.320312 466.566406,142.097656 L386.367188,221.792969 C378.535156,229.578125 378.496094,242.242188 386.28125,250.074219 C390.1875,254.007812 395.328125,255.976562 400.464844,255.976562 C405.5625,255.976562 410.660156,254.039062 414.5625,250.164062 L494.761719,170.46875 C506.171875,159.125 512.457031,144.042969 512.457031,127.988281 C512.457031,111.933594 506.171875,96.847656 494.761719,85.507812 L414.5625,5.8125 C406.730469,-1.972656 394.066406,-1.933594 386.28125,5.902344 C378.496094,13.738281 378.535156,26.398438 386.367188,34.183594 L466.566406,113.878906 Z M423.460938,127.035156 C423.460938,115.988281 414.507812,107.035156 403.464844,107.035156 C331.351562,107.035156 263.554688,135.117188 212.5625,186.109375 C161.570312,237.101562 133.488281,304.898438 133.488281,377.011719 L133.488281,392.011719 C133.488281,403.054688 142.441406,412.007812 153.488281,412.007812 C164.53125,412.007812 173.484375,403.054688 173.484375,392.011719 L173.484375,377.011719 C173.484375,250.199219 276.652344,147.03125 403.464844,147.03125 C414.507812,147.03125 423.460938,138.078125 423.460938,127.035156 Z"
				  id="Shape"></path>
		</g>
	</g>
</svg>
