<?xml version="1.0" encoding="UTF-8"?>
<svg width="48px" height="48px" viewBox="0 0 48 48" version="1.1" xmlns="http://www.w3.org/2000/svg"
	 xmlns:xlink="http://www.w3.org/1999/xlink">
	<title>implementation</title>
	<g id="Page-1" stroke="none" stroke-width="1" fill="none" fill-rule="evenodd">
		<g id="Customer" transform="translate(-609.000000, -1081.000000)" fill="#D80000" fill-rule="nonzero">
			<g id="implementation" transform="translate(609.000000, 1081.000000)">
				<path d="M21.357106,32.400499 L21.662869,34.5416383 C21.7192651,34.9347696 22.0560666,35.2266112 22.4532225,35.2266112 L25.6465696,35.2266112 C26.0437255,35.2266112 26.380527,34.9347696 26.4369231,34.5416383 L26.7426861,32.400499 C27.1928976,32.2557959 27.6305154,32.0745009 28.0511601,31.8584283 L29.7811559,33.1557256 C30.0988444,33.393562 30.5430026,33.3619336 30.8237838,33.0814802 L33.0814802,30.8237838 C33.3619336,30.5430026 33.393562,30.0988444 33.1557256,29.7811559 L31.8584283,28.0511601 C32.0745009,27.6305154 32.2557959,27.1928976 32.400499,26.7426861 L34.5416383,26.4369231 C34.9347696,26.380527 35.2266112,26.0437255 35.2266112,25.6465696 L35.2266112,22.4532225 C35.2266112,22.0560666 34.9347696,21.7192651 34.5416383,21.662869 L32.400499,21.357106 C32.2557959,20.9068945 32.0745009,20.4692767 31.8584283,20.048632 L33.1557256,18.3186362 C33.393562,18.0009477 33.3619336,17.5567895 33.0814802,17.2760083 L30.8237838,15.0183119 C30.5439276,14.7358378 30.0982151,14.7040987 29.7811559,14.9440665 L28.0511601,16.2413638 C27.6305154,16.0252912 27.1928976,15.8439962 26.7426861,15.6992931 L26.4369231,13.5581538 C26.380527,13.1650225 26.0437255,12.8731809 25.6465696,12.8731809 L22.4532225,12.8731809 C22.0560666,12.8731809 21.7192651,13.1650225 21.662869,13.5581538 L21.357106,15.6992931 C20.9068945,15.8439962 20.4692767,16.0252912 20.048632,16.2413638 L18.3186362,14.9440665 C18.0017907,14.7033793 17.555551,14.7351559 17.2760083,15.0183119 L15.0183119,17.2760083 C14.7378585,17.5567895 14.7062301,18.0009477 14.9440665,18.3186362 L16.2413638,20.048632 C16.0252912,20.4692767 15.8439962,20.9068945 15.6992931,21.357106 L13.5581538,21.662869 C13.1650225,21.7192651 12.8731809,22.0560666 12.8731809,22.4532225 L12.8731809,25.6465696 C12.8731809,26.0437255 13.1650225,26.380527 13.5581538,26.4369231 L15.6992931,26.7426861 C15.8439962,27.1928976 16.0252912,27.6305154 16.2413638,28.0511601 L14.9440665,29.7811559 C14.7062301,30.0988444 14.7378585,30.5430026 15.0183119,30.8237838 L17.2760083,33.0814802 C17.5567895,33.3619336 18.0009477,33.393562 18.3186362,33.1557256 L20.048632,31.8584283 C20.4692767,32.0745009 20.9068945,32.2557959 21.357106,32.400499 L21.357106,32.400499 Z M19.5041663,30.2721331 L17.9146778,31.4632516 L16.6373389,30.1859127 L17.8284574,28.5964241 C18.0225063,28.3381061 18.0417301,27.9882964 17.8771559,27.7102703 C17.5282102,27.1240085 17.2655218,26.4905448 17.0971809,25.8293888 C17.0176964,25.5159681 16.7570075,25.2814427 16.4369563,25.2354262 L14.4698545,24.9544116 L14.4698545,23.1453805 L16.436158,22.8651642 C16.7562092,22.8191477 17.0168981,22.5846223 17.0963825,22.2712017 C17.2647234,21.6100456 17.5274119,20.9765819 17.8763576,20.3903202 C18.0409318,20.112294 18.021708,19.7624844 17.827659,19.5041663 L16.6365405,17.9146778 L17.9138794,16.6373389 L19.503368,17.8284574 C19.761686,18.0225063 20.1114957,18.0417301 20.3895218,17.8771559 C20.9757836,17.5282102 21.6092473,17.2655218 22.2704033,17.0971809 C22.583824,17.0176964 22.8183494,16.7570075 22.8643659,16.4369563 L23.1453805,14.4698545 L24.9544116,14.4698545 L25.2346279,16.436158 C25.2806444,16.7562092 25.5151698,17.0168981 25.8285904,17.0963825 C26.4897465,17.2647234 27.1232102,17.5274119 27.7094719,17.8763576 C27.9874981,18.0409318 28.3373077,18.021708 28.5956258,17.827659 L30.1851143,16.6365405 L31.4624532,17.9138794 L30.2713347,19.503368 C30.0772858,19.761686 30.058062,20.1114957 30.2226362,20.3895218 C30.5715819,20.9757836 30.8342703,21.6092473 31.0026112,22.2704033 C31.0820957,22.583824 31.3427846,22.8183494 31.6628358,22.8643659 L33.6299376,23.1453805 L33.6299376,24.9544116 L31.6636341,25.2346279 C31.3435829,25.2806444 31.082894,25.5151698 31.0034096,25.8285904 C30.8350687,26.4897465 30.5723802,27.1232102 30.2234345,27.7094719 C30.0588603,27.9874981 30.0780841,28.3373077 30.2721331,28.5956258 L31.4632516,30.1851143 L30.1859127,31.4624532 L28.5964241,30.2713347 C28.3381061,30.0772858 27.9882964,30.058062 27.7102703,30.2226362 C27.1240085,30.5715819 26.4905448,30.8342703 25.8293888,31.0026112 C25.5159681,31.0820957 25.2814427,31.3427846 25.2354262,31.6628358 L24.9544116,33.6299376 L23.1453805,33.6299376 L22.8651642,31.6636341 C22.8191477,31.3435829 22.5846223,31.082894 22.2712017,31.0034096 C21.6100456,30.8350687 20.9765819,30.5723802 20.3903202,30.2234345 C20.112294,30.0588603 19.7624844,30.0780841 19.5041663,30.2721331 L19.5041663,30.2721331 Z"
					  id="Shape"></path>
				<path d="M24.049896,28.8399168 C26.6953515,28.8399168 28.8399168,26.6953515 28.8399168,24.049896 C28.8399168,21.4044406 26.6953515,19.2598753 24.049896,19.2598753 C21.4044406,19.2598753 19.2598753,21.4044406 19.2598753,24.049896 C19.2625157,26.694257 21.4055351,28.8372764 24.049896,28.8399168 L24.049896,28.8399168 Z M24.049896,20.8565489 C25.813533,20.8565489 27.2432432,22.2862591 27.2432432,24.049896 C27.2432432,25.813533 25.813533,27.2432432 24.049896,27.2432432 C22.2862591,27.2432432 20.8565489,25.813533 20.8565489,24.049896 C20.8565489,22.2862591 22.2862591,20.8565489 24.049896,20.8565489 Z"
					  id="Shape"></path>
				<path d="M24.049896,4.09147609 C24.4908053,4.09147609 24.8482328,3.73404853 24.8482328,3.29313929 L24.8482328,2.60257796 L27.5929148,4.88981289 L24.8482328,7.17704782 L24.8482328,6.48648649 C24.8482328,6.04557725 24.4908053,5.68814969 24.049896,5.68814969 C16.8161172,5.69553274 10.2580009,9.9412984 7.29041164,16.5383451 L8.74657796,17.1913846 C11.3392304,11.4314521 16.9425542,7.61160685 23.2515593,7.30318503 L23.2515593,8.88149688 C23.2511065,9.19162959 23.4303059,9.4739604 23.711133,9.60556068 C23.9919601,9.73716095 24.3235904,9.69421349 24.5616299,9.49541788 L29.3516507,5.50373389 C29.5341116,5.35205915 29.6396517,5.12708317 29.6396517,4.88981289 C29.6396517,4.65254261 29.5341116,4.42756663 29.3516507,4.27589189 L24.5616299,0.2842079 C24.3235904,0.0854122931 23.9919601,0.042464825 23.711133,0.1740651 C23.4303059,0.305665375 23.2511065,0.587996192 23.2515593,0.898128898 L23.2515593,2.50997089 C14.5286314,2.85563953 6.86685523,8.40672053 3.82083992,16.587842 L5.31931809,17.1418877 C8.2323365,9.31285171 15.6965105,4.11223573 24.049896,4.09147609 L24.049896,4.09147609 Z"
					  id="Path"></path>
				<path d="M24.049896,44.008316 C23.6089868,44.008316 23.2515593,44.3657436 23.2515593,44.8066528 L23.2515593,45.4972141 L20.5068773,43.2099792 L23.2515593,40.9227443 L23.2515593,41.6133056 C23.2515593,42.0542149 23.6089868,42.4116424 24.049896,42.4116424 C31.2836749,42.4042594 37.8417912,38.1584937 40.8093805,31.561447 L39.3532141,30.9084075 C36.7605617,36.66834 31.1572379,40.4881853 24.8482328,40.7966071 L24.8482328,39.2182952 C24.8486856,38.9081625 24.6694862,38.6258317 24.3886591,38.4942314 C24.107832,38.3626311 23.7762017,38.4055786 23.5381622,38.6043742 L18.7481414,42.5960582 C18.5656805,42.7477329 18.4601404,42.9727089 18.4601404,43.2099792 C18.4601404,43.4472495 18.5656805,43.6722255 18.7481414,43.8239002 L23.5381622,47.8155842 C23.6821301,47.9346497 23.8630717,48.0000004 24.049896,48.0000004 C24.1669547,48.0000004 24.2825765,47.9742186 24.3883909,47.924158 C24.6688086,47.7928761 24.8480278,47.5112904 24.8482328,47.2016632 L24.8482328,45.5898212 C33.5711607,45.2441526 41.2329369,39.6930716 44.2789522,31.5119501 L42.780474,30.9579044 C39.8674556,38.7869404 32.4032816,43.9875564 24.049896,44.008316 Z"
					  id="Path"></path>
				<path d="M47.924158,23.7114012 C47.7928761,23.4309835 47.5112904,23.2517643 47.2016632,23.2515593 L45.5898212,23.2515593 C45.2430984,14.5293685 39.6922806,6.8685852 31.5119501,3.82243659 L30.9579044,5.32091476 C38.7863944,8.23372811 43.9868916,15.6970954 44.008316,24.049896 C44.008316,24.4908053 44.3657436,24.8482328 44.8066528,24.8482328 L45.4972141,24.8482328 L43.2099792,27.5929148 L40.9227443,24.8482328 L41.6133056,24.8482328 C42.0542149,24.8482328 42.4116424,24.4908053 42.4116424,24.049896 C42.4037602,16.815118 38.1588968,10.2557264 31.5622453,7.28482328 L30.9076091,8.7409896 C36.668233,11.3359267 40.4880996,16.9409881 40.7966071,23.2515593 L39.2182952,23.2515593 C38.9081625,23.2511065 38.6258317,23.4303059 38.4942314,23.711133 C38.3626311,23.9919601 38.4055786,24.3235904 38.6043742,24.5616299 L42.5960582,29.3516507 C42.7477329,29.5341116 42.9727089,29.6396517 43.2099792,29.6396517 C43.4472495,29.6396517 43.6722255,29.5341116 43.8239002,29.3516507 L47.8155842,24.5616299 C48.0137467,24.3233229 48.0560744,23.9918592 47.924158,23.7114012 Z"
					  id="Path"></path>
				<path d="M5.68814969,24.049896 C5.67188177,30.9560714 9.54522626,37.2831001 15.7032848,40.4094137 L16.4297713,38.9875759 C11.0625841,36.2627028 7.57612455,30.8613132 7.30318503,24.8482328 L8.88149688,24.8482328 C9.19162959,24.8486856 9.4739604,24.6694862 9.60556068,24.3886591 C9.73716095,24.107832 9.69421349,23.7762017 9.49541788,23.5381622 L5.50373389,18.7481414 C5.34678331,18.5746559 5.12375877,18.4756745 4.88981289,18.4756745 C4.65586701,18.4756745 4.43284247,18.5746559 4.27589189,18.7481414 L0.2842079,23.5381622 C0.0854122931,23.7762017 0.042464825,24.107832 0.1740651,24.3886591 C0.305665375,24.6694862 0.587996192,24.8486856 0.898128898,24.8482328 L2.50997089,24.8482328 C2.80677819,33.2614794 7.98600311,40.7276753 15.7623617,43.9524324 L16.3770811,42.4787027 C8.92849242,39.3896365 4.07791878,32.1136185 4.09147609,24.049896 C4.09147609,23.6089868 3.73404853,23.2515593 3.29313929,23.2515593 L2.60257796,23.2515593 L4.88981289,20.5068773 L7.17704782,23.2515593 L6.48648649,23.2515593 C6.04557725,23.2515593 5.68814969,23.6089868 5.68814969,24.049896 Z"
					  id="Path"></path>
			</g>
		</g>
	</g>
</svg>
