<?xml version="1.0" encoding="UTF-8"?>
<svg width="57px" height="48px" viewBox="0 0 57 48" version="1.1" xmlns="http://www.w3.org/2000/svg"
	 xmlns:xlink="http://www.w3.org/1999/xlink">
	<title>status 2</title>
	<g id="Page-1" stroke="none" stroke-width="1" fill="none" fill-rule="evenodd">
		<g id="Passenger-App" transform="translate(-296.000000, -1329.000000)" fill-rule="nonzero">
			<g id="status" transform="translate(296.000000, 1329.000000)">
				<path d="M53.6548721,18.1364459 L3.31561967,18.1364459 C1.92503607,18.1364459 0.797901639,19.2635803 0.797901639,20.6541639 L0.797901639,27.3480393 C0.797901639,28.738623 1.92503607,29.8660721 3.31561967,29.8660721 L53.6545574,29.8660721 C55.045141,29.8660721 56.1722755,28.7389377 56.1722755,27.3483541 L56.1722755,20.6541639 C56.1722755,19.2635803 55.045141,18.1364459 53.6548721,18.1364459 Z"
					  id="Path" stroke="#D80000"></path>
				<path d="M53.6548721,35.4784525 L3.31561967,35.4784525 C1.92503607,35.4784525 0.797901639,36.6055869 0.797901639,37.9961705 L0.797901639,44.6900459 C0.797901639,46.0806295 1.92503607,47.2080787 3.31561967,47.2080787 L53.6545574,47.2080787 C55.045141,47.2080787 56.1722755,46.0809443 56.1722755,44.6903607 L56.1722755,37.9961705 C56.1722755,36.6059016 55.045141,35.4784525 53.6548721,35.4784525 Z"
					  id="Path" stroke="#D80000"></path>
				<path d="M53.6548721,30.6526426 L3.31593443,30.6526426 C1.4935082,30.6526426 0.0110163934,29.1701508 0.0110163934,27.3480393 L0.0110163934,20.6538492 C0.0110163934,18.8317377 1.4935082,17.3495607 3.31561967,17.3495607 L53.6545574,17.3495607 C55.4769836,17.3495607 56.9594754,18.8317377 56.9594754,20.6538492 L56.9594754,27.3483541 C56.9594754,29.1704656 55.4769836,30.6526426 53.6548721,30.6526426 Z M3.31561967,18.9233311 C2.36128525,18.9233311 1.58478689,19.6998295 1.58478689,20.6538492 L1.58478689,27.3480393 C1.58478689,28.3023738 2.36128525,29.0788721 3.31593443,29.0788721 L53.6548721,29.0788721 C54.6092066,29.0788721 55.3857049,28.3023738 55.3857049,27.3483541 L55.3857049,20.6538492 C55.3857049,19.6998295 54.6092066,18.9233311 53.6545574,18.9233311 L3.31561967,18.9233311 Z"
					  id="Shape" fill="#D80000"></path>
				<path d="M53.6548721,13.303082 L3.31593443,13.303082 C1.4935082,13.303082 0.0110163934,11.8205902 0.0110163934,9.99847869 L0.0110163934,3.30428852 C0.0110163934,1.48217705 1.4935082,5.36750972e-14 3.31561967,5.36750972e-14 L53.6545574,5.36750972e-14 C55.4769836,5.36750972e-14 56.9594754,1.48217705 56.9594754,3.30428852 L56.9594754,9.99879344 C56.9594754,11.8209049 55.4769836,13.303082 53.6548721,13.303082 Z M3.31561967,1.57377049 C2.36128525,1.57377049 1.58478689,2.35026885 1.58478689,3.30428852 L1.58478689,9.99847869 C1.58478689,10.9528131 2.36128525,11.7293115 3.31593443,11.7293115 L53.6548721,11.7293115 C54.6092066,11.7293115 55.3857049,10.9528131 55.3857049,9.99879344 L55.3857049,3.30428852 C55.3857049,2.35026885 54.6092066,1.57377049 53.6545574,1.57377049 L3.31561967,1.57377049 Z"
					  id="Shape-Copy" fill="#D80000"></path>
				<path d="M36.2241049,23.2197246 L18.9730623,23.2197246 C18.5383869,23.2197246 18.186177,22.8675148 18.186177,22.4328393 C18.186177,21.9981639 18.5383869,21.6459541 18.9730623,21.6459541 L36.2241049,21.6459541 C36.6587803,21.6459541 37.0109902,21.9981639 37.0109902,22.4328393 C37.0109902,22.8675148 36.6587803,23.2197246 36.2241049,23.2197246 Z"
					  id="Path" fill="#D80000"></path>
				<path d="M36.2241049,5.87016393 L18.9730623,5.87016393 C18.5383869,5.87016393 18.186177,5.5179541 18.186177,5.08327869 C18.186177,4.64860328 18.5383869,4.29639344 18.9730623,4.29639344 L36.2241049,4.29639344 C36.6587803,4.29639344 37.0109902,4.64860328 37.0109902,5.08327869 C37.0109902,5.5179541 36.6587803,5.87016393 36.2241049,5.87016393 Z"
					  id="Path-Copy-2" fill="#D80000"></path>
				<path d="M53.6548721,47.9946492 L3.31593443,47.9946492 C1.4935082,47.9946492 0.0110163934,46.5121574 0.0110163934,44.6900459 L0.0110163934,37.9958557 C0.0110163934,36.1737443 1.4935082,34.6912525 3.31561967,34.6912525 L53.6545574,34.6912525 C55.4769836,34.6912525 56.9594754,36.1737443 56.9594754,37.9958557 L56.9594754,44.6903607 C56.9594754,46.5124721 55.4769836,47.9946492 53.6548721,47.9946492 Z M3.31561967,36.2653377 C2.36128525,36.2653377 1.58478689,37.0418361 1.58478689,37.9961705 L1.58478689,44.6903607 C1.58478689,45.6446951 2.36128525,46.4211934 3.31593443,46.4211934 L53.6548721,46.4211934 C54.6092066,46.4211934 55.3857049,45.6446951 55.3857049,44.6906754 L55.3857049,37.9961705 C55.3857049,37.0418361 54.6092066,36.2653377 53.6545574,36.2653377 L3.31561967,36.2653377 Z"
					  id="Shape" fill="#D80000"></path>
				<path d="M36.2241049,40.5617311 L18.9730623,40.5617311 C18.5383869,40.5617311 18.186177,40.2095213 18.186177,39.7748459 C18.186177,39.3401705 18.5383869,38.9879607 18.9730623,38.9879607 L36.2241049,38.9879607 C36.6587803,38.9879607 37.0109902,39.3401705 37.0109902,39.7748459 C37.0109902,40.2095213 36.6587803,40.5617311 36.2241049,40.5617311 Z"
					  id="Path" fill="#D80000"></path>
				<path d="M47.8700066,26.6820197 L18.9730623,26.6820197 C18.5383869,26.6820197 18.186177,26.3298098 18.186177,25.8951344 C18.186177,25.460459 18.5383869,25.1082492 18.9730623,25.1082492 L47.8700066,25.1082492 C48.304682,25.1082492 48.6568918,25.460459 48.6568918,25.8951344 C48.6568918,26.3298098 48.304682,26.6820197 47.8700066,26.6820197 Z"
					  id="Path" fill="#D80000"></path>
				<path d="M47.8700066,9.33245902 L18.9730623,9.33245902 C18.5383869,9.33245902 18.186177,8.98024918 18.186177,8.54557377 C18.186177,8.11089836 18.5383869,7.75868852 18.9730623,7.75868852 L47.8700066,7.75868852 C48.304682,7.75868852 48.6568918,8.11089836 48.6568918,8.54557377 C48.6568918,8.98024918 48.304682,9.33245902 47.8700066,9.33245902 Z"
					  id="Path-Copy-3" fill="#D80000"></path>
				<path d="M47.8700066,44.0240262 L18.9730623,44.0240262 C18.5383869,44.0240262 18.186177,43.6718164 18.186177,43.237141 C18.186177,42.8024656 18.5383869,42.4502557 18.9730623,42.4502557 L47.8700066,42.4502557 C48.304682,42.4502557 48.6568918,42.8024656 48.6568918,43.237141 C48.6568918,43.6718164 48.304682,44.0240262 47.8700066,44.0240262 Z"
					  id="Path" fill="#D80000"></path>
				<path d="M13.285141,30.512577 C12.8504656,30.512577 12.4982557,30.1603672 12.4982557,29.7256918 L12.4982557,18.3350557 C12.4982557,17.9003803 12.8504656,17.5481705 13.285141,17.5481705 C13.7198164,17.5481705 14.0720262,17.9003803 14.0720262,18.3350557 L14.0720262,29.7256918 C14.0720262,30.1603672 13.7198164,30.512577 13.285141,30.512577 Z"
					  id="Path" fill="#D80000"></path>
				<path d="M13.285141,13.1630164 C12.8504656,13.1630164 12.4982557,12.8108066 12.4982557,12.3761311 L12.4982557,0.985495082 C12.4982557,0.550819672 12.8504656,0.198609836 13.285141,0.198609836 C13.7198164,0.198609836 14.0720262,0.550819672 14.0720262,0.985495082 L14.0720262,12.3761311 C14.0720262,12.8108066 13.7198164,13.1630164 13.285141,13.1630164 Z"
					  id="Path-Copy-4" fill="#D80000"></path>
				<path d="M6.35771803,26.4456393 C6.15627541,26.4456393 5.95514754,26.3688393 5.80123279,26.2152393 L3.92152131,24.3355279 C3.61400656,24.0283279 3.61400656,23.5300721 3.92152131,23.2228721 C4.22903607,22.9153574 4.72697705,22.9153574 5.0344918,23.2228721 L6.35803279,24.5460984 L9.024,21.8801311 C9.3312,21.5726164 9.82977049,21.5726164 10.1366557,21.8801311 C10.4441705,22.1876459 10.4441705,22.6855869 10.1366557,22.9927869 L6.91451803,26.2149246 C6.76060328,26.3685246 6.55916066,26.4456393 6.35771803,26.4456393 Z"
					  id="Path" fill="#D80000"></path>
				<path d="M6.35771803,9.09607869 C6.15627541,9.09607869 5.95514754,9.01927869 5.80123279,8.86567869 L3.92152131,6.98596721 C3.61400656,6.67876721 3.61400656,6.18051148 3.92152131,5.87331148 C4.22903607,5.56579672 4.72697705,5.56579672 5.0344918,5.87331148 L6.35803279,7.1965377 L9.024,4.53057049 C9.3312,4.22305574 9.82977049,4.22305574 10.1366557,4.53057049 C10.4441705,4.83808525 10.4441705,5.33602623 10.1366557,5.64322623 L6.91451803,8.86536393 C6.76060328,9.01896393 6.55916066,9.09607869 6.35771803,9.09607869 Z"
					  id="Path-Copy-5" fill="#D80000"></path>
				<path d="M13.285141,47.9200525 C12.8504656,47.9200525 12.4982557,47.5678426 12.4982557,47.1331672 L12.4982557,35.6858754 C12.4982557,35.2512 12.8504656,34.8989902 13.285141,34.8989902 C13.7198164,34.8989902 14.0720262,35.2512 14.0720262,35.6858754 L14.0720262,47.1331672 C14.0720262,47.5678426 13.7198164,47.9200525 13.285141,47.9200525 Z"
					  id="Path" fill="#D80000"></path>
				<path d="M5.2416,43.9595016 C5.04015738,43.9595016 4.83871475,43.8827016 4.68511475,43.7291016 C4.3776,43.4215869 4.3776,42.9236459 4.68511475,42.6164459 L8.32241311,38.9791475 C8.62961311,38.6716328 9.12818361,38.6716328 9.43506885,38.9791475 C9.74258361,39.2866623 9.74258361,39.7846033 9.43506885,40.0918033 L5.79777049,43.7291016 C5.64448525,43.8827016 5.44304262,43.9595016 5.2416,43.9595016 Z"
					  id="Path" fill="#D80000"></path>
				<path d="M8.87889836,43.9595016 C8.67745574,43.9595016 8.47601311,43.8827016 8.32241311,43.7291016 L4.68511475,40.0918033 C4.3776,39.7842885 4.3776,39.2863475 4.68511475,38.9791475 C4.99231475,38.6716328 5.49088525,38.6716328 5.79777049,38.9791475 L9.43506885,42.6164459 C9.74258361,42.9239607 9.74258361,43.4219016 9.43506885,43.7291016 C9.28178361,43.8827016 9.08034098,43.9595016 8.87889836,43.9595016 Z"
					  id="Path" fill="#D80000"></path>
			</g>
		</g>
	</g>
</svg>
