<?xml version="1.0" encoding="UTF-8"?>
<svg width="46px" height="48px" viewBox="0 0 46 48" version="1.1" xmlns="http://www.w3.org/2000/svg"
	 xmlns:xlink="http://www.w3.org/1999/xlink">
	<title>headphones</title>
	<g id="Page-1" stroke="none" stroke-width="1" fill="none" fill-rule="evenodd">
		<g id="Home-Drop" transform="translate(-612.000000, -3261.000000)" fill="#D80000" fill-rule="nonzero">
			<g id="headphones" transform="translate(612.000000, 3261.000000)">
				<path d="M38.8135052,18.2521008 L38.8135052,16.4067227 C38.8135052,11.989916 37.2577531,7.88571429 34.4373251,4.84033613 C31.5466374,1.71428571 27.5719418,0 23.2359101,0 L21.7203065,0 C17.3842749,0 13.4095792,1.71428571 10.5188915,4.84033613 C7.69846353,7.88571429 6.14271145,11.989916 6.14271145,16.4067227 L6.14271145,18.2521008 C2.72005687,18.4840336 0,21.3478992 0,24.8470588 L0,27.7310924 C0,31.3714286 2.9509104,34.3361345 6.57430719,34.3361345 L10.2780009,34.3361345 C10.9404501,34.3361345 11.4824541,33.7915966 11.4824541,33.1260504 L11.4824541,19.4420168 C11.4824541,18.7764706 10.9404501,18.2319328 10.2780009,18.2319328 L8.5516179,18.2319328 L8.5516179,16.4067227 C8.5516179,8.4302521 14.2125481,2.42016807 21.7102694,2.42016807 L23.225873,2.42016807 C30.7336315,2.42016807 36.3845245,8.4302521 36.3845245,16.4067227 L36.3845245,18.2319328 L34.6581416,18.2319328 C33.9956923,18.2319328 33.4536883,18.7764706 33.4536883,19.4420168 L33.4536883,33.1159664 C33.4536883,33.7815126 33.9956923,34.3260504 34.6581416,34.3260504 L36.3443761,34.3260504 C35.8525577,40.6386555 31.5265632,42.1008403 29.5191411,42.4336134 C28.9671001,40.7294118 27.3711995,39.4991597 25.4942599,39.4991597 L22.4831269,39.4991597 C20.1545173,39.4991597 18.2575035,41.405042 18.2575035,43.7445378 C18.2575035,46.0840336 20.1545173,48 22.4831269,48 L25.5042971,48 C27.4514964,48 29.0875454,46.6689076 29.5793638,44.8739496 C30.5630006,44.7327731 32.1187527,44.3798319 33.6644677,43.4722689 C35.8425206,42.1915966 38.4220579,39.5798319 38.7633196,34.3159664 C42.2060484,34.1042017 44.9361702,31.2302521 44.9361702,27.7210084 L44.9361702,24.8369748 C44.9461795,21.3478992 42.2361598,18.4739496 38.8135052,18.2521008 Z M9.09362185,31.9058824 L6.59438141,31.9058824 C4.29588317,31.9058824 2.42898067,30.0302521 2.42898067,27.7210084 L2.42898067,24.8369748 C2.42898067,22.5277311 4.29588317,20.6521008 6.59438141,20.6521008 L9.09362185,20.6521008 L9.09362185,31.9058824 Z M25.5042971,45.5798319 L22.4831269,45.5798319 C21.4794159,45.5798319 20.6664099,44.7630252 20.6664099,43.7546218 C20.6664099,42.7462185 21.4794159,41.9294118 22.4831269,41.9294118 L25.5042971,41.9294118 C26.5080081,41.9294118 27.321014,42.7462185 27.321014,43.7546218 C27.321014,44.7630252 26.5080081,45.5798319 25.5042971,45.5798319 Z M42.5372731,27.7210084 C42.5372731,30.0302521 40.6703706,31.9058824 38.3718723,31.9058824 L35.8726319,31.9058824 L35.8726319,20.6521008 L38.3718723,20.6521008 C40.6703706,20.6521008 42.5372731,22.5277311 42.5372731,24.8369748 L42.5372731,27.7210084 Z"
					  id="Shape"></path>
			</g>
		</g>
	</g>
</svg>
