<?xml version="1.0" encoding="UTF-8"?>
<svg width="48px" height="49px" viewBox="0 0 48 49" version="1.1" xmlns="http://www.w3.org/2000/svg"
	 xmlns:xlink="http://www.w3.org/1999/xlink">
	<title>Group</title>
	<g id="Page-1" stroke="none" stroke-width="1" fill="none" fill-rule="evenodd" stroke-linecap="round"
	   stroke-linejoin="round">
		<g id="Dispatch-System" transform="translate(-611.000000, -1080.000000)" stroke="#D80000" stroke-width="2">
			<g id="Group-5-Copy" transform="translate(611.000000, 1081.000000)">
				<g id="trip-pins" transform="translate(1.000000, 0.000000)">
					<path d="M18.58125,8.758 C18.58125,12.702 12.5125,20.408 10.275,23.116 C10.0774252,23.3555491 9.77661176,23.4952392 9.45833333,23.4952392 C9.14005491,23.4952392 8.83924145,23.3555491 8.64166667,23.116 C6.40416667,20.4 0.335416667,12.702 0.335416667,8.758 C0.335416667,3.92109016 4.41988558,0 9.45833333,0 C14.4967811,0 18.58125,3.92109016 18.58125,8.758 Z"
						  id="Shape"></path>
					<path d="M12.8812506,8.758 C12.8820927,10.0872446 12.0486604,11.2860532 10.769671,11.7952937 C9.49068167,12.3045343 8.01808261,12.023892 7.03870329,11.0842601 C6.05932396,10.1446282 5.7660917,8.73110422 6.29577186,7.50296462 C6.82545202,6.27482502 8.07370324,5.47399939 9.45833333,5.47399939 C10.3659556,5.47346936 11.2365933,5.81922695 11.8785747,6.43515394 C12.520556,7.05108093 12.8812506,7.88668241 12.8812506,8.758 L12.8812506,8.758 Z"
						  id="Shape"></path>
					<path d="M36.5416667,21.9999998 C38.961384,21.9994693 41.2821547,22.9220141 42.9931533,24.5645728 C44.7041519,26.2071314 45.6651361,28.4350713 45.6645836,30.758 C45.6645836,34.702 39.5958333,42.406 37.3583333,45.114 C37.1607586,45.3535491 36.8599451,45.4932392 36.5416667,45.4932392 C36.2233882,45.4932392 35.9225748,45.3535491 35.725,45.114 C33.4875,42.406 27.41875,34.7 27.41875,30.756 C27.41875,28.4334179 28.3799781,26.2059918 30.0909168,24.5638658 C31.8018554,22.9217398 34.1223103,21.9994695 36.5416667,21.9999998 Z"
						  id="Shape"></path>
					<path d="M39.964584,30.758 C39.9654261,32.0872446 39.1319937,33.2860532 37.8530044,33.7952937 C36.574015,34.3045343 35.1014159,34.023892 34.1220366,33.0842601 C33.1426573,32.1446282 32.849425,30.7311042 33.3791052,29.5029646 C33.9087854,28.274825 35.1570366,27.4739994 36.5416667,27.4739994 C37.449289,27.4734694 38.3199266,27.8192269 38.961908,28.4351539 C39.6038893,29.0510809 39.964584,29.8866824 39.964584,30.758 Z"
						  id="Shape"></path>
					<polyline id="Shape" points="11.5416667 46 9.45833333 46 9.45833333 44"></polyline>
					<line x1="28.2083333" y1="46" x2="30.2916667" y2="46" id="Shape"></line>
					<line x1="21.9583333" y1="46" x2="24.0416667" y2="46" id="Shape"></line>
					<line x1="15.7083333" y1="46" x2="17.7916667" y2="46" id="Shape"></line>
					<line x1="9.45833333" y1="26" x2="9.45833333" y2="28" id="Shape"></line>
					<line x1="9.45833333" y1="32" x2="9.45833333" y2="34" id="Shape"></line>
					<line x1="9.45833333" y1="38" x2="9.45833333" y2="40" id="Shape"></line>
				</g>
			</g>
		</g>
	</g>
</svg>
