<?xml version="1.0" encoding="UTF-8"?>
<svg width="48px" height="48px" viewBox="0 0 48 48" version="1.1" xmlns="http://www.w3.org/2000/svg"
	 xmlns:xlink="http://www.w3.org/1999/xlink">
	<title>Group 5 Copy 4</title>
	<g id="Page-1" stroke="none" stroke-width="1" fill="none" fill-rule="evenodd">
		<g id="Home-Drop" transform="translate(-297.000000, -3262.000000)" fill="#D80000" fill-rule="nonzero">
			<g id="Group-11" transform="translate(-10.000000, 2723.000000)">
				<g id="Features" transform="translate(10.000000, 0.000000)">
					<g id="partner" transform="translate(297.000000, 539.000000)">
						<path d="M13.77075,31.4061563 C15.0739688,30.1725938 15.8895937,28.42875 15.8895937,26.4968438 C15.8895937,22.76775 12.85575,19.7339063 9.1265625,19.7339063 C5.39746875,19.7339063 2.363625,22.76775 2.363625,26.4968438 C2.363625,28.4286563 3.17915625,30.1725938 4.48246875,31.4061563 C1.972875,31.6341563 0,33.748875 0,36.3167813 L0,47.0626875 C0,47.5804688 0.4198125,48.0001875 0.9375,48.0001875 L17.3157187,48.0001875 C17.8335,48.0001875 18.2532187,47.5804688 18.2532187,47.0626875 L18.2532187,36.3167813 C18.2534063,33.748875 16.2803438,31.6340625 13.77075,31.4061563 Z M4.238625,26.4968438 C4.238625,23.801625 6.43134375,21.6089063 9.1265625,21.6089063 C11.8217812,21.6089063 14.0145937,23.801625 14.0145937,26.4968438 C14.0145937,29.191875 11.8221562,31.3844063 9.12721875,31.3847813 C9.12703125,31.3847813 9.12684375,31.3847813 9.12665625,31.3847813 C9.12646875,31.3847813 9.1261875,31.3847813 9.126,31.3847813 C6.43115625,31.3845 4.238625,29.191875 4.238625,26.4968438 Z M1.87509375,46.1251875 L1.87509375,36.3167813 C1.87509375,34.6311563 3.24646875,33.2597813 4.932,33.2597813 L8.18915625,33.2597813 L8.18915625,38.884875 C8.18915625,39.4026563 8.60896875,39.822375 9.12665625,39.822375 C9.64434375,39.822375 10.0641562,39.4026563 10.0641562,38.884875 L10.0641562,33.2597813 L13.3212187,33.2597813 C15.0068437,33.2597813 16.3782188,34.6311563 16.3782188,36.3167813 L16.3782188,46.1251875 L1.87509375,46.1251875 Z"
							  id="Shape"></path>
						<path d="M43.5178125,11.67225 C44.821125,10.4386875 45.6366562,8.69484375 45.6366562,6.7629375 C45.6366562,3.03384375 42.6028125,0 38.8737187,0 C35.144625,0 32.1106875,3.03384375 32.1106875,6.7629375 C32.1106875,8.69475 32.9262187,10.4386875 34.2295312,11.67225 C31.7200312,11.9001563 29.7469687,14.0149688 29.7469687,16.582875 L29.7469687,27.3287813 C29.7469687,27.8465625 30.1667812,28.2662813 30.6844687,28.2662813 L47.0626875,28.2662813 C47.5804687,28.2662813 48.0001875,27.8465625 48.0001875,27.3287813 L48.0001875,16.582875 C48.0001875,14.0149688 46.0273125,11.90025 43.5178125,11.67225 Z M33.9855937,6.7629375 C33.9855937,4.06771875 36.1784062,1.875 38.873625,1.875 C41.5688437,1.875 43.7615625,4.06771875 43.7615625,6.7629375 C43.7615625,9.45815625 41.5688437,11.650875 38.873625,11.650875 C36.1785,11.650875 33.9855937,9.45815625 33.9855937,6.7629375 Z M31.621875,26.3912812 L31.621875,16.582875 C31.621875,14.89725 32.99325,13.525875 34.678875,13.525875 L37.9359375,13.525875 L37.9359375,19.1510625 C37.9359375,19.6688438 38.35575,20.0885625 38.8734375,20.0885625 C39.391125,20.0885625 39.8109375,19.6688438 39.8109375,19.1510625 L39.8109375,13.525875 L43.0680937,13.525875 C44.753625,13.525875 46.125,14.89725 46.125,16.582875 L46.125,26.3912812 L31.621875,26.3912812 Z"
							  id="Shape"></path>
						<path d="M27.1689375,3.85040625 C27.121875,3.84196875 27.0624375,3.83428125 26.991,3.83428125 C26.4733125,3.83428125 26.0535,4.254 26.0535,4.77178125 C26.0535,5.2453125 26.4045938,5.6368125 26.8605,5.70028125 C26.9075625,5.70871875 26.967,5.71640625 27.0384375,5.71640625 C27.556125,5.71640625 27.9759375,5.2966875 27.9759375,4.77890625 C27.9760313,4.305375 27.6249375,3.913875 27.1689375,3.85040625 Z"
							  id="Path"></path>
						<path d="M24.0001875,3.60403125 C19.8766875,3.60403125 15.896625,4.8345 12.4905,7.1623125 C9.93459375,8.90896875 7.8375,11.181 6.31734375,13.8293437 L6.17109375,12.925125 C6.08840625,12.414 5.60671875,12.0665625 5.09596875,12.14925 C4.58484375,12.2319375 4.2375,12.71325 4.32009375,13.224375 L4.94390625,17.0822812 C4.94503125,17.0889375 4.947,17.0952187 4.94821875,17.1017812 C4.9524375,17.1244687 4.95740625,17.1469687 4.96321875,17.1691875 C4.96621875,17.1808125 4.9693125,17.1924375 4.972875,17.203875 C4.97925,17.22525 4.98675,17.24625 4.99471875,17.2670625 C4.99875,17.27775 5.0025,17.2884375 5.00690625,17.2989375 C5.017875,17.3248125 5.03015625,17.3500312 5.04346875,17.3747812 C5.0458125,17.3791875 5.0476875,17.3837812 5.050125,17.3881875 C5.06634375,17.4174375 5.08434375,17.4456562 5.10365625,17.473125 C5.10796875,17.4793125 5.11284375,17.4849375 5.11734375,17.4910312 C5.13290625,17.512125 5.14921875,17.5325625 5.16646875,17.5523437 C5.17284375,17.5595625 5.17959375,17.5664062 5.18615625,17.5734375 C5.20284375,17.59125 5.2201875,17.6085 5.238375,17.625 C5.24578125,17.63175 5.25328125,17.6384062 5.26096875,17.6449688 C5.2794375,17.6608125 5.29875,17.6758125 5.318625,17.69025 C5.32678125,17.6961562 5.33484375,17.70225 5.3431875,17.707875 C5.364,17.7219375 5.38575,17.7350625 5.407875,17.7475312 C5.41415625,17.7510937 5.41996875,17.7554063 5.42634375,17.758875 C5.42821875,17.7599063 5.4301875,17.7605625 5.43215625,17.7615 C5.46328125,17.7779063 5.4954375,17.7930937 5.529,17.8062187 C5.52975,17.8065 5.5305,17.8066875 5.53125,17.8069687 C5.53396875,17.808 5.53678125,17.80875 5.5395,17.8097812 C5.57025,17.8213125 5.6011875,17.8309687 5.63221875,17.839125 C5.641125,17.8414688 5.65003125,17.8434375 5.6589375,17.8454062 C5.6863125,17.8516875 5.71378125,17.8568437 5.74125,17.8606875 C5.74865625,17.8617188 5.7560625,17.8629375 5.7635625,17.8637812 C5.7988125,17.8678125 5.8340625,17.8705312 5.869125,17.8705312 C5.8730625,17.8705312 5.8768125,17.8696875 5.88075,17.8696875 C5.9176875,17.8692187 5.954625,17.8662188 5.991375,17.8613437 C6.0043125,17.8596563 6.0170625,17.8574063 6.02990625,17.8551563 C6.061125,17.8497188 6.09196875,17.8426875 6.12271875,17.8340625 C6.13228125,17.8313437 6.1419375,17.8292813 6.1515,17.8262813 C6.187125,17.8150313 6.22246875,17.8020937 6.25696875,17.7864375 L9.815625,16.171125 C10.287,15.9570938 10.4957813,15.4013437 10.28175,14.9299688 C10.0679063,14.4585 9.51215625,14.2497188 9.04059375,14.46375 L7.80075,15.0265312 C11.0295,9.23090625 17.2621875,5.47903125 24.0001875,5.47903125 C24.517875,5.47903125 24.9376875,5.0593125 24.9376875,4.54153125 C24.9376875,4.02375 24.5177813,3.60403125 24.0001875,3.60403125 Z"
							  id="Path"></path>
						<path d="M21.13875,42.2997187 C21.0919688,42.2914687 21.0328125,42.2837812 20.9616563,42.2837812 C20.4439688,42.2837812 20.0241563,42.7035 20.0241563,43.2212812 C20.0241563,43.6950937 20.3757188,44.0867813 20.8320938,44.149875 C20.878875,44.158125 20.9380313,44.1658125 21.0091875,44.1658125 C21.526875,44.1658125 21.9466875,43.7460938 21.9466875,43.2283125 C21.9467813,42.7545 21.5952188,42.3628125 21.13875,42.2997187 Z"
							  id="Path"></path>
						<path d="M43.6800937,34.7760937 L43.0562812,30.918 C43.0551562,30.9114375 43.0531875,30.9051562 43.0519688,30.8985937 C43.04775,30.8757187 43.0426875,30.853125 43.036875,30.8307187 C43.0339687,30.8192812 43.0307813,30.8080312 43.0274062,30.7967812 C43.0209375,30.775125 43.0133438,30.7538437 43.0051875,30.7326562 C43.00125,30.7223437 42.9976875,30.7118437 42.9932812,30.701625 C42.982125,30.6751875 42.9695625,30.6494062 42.9560625,30.6240937 C42.9539063,30.62025 42.9523125,30.616125 42.9501562,30.612375 C42.9338438,30.5830312 42.9158438,30.5547187 42.8964375,30.5271562 C42.8922187,30.5211562 42.8873437,30.5154375 42.8830313,30.5094375 C42.867375,30.4883437 42.8511563,30.4679062 42.8338125,30.448125 C42.8274375,30.4408125 42.8205938,30.433875 42.8139375,30.4268437 C42.7973438,30.409125 42.7801875,30.3919687 42.7620938,30.3755625 C42.7545938,30.368625 42.7469063,30.3619687 42.739125,30.3553125 C42.72075,30.3396562 42.701625,30.3246562 42.6818438,30.3103125 C42.6735938,30.3043125 42.6654375,30.2982187 42.657,30.2925 C42.6361875,30.2784375 42.6145313,30.2654062 42.5923125,30.2529375 C42.5860313,30.2492812 42.5802188,30.2449687 42.5738438,30.2415 C42.571875,30.2404687 42.5698125,30.2398125 42.5678438,30.2386875 C42.5423438,30.2252812 42.5157188,30.2131875 42.4885313,30.2019375 C42.4834688,30.199875 42.4786875,30.1971562 42.4735313,30.1951875 C42.4726875,30.1949062 42.4720313,30.1945312 42.4712813,30.1941562 C42.4395,30.1817812 42.4074375,30.1714687 42.3752813,30.16275 C42.3696563,30.1611562 42.3638438,30.1603125 42.3580313,30.1589062 C42.3302812,30.1519687 42.3025313,30.1459687 42.2745938,30.1416562 C42.26625,30.1403437 42.2578125,30.1396875 42.249375,30.1386562 C42.223875,30.135375 42.1982813,30.1328437 42.172875,30.1317187 C42.1633125,30.1313437 42.1539375,30.13125 42.1444688,30.1310795 C42.1198125,30.130875 42.0954375,30.1313437 42.0710625,30.1329375 C42.0610312,30.1335937 42.0510938,30.1343437 42.0410625,30.1352812 C42.0167813,30.137625 41.9927813,30.1410937 41.968875,30.1453125 C41.9592188,30.147 41.9496563,30.1484062 41.94,30.150375 C41.9128125,30.1560937 41.8860938,30.163125 41.8596563,30.1710937 C41.85375,30.172875 41.8479375,30.1740937 41.8422188,30.1759687 C41.8101563,30.1862812 41.77875,30.1984687 41.7480938,30.21225 C41.7465,30.2129062 41.7449063,30.213375 41.7433125,30.214125 L38.18475,31.8294375 C37.713375,32.0434687 37.5045938,32.599125 37.718625,33.0705937 C37.9325625,33.5420625 38.4882188,33.75075 38.9597813,33.5368125 L40.1995313,32.9740312 C36.970875,38.7696562 30.7381875,42.5215312 24.0000938,42.5215312 C23.4824063,42.5215312 23.0625938,42.94125 23.0625938,43.4590312 C23.0625938,43.9768125 23.4824063,44.3965312 24.0000938,44.3965312 C28.1235938,44.3965312 32.1036563,43.1661562 35.5097813,40.83825 C38.0656875,39.0915 40.1627813,36.8194687 41.6829375,34.1712187 L41.8291875,35.0754375 C41.9037188,35.5359375 42.3016875,35.8635 42.7535625,35.8634062 C42.80325,35.8634062 42.8535938,35.8594687 42.9043125,35.8512187 C43.4153437,35.768625 43.7627813,35.2872187 43.6800937,34.7760937 Z"
							  id="Path"></path>
					</g>
				</g>
			</g>
		</g>
	</g>
</svg>
