<?xml version="1.0" encoding="UTF-8"?>
<svg width="19px" height="16px" viewBox="0 0 19 16" version="1.1" xmlns="http://www.w3.org/2000/svg" xmlns:xlink="http://www.w3.org/1999/xlink">
    <!-- Generator: Sketch 58 (84663) - https://sketch.com -->
    <title>Fill 1</title>
    <desc>Created with Sketch.</desc>
    <defs>
        <filter x="-3.2%" y="-4.1%" width="107.5%" height="109.4%" filterUnits="objectBoundingBox" id="filter-1">
            <feOffset dx="0" dy="0" in="SourceAlpha" result="shadowOffsetOuter1"></feOffset>
            <feColorMatrix values="0 0 0 0 0   0 0 0 0 0   0 0 0 0 0  0 0 0 0.5 0" type="matrix" in="shadowOffsetOuter1" result="shadowMatrixOuter1"></feColorMatrix>
            <feMerge>
                <feMergeNode in="shadowMatrixOuter1"></feMergeNode>
                <feMergeNode in="SourceGraphic"></feMergeNode>
            </feMerge>
        </filter>
    </defs>
    <g id="Page-1" stroke="none" stroke-width="1" fill="none" fill-rule="evenodd">
        <g id="Social-Banner-Cab9" transform="translate(-68.000000, -297.000000)" fill="#EA0606">
            <g id="Excel" filter="url(#filter-1)" transform="translate(46.000000, 267.000000)">
                <path d="M28.387992,31.9972581 L28.657052,31.1814945 C28.657052,30.4951486 28.2424187,30.1519757 27.4143096,30.1519757 C26.8784029,30.1519757 26.3182189,30.6206507 25.7348869,31.5580008 L24.9166863,32.8630217 C23.5614498,35.1298908 22.8832952,37.5939487 22.8832952,40.2548442 C22.8832952,42.0873756 23.1942701,43.4551476 23.8150908,44.3592647 C24.4833369,45.2623025 25.4669617,45.7142857 26.7647796,45.7142857 C27.8476307,45.7142857 28.6426832,45.4171972 29.1510381,44.82302 C29.7156258,44.2210116 29.9979197,43.3336616 29.9979197,42.1628776 C29.9979197,39.9450297 29.0749598,38.8370721 27.2312138,38.8370721 L26.2288447,38.8370721 L26.059028,37.7448023 C26.059028,36.2642791 26.6004677,34.7033845 27.6822178,33.0640761 L28.3879525,31.9973083 L28.387992,31.9972581 Z M38.7596449,31.1814945 C38.7596449,30.4951486 38.3165332,30.1519757 37.4315597,30.1519757 C36.6808634,30.1519757 36.0351015,30.6206507 35.4943677,31.5580008 L34.6655487,32.8630217 C33.8953218,34.075874 33.3167141,35.3063969 32.9309756,36.5525323 C32.5562369,37.7908866 32.3694612,39.0253252 32.3694612,40.2548442 C32.3694612,42.0873756 32.7283255,43.4551476 33.4473039,44.3592647 C34.1552827,45.2623025 35.2331255,45.7142857 36.6809571,45.7142857 C37.8686716,45.7142857 38.7646447,45.4171972 39.3688767,44.82302 C39.9731086,44.2210116 40.2745995,43.3336616 40.2745995,42.1628776 C40.2745995,39.9450297 39.2541301,38.8370721 37.2131599,38.8370721 L36.1035682,38.8370721 L35.8374636,37.7448023 C35.8374636,37.2172918 36.046198,36.4181949 36.4624449,35.3475114 L37.6184103,33.0639506 L38.4631038,31.9971828 L38.7596449,31.1814945 Z" id="Fill-1"></path>
            </g>
        </g>
    </g>
</svg>